<svg width="1320" height="37" viewBox="0 0 1320 37" fill="none" xmlns="http://www.w3.org/2000/svg">
<path d="M1320 0H0V20.5941L7.12805 11.3405L20.6219 22.8551L11.8427 32.508L15.7139 35.6187L22.0141 27.1662L31.4643 35.6187L34.373 32.508L26.2309 26.0902L37.6138 12.4401L50.0319 23.9971L42.9378 32.5087L46.0744 35.6194L52.9511 27.3232L60.6831 34.6958L63.9936 31.9248L54.9751 23.3973L65.681 11L78.8084 21.7267L70.0426 32.1553L73.6949 35.0416L81.1443 25.46L91.6141 35.0416L94.3953 32.508L85.6423 24.3619L96.1323 11.7765L109.442 22.2674L100.903 32.5072L103.711 35.2721L112.153 27.3831L120.26 36.6576L123.858 32.508L114.827 24.8048L125.199 11.3405L138.693 22.8551L129.913 32.508L133.386 35.8492L140.085 27.1655L149.022 34.8103L151.762 32.1546L144.302 26.0902L155.685 12.4401L168.103 23.9971L161.578 32.0401L164.66 34.9263L171.022 27.3232L179.725 35.6187L182.498 32.5087L173.046 23.3973L183.753 11L196.878 21.7267L187.563 32.5087L190.34 35.3874L199.215 25.46L210.428 34.9255L212.467 32.508L203.714 24.3619L214.204 11.7765L227.513 22.2689L218.975 32.5087L222.298 35.85L230.987 27.3839L238.847 35.9645L242.694 32.508L233.662 24.8048L244.033 11.3405L257.527 22.8551L248.748 32.508L252.086 35.6179L258.92 27.1662L267.609 35.1561L270.462 31.808L263.136 26.0902L274.519 12.4401L286.937 23.9971L279.843 32.5087L283.017 35.8492L289.856 27.3232L297.398 34.8103L300.594 31.6927L291.88 23.3973L302.587 11L315.714 21.7259L306.398 32.508L310.068 35.7332L318.05 25.46L329.014 34.8095L331.301 32.508L322.547 24.3619L333.039 11.7765L346.347 22.2681L337.808 32.508L340.997 35.2713L349.058 27.3839L356.177 35.6179L360.766 32.508L351.734 24.8048L362.104 11.3405L375.598 22.8551L366.82 32.508L371.014 35.7332L376.99 27.1662L385.966 34.9248L389.35 32.508L381.208 26.0902L392.591 12.4401L405.008 23.9979L397.913 32.5095L400.917 35.3881L407.927 27.324L416.554 35.2721L419.403 32.5087L409.951 23.3973L420.658 11L433.785 21.7259L424.469 32.508L428.653 35.5026L436.121 25.46L447.028 34.6942L449.372 32.508L440.619 24.3619L451.11 11.7765L464.42 22.2689L455.88 32.5087L459.698 35.5034L467.867 27.3839L474.535 36.1958L479.574 32.5087L470.542 24.8055L480.913 11.3413L494.407 22.8558L485.628 32.5087L489.6 35.6187L495.799 27.1662L504.665 34.8095L508.158 32.508L500.016 26.0902L511.399 12.4401L523.818 23.9971L516.723 32.5087L519.847 35.7332L526.737 27.3232L534.455 34.3484L537.537 31.808L528.76 23.3973L539.467 11L552.592 21.7259L543.814 32.0385L547.352 35.3866L554.929 25.46L565.5 34.8095L568.181 32.508L559.427 24.3619L569.918 11.7765L583.227 22.2681L574.688 32.508L577.712 35.5019L585.939 27.3831L593.576 35.9637L597.646 32.508L588.614 24.8048L598.984 11.3405L612.478 22.8551L603.7 32.508L607.386 35.2713L613.871 27.1662L623.479 35.3866L626.229 32.508L618.087 26.0902L629.47 12.4401L641.888 23.9971L634.794 32.5087L638.203 35.5026L644.807 27.3232L652.926 34.579L656.283 32.5087L646.832 23.3973L657.538 11L670.665 21.7259L661.349 32.508L665.025 35.8484L673.001 25.46L683.743 34.463L686.253 32.508L677.499 24.3619L687.989 11.7765L701.299 22.2681L692.76 32.508L696.641 35.5019L704.771 27.3839L711.934 35.5026L716.479 32.5087L707.447 24.8055L717.818 11.3413L731.312 22.8558L722.534 32.5087L726.657 35.1561L732.704 27.1662L742.179 35.5019L745.064 32.508L736.922 26.0902L748.305 12.4401L760.722 23.9964L753.628 32.508L756.789 35.6179L763.642 27.3232L772.311 35.3874L775.117 32.5087L765.666 23.3973L776.371 11L789.5 21.7274L780.184 32.5095L783.498 36.0805L791.836 25.4607L802.559 34.3484L805.087 32.5087L796.334 24.3627L806.825 11.7773L820.134 22.2689L811.595 32.5087L814.657 35.6187L822.846 27.3846L830.408 36.0805L834.553 32.5095L825.521 24.8063L835.892 11.342L849.385 22.8566L840.607 32.5095L844.56 35.2721L850.778 27.167L859.74 35.7332L863.136 32.5087L854.994 26.0909L866.377 12.4408L878.795 23.9971L871.701 32.5087L875.262 35.6179L881.714 27.3232L890.327 35.1561L893.189 32.5087L883.737 23.3973L894.443 11L907.571 21.7259L898.256 32.508L901.856 35.7324L909.908 25.46L920.917 34.9248L923.159 32.508L914.406 24.3619L924.897 11.7765L938.206 22.2681L929.667 32.508L932.558 35.0393L939.973 27.3831L947.853 36.5408L951.68 32.508L942.648 24.8048L953.018 11.3405L966.512 22.8551L957.734 32.508L961.662 35.7324L967.905 27.1662L977.64 35.3866L980.263 32.5087L972.121 26.0909L983.504 12.4408L995.922 23.9971L988.828 32.5087L992.25 35.6179L998.841 27.3232L1007.66 35.2713L1010.32 32.5087L1000.86 23.3973L1011.57 11L1024.7 21.7282L1015.38 32.5102L1019.18 35.6194L1027.03 25.4615L1037.9 34.695L1040.28 32.5095L1031.53 24.3634L1042.02 11.7781L1055.33 22.2696L1046.79 32.5095L1050.23 35.0416L1058.04 27.3846L1065.52 35.9645L1069.75 32.5087L1060.72 24.8055L1071.09 11.3413L1084.58 22.8558L1075.8 32.5087L1079.56 35.3866L1085.98 27.1662L1095.66 35.2713L1098.33 32.5087L1090.19 26.0909L1101.58 12.4408L1113.99 23.9971L1106.9 32.5087L1110.26 35.2713L1116.91 27.3232L1125.1 35.04L1128.39 32.5087L1118.94 23.3973L1129.64 11L1142.77 21.7259L1133.45 32.508L1138 35.1553L1145.1 25.46L1156.03 34.924L1158.35 32.508L1149.6 24.3619L1160.09 11.7765L1173.4 22.2681L1164.86 32.508L1168.24 35.5011L1176.88 27.3831L1185.13 36.54L1188.58 32.508L1179.55 24.8048L1189.92 11.3405L1203.42 22.8551L1194.64 32.508L1198.49 35.6171L1204.81 27.1662L1214.47 35.7324L1217.17 32.5087L1209.03 26.0909L1220.41 12.4408L1232.83 23.9971L1225.73 32.5087L1228.96 35.5019L1235.75 27.3232L1243.57 36.4255L1247.22 32.5087L1237.77 23.3973L1248.48 11L1261.6 21.7252L1252.29 32.5072L1256.24 35.2698L1263.94 25.4592L1274.05 34.1156L1276.22 31.576L1268.44 24.3619L1278.93 11.7765L1292.24 22.2681L1283.7 32.508L1287.29 35.6171L1294.95 27.3839L1302.58 36.7721L1306.66 32.5087L1297.62 24.8055L1307.99 11.3413L1320 21.5854V0Z" fill="white"/>
<path d="M1320 24.4929L1312.71 32.5087L1316.62 35.5019L1320 31.0017V24.4929Z" fill="white"/>
<path d="M0 32.508H5.78765L0 27.5713V32.508Z" fill="white"/>
<path d="M1315.12 23.3154L1309.2 17.6628L1303.52 24.1534L1309.86 29.4708L1315.12 23.3154Z" fill="white"/>
<path d="M1285.99 23.4822L1279.57 17.7462L1274.32 24.1526L1280.4 29.4701L1285.99 23.4822Z" fill="white"/>
<path d="M1255.33 22.8293L1249.02 16.9802L1243.65 23.2919L1249.64 28.717L1255.33 22.8293Z" fill="white"/>
<path d="M1226.95 24.2057L1220.86 18.8882L1215.28 24.8761L1221.69 30.6121L1226.95 24.2057Z" fill="white"/>
<path d="M1197.04 23.3154L1191.12 17.6628L1185.45 24.1534L1191.79 29.4708L1197.04 23.3154Z" fill="white"/>
<path d="M1167.15 23.4822L1160.74 17.7462L1155.48 24.1526L1161.57 29.4701L1167.15 23.4822Z" fill="white"/>
<path d="M1136.5 22.8293L1130.18 16.9802L1124.82 23.2919L1130.81 28.717L1136.5 22.8293Z" fill="white"/>
<path d="M1108.12 24.2057L1102.03 18.8882L1096.44 24.8761L1102.86 30.6121L1108.12 24.2057Z" fill="white"/>
<path d="M1078.21 23.3154L1072.29 17.6628L1066.62 24.1534L1072.95 29.4708L1078.21 23.3154Z" fill="white"/>
<path d="M1049.08 23.4822L1042.67 17.7462L1037.41 24.1526L1043.49 29.4701L1049.08 23.4822Z" fill="white"/>
<path d="M1018.43 22.8293L1012.11 16.9802L1006.74 23.2919L1012.74 28.717L1018.43 22.8293Z" fill="white"/>
<path d="M990.044 24.2057L983.959 18.8882L978.371 24.8761L984.788 30.6121L990.044 24.2057Z" fill="white"/>
<path d="M960.138 23.3154L954.219 17.6628L948.548 24.1534L954.881 29.4708L960.138 23.3154Z" fill="white"/>
<path d="M931.956 23.4822L925.54 17.7462L920.282 24.1526L926.367 29.4701L931.956 23.4822Z" fill="white"/>
<path d="M901.3 22.8293L894.985 16.9802L889.617 23.2919L895.609 28.717L901.3 22.8293Z" fill="white"/>
<path d="M872.917 24.2057L866.831 18.8882L861.244 24.8761L867.66 30.6121L872.917 24.2057Z" fill="white"/>
<path d="M843.011 23.3154L837.092 17.6628L831.421 24.1534L837.753 29.4708L843.011 23.3154Z" fill="white"/>
<path d="M813.884 23.4822L807.468 17.7462L802.211 24.1526L808.296 29.4701L813.884 23.4822Z" fill="white"/>
<path d="M783.229 22.8293L776.913 16.9802L771.546 23.2919L777.537 28.717L783.229 22.8293Z" fill="white"/>
<path d="M754.845 24.2057L748.76 18.8882L743.172 24.8761L749.588 30.6121L754.845 24.2057Z" fill="white"/>
<path d="M724.939 23.3154L719.02 17.6628L713.349 24.1534L719.681 29.4708L724.939 23.3154Z" fill="white"/>
<path d="M695.05 23.4822L688.633 17.7462L683.377 24.1526L689.461 29.4701L695.05 23.4822Z" fill="white"/>
<path d="M664.395 22.8293L658.079 16.9802L652.712 23.2919L658.704 28.717L664.395 22.8293Z" fill="white"/>
<path d="M636.011 24.2057L629.926 18.8882L624.338 24.8761L630.754 30.6121L636.011 24.2057Z" fill="white"/>
<path d="M606.105 23.3154L600.185 17.6628L594.514 24.1534L600.847 29.4708L606.105 23.3154Z" fill="white"/>
<path d="M576.978 23.4822L570.562 17.7462L565.305 24.1526L571.389 29.4701L576.978 23.4822Z" fill="white"/>
<path d="M546.323 22.8293L540.008 16.9802L534.64 23.2919L540.632 28.717L546.323 22.8293Z" fill="white"/>
<path d="M517.939 24.2057L511.854 18.8882L506.266 24.8761L512.683 30.6121L517.939 24.2057Z" fill="white"/>
<path d="M488.033 23.3154L482.114 17.6628L476.443 24.1534L482.776 29.4708L488.033 23.3154Z" fill="white"/>
<path d="M458.17 23.4822L451.754 17.7462L446.497 24.1526L452.582 29.4701L458.17 23.4822Z" fill="white"/>
<path d="M427.515 22.8293L421.199 16.9802L415.832 23.2919L421.824 28.717L427.515 22.8293Z" fill="white"/>
<path d="M399.131 24.2057L393.046 18.8882L387.458 24.8761L393.874 30.6121L399.131 24.2057Z" fill="white"/>
<path d="M369.225 23.3154L363.306 17.6628L357.635 24.1534L363.968 29.4708L369.225 23.3154Z" fill="white"/>
<path d="M340.099 23.4822L333.683 17.7462L328.426 24.1526L334.51 29.4701L340.099 23.4822Z" fill="white"/>
<path d="M309.443 22.8293L303.128 16.9802L297.76 23.2919L303.752 28.717L309.443 22.8293Z" fill="white"/>
<path d="M281.059 24.2057L274.974 18.8882L269.386 24.8761L275.803 30.6121L281.059 24.2057Z" fill="white"/>
<path d="M251.154 23.3154L245.235 17.6628L239.563 24.1534L245.896 29.4708L251.154 23.3154Z" fill="white"/>
<path d="M221.264 23.4822L214.848 17.7462L209.591 24.1526L215.676 29.4701L221.264 23.4822Z" fill="white"/>
<path d="M190.61 22.8293L184.294 16.9802L178.927 23.2919L184.919 28.717L190.61 22.8293Z" fill="white"/>
<path d="M162.226 24.2057L156.141 18.8882L150.553 24.8761L156.969 30.6121L162.226 24.2057Z" fill="white"/>
<path d="M132.32 23.3154L126.401 17.6628L120.73 24.1534L127.063 29.4708L132.32 23.3154Z" fill="white"/>
<path d="M103.193 23.4822L96.7762 17.7462L91.5196 24.1526L97.6046 29.4701L103.193 23.4822Z" fill="white"/>
<path d="M72.5382 22.8293L66.2223 16.9802L60.8555 23.2919L66.8475 28.717L72.5382 22.8293Z" fill="white"/>
<path d="M44.1545 24.2057L38.0695 18.8882L32.4816 24.8761L38.8979 30.6121L44.1545 24.2057Z" fill="white"/>
<path d="M14.2483 23.3154L8.329 17.6628L2.65857 24.1534L8.9917 29.4708L14.2483 23.3154Z" fill="white"/>
</svg>
