<svg width="1319" height="36" viewBox="0 0 1319 36" fill="none" xmlns="http://www.w3.org/2000/svg">
<path d="M-9.53674e-07 0.000115311L1319 0L1319 20.1616L1311.88 11.1023L1298.39 22.3751L1307.17 31.8253L1303.3 34.8707L1297 26.5958L1287.56 34.8707L1284.65 31.8253L1292.79 25.5423L1281.41 12.1788L1269.01 23.4932L1276.09 31.8261L1272.96 34.8714L1266.09 26.7494L1258.36 33.9672L1255.05 31.2544L1264.07 22.906L1253.37 10.769L1240.25 21.2704L1249.01 31.4801L1245.36 34.3057L1237.92 24.9253L1227.46 34.3057L1224.68 31.8253L1233.42 23.8503L1222.94 11.5292L1209.64 21.7998L1218.17 31.8246L1215.37 34.5314L1206.93 26.8081L1198.83 35.8878L1195.24 31.8253L1204.26 24.2839L1193.9 11.1024L1180.41 22.3752L1189.18 31.8253L1185.72 35.0964L1179.02 26.595L1170.09 34.0793L1167.35 31.4793L1174.81 25.5423L1163.43 12.1789L1151.02 23.4932L1157.54 31.3673L1154.47 34.1929L1148.11 26.7494L1139.41 34.8707L1136.64 31.8261L1146.09 22.906L1135.39 10.769L1122.27 21.2704L1131.58 31.8261L1128.8 34.6443L1119.94 24.9253L1108.73 34.1921L1106.69 31.8253L1115.44 23.8503L1104.96 11.5293L1091.66 21.8013L1100.19 31.8261L1096.87 35.0971L1088.19 26.8088L1080.33 35.2092L1076.49 31.8253L1085.52 24.2839L1075.15 11.1024L1061.67 22.3752L1070.44 31.8253L1067.1 34.87L1060.28 26.5958L1051.59 34.4178L1048.74 31.1401L1056.06 25.5423L1044.69 12.1789L1032.28 23.4932L1039.37 31.8261L1036.2 35.0964L1029.36 26.7495L1021.83 34.0793L1018.63 31.0272L1027.34 22.906L1016.64 10.769L1003.53 21.2697L1012.83 31.8253L1009.17 34.9828L1001.19 24.9254L990.236 34.0786L987.95 31.8253L996.697 23.8503L986.214 11.5293L972.915 21.8005L981.448 31.8253L978.261 34.5307L970.206 26.8089L963.093 34.87L958.508 31.8253L967.533 24.2839L957.17 11.1024L943.686 22.3752L952.458 31.8253L948.267 34.9828L942.295 26.5958L933.326 34.1914L929.945 31.8253L938.081 25.5423L926.707 12.1789L914.299 23.494L921.388 31.8268L918.386 34.645L911.382 26.7502L902.761 34.5314L899.914 31.8261L909.359 22.906L898.661 10.769L885.544 21.2697L894.853 31.8253L890.672 34.7571L883.21 24.9254L872.31 33.9657L869.968 31.8253L878.715 23.8503L868.232 11.5293L854.932 21.8013L863.465 31.8261L859.651 34.7579L851.487 26.8089L844.825 35.4357L839.789 31.8261L848.814 24.2847L838.451 11.1031L824.968 22.3759L833.74 31.8261L829.771 34.8707L823.577 26.5958L814.717 34.0786L811.227 31.8254L819.363 25.5423L807.989 12.1789L795.579 23.4933L802.668 31.8261L799.547 34.9828L792.662 26.7495L784.95 33.6272L781.87 31.1401L790.641 22.906L779.942 10.7691L766.826 21.2697L775.598 31.3658L772.062 34.6436L764.491 24.9254L753.928 34.0786L751.25 31.8254L759.997 23.8504L749.514 11.5293L736.214 21.8006L744.747 31.8254L741.726 34.7564L733.505 26.8081L725.873 35.2085L721.807 31.8254L730.832 24.2839L720.469 11.1024L706.986 22.3752L715.757 31.8254L712.074 34.5307L705.595 26.5958L695.993 34.6436L693.245 31.8254L701.381 25.5423L690.007 12.1789L677.598 23.4933L684.687 31.8261L681.28 34.7571L674.681 26.7495L666.568 33.8529L663.214 31.8261L672.658 22.906L661.96 10.7691L648.843 21.2697L658.152 31.8254L654.479 35.0957L646.509 24.9254L635.775 33.7393L633.267 31.8254L642.015 23.8504L631.532 11.5293L618.232 21.8006L626.765 31.8254L622.887 34.7564L614.763 26.8089L607.606 34.7572L603.064 31.8261L612.089 24.2847L601.725 11.1032L588.242 22.3759L597.014 31.8261L592.894 34.4179L586.851 26.5958L577.383 34.7564L574.5 31.8254L582.636 25.5423L571.262 12.1789L558.854 23.4925L565.943 31.8254L562.785 34.87L555.936 26.7495L547.274 34.6443L544.47 31.8261L553.915 22.906L543.217 10.7691L530.099 21.2712L539.407 31.8269L536.096 35.3229L527.764 24.9261L517.049 33.6272L514.523 31.8261L523.269 23.8511L512.786 11.53L499.487 21.8013L508.02 31.8261L504.961 34.8708L496.777 26.8096L489.221 35.3229L485.08 31.8269L494.105 24.2854L483.742 11.1039L470.258 22.3767L479.03 31.8269L475.08 34.5315L468.867 26.5966L459.912 34.9829L456.517 31.8261L464.653 25.5431L453.279 12.1797L440.871 23.4933L447.96 31.8261L444.401 34.87L437.954 26.7495L429.347 34.4179L426.488 31.8261L435.932 22.906L425.235 10.7691L412.117 21.2698L421.425 31.8254L417.827 34.9821L409.782 24.9254L398.78 34.1915L396.541 31.8254L405.287 23.8504L394.804 11.5293L381.505 21.8006L390.038 31.8254L387.148 34.3036L379.739 26.8082L371.865 35.7735L368.041 31.8254L377.066 24.284L366.703 11.1024L353.22 22.3752L361.992 31.8254L358.066 34.9821L351.829 26.5958L342.1 34.6436L339.479 31.8261L347.615 25.5431L336.241 12.1797L323.833 23.4933L330.922 31.8261L327.502 34.87L320.916 26.7495L312.107 34.5307L309.449 31.8261L318.893 22.906L308.195 10.7691L295.079 21.272L304.388 31.8276L300.589 34.8715L292.745 24.9269L281.884 33.9665L279.504 31.8269L288.25 23.8519L277.767 11.5308L264.468 21.8021L273.001 31.8269L269.566 34.3058L261.759 26.8097L254.283 35.2093L250.06 31.8261L259.085 24.2847L248.722 11.1032L235.238 22.376L244.01 31.8261L240.255 34.6436L233.847 26.5958L224.175 34.5307L221.497 31.8261L229.633 25.5431L218.259 12.1797L205.851 23.4933L212.94 31.8261L209.577 34.5307L202.934 26.7495L194.751 34.3043L191.467 31.8261L200.911 22.9061L190.213 10.7691L177.098 21.2698L186.407 31.8254L181.865 34.4172L174.764 24.9254L163.846 34.1907L161.523 31.8254L170.27 23.8504L159.787 11.5293L146.487 21.8006L155.02 31.8254L151.643 34.7557L143.016 26.8082L134.763 35.7728L131.318 31.8254L140.343 24.284L129.979 11.1024L116.495 22.3752L125.267 31.8254L121.419 34.8693L115.103 26.5959L105.452 34.9821L102.753 31.8262L110.889 25.5431L99.5149 12.1797L87.1068 23.4933L94.1954 31.8262L90.9669 34.7565L84.1891 26.7495L76.3692 35.6607L72.7227 31.8262L82.1672 22.9061L71.4695 10.7691L58.3537 21.2691L67.6618 31.8247L63.7105 34.5293L56.0187 24.9247L45.9194 33.3993L43.7516 30.913L51.5242 23.8504L41.0413 11.5293L27.742 21.8006L36.2749 31.8254L32.6897 34.8693L25.0324 26.8089L17.4067 36L13.334 31.8262L22.3589 24.2847L11.996 11.1032L8.93758e-07 21.1323L-9.53674e-07 0.000115311Z" fill="#E0581E"/>
<path d="M1.1426e-06 23.9787L7.28427 31.8262L3.37842 34.7565L1.69967e-06 30.3508L1.1426e-06 23.9787Z" fill="#E0581E"/>
<path d="M1319 31.8253L1313.22 31.8253L1319 26.9924L1319 31.8253Z" fill="#E0581E"/>
<path d="M4.88107 22.8259L10.7959 17.292L16.4629 23.6463L10.1353 28.8521L4.88107 22.8259Z" fill="#E0581E"/>
<path d="M33.985 22.9892L40.3964 17.3736L45.6498 23.6455L39.5694 28.8513L33.985 22.9892Z" fill="#E0581E"/>
<path d="M64.6176 22.35L70.9279 16.6238L76.2913 22.8029L70.3047 28.1141L64.6176 22.35Z" fill="#E0581E"/>
<path d="M92.9798 23.6975L99.0602 18.4917L104.644 24.3538L98.2323 29.9694L92.9798 23.6975Z" fill="#E0581E"/>
<path d="M122.863 22.8259L128.778 17.2919L134.445 23.6462L128.117 28.852L122.863 22.8259Z" fill="#E0581E"/>
<path d="M152.73 22.9892L159.141 17.3736L164.394 23.6455L158.314 28.8513L152.73 22.9892Z" fill="#E0581E"/>
<path d="M183.362 22.35L189.673 16.6238L195.036 22.8029L189.049 28.1141L183.362 22.35Z" fill="#E0581E"/>
<path d="M211.724 23.6975L217.804 18.4917L223.388 24.3538L216.976 29.9694L211.724 23.6975Z" fill="#E0581E"/>
<path d="M241.607 22.8259L247.522 17.2919L253.189 23.6462L246.861 28.852L241.607 22.8259Z" fill="#E0581E"/>
<path d="M270.712 22.9892L277.123 17.3736L282.376 23.6455L276.296 28.8513L270.712 22.9892Z" fill="#E0581E"/>
<path d="M301.344 22.35L307.655 16.6238L313.018 22.8029L307.031 28.1141L301.344 22.35Z" fill="#E0581E"/>
<path d="M329.706 23.6975L335.786 18.4917L341.37 24.3537L334.958 29.9694L329.706 23.6975Z" fill="#E0581E"/>
<path d="M359.589 22.8259L365.504 17.2919L371.171 23.6462L364.843 28.852L359.589 22.8259Z" fill="#E0581E"/>
<path d="M387.75 22.9892L394.161 17.3736L399.415 23.6455L393.334 28.8513L387.75 22.9892Z" fill="#E0581E"/>
<path d="M418.383 22.35L424.693 16.6237L430.056 22.8028L424.07 28.1141L418.383 22.35Z" fill="#E0581E"/>
<path d="M446.745 23.6974L452.825 18.4917L458.409 24.3537L451.997 29.9693L446.745 23.6974Z" fill="#E0581E"/>
<path d="M476.628 22.8259L482.542 17.2919L488.209 23.6462L481.882 28.852L476.628 22.8259Z" fill="#E0581E"/>
<path d="M505.732 22.9892L512.144 17.3736L517.397 23.6455L511.317 28.8513L505.732 22.9892Z" fill="#E0581E"/>
<path d="M536.365 22.35L542.675 16.6237L548.039 22.8028L542.052 28.1141L536.365 22.35Z" fill="#E0581E"/>
<path d="M564.727 23.6974L570.807 18.4916L576.391 24.3537L569.98 29.9693L564.727 23.6974Z" fill="#E0581E"/>
<path d="M594.61 22.8258L600.525 17.2919L606.191 23.6462L599.864 28.852L594.61 22.8258Z" fill="#E0581E"/>
<path d="M624.477 22.9892L630.888 17.3736L636.141 23.6455L630.061 28.8513L624.477 22.9892Z" fill="#E0581E"/>
<path d="M655.109 22.35L661.419 16.6237L666.783 22.8028L660.795 28.114L655.109 22.35Z" fill="#E0581E"/>
<path d="M683.471 23.6974L689.551 18.4916L695.135 24.3537L688.724 29.9693L683.471 23.6974Z" fill="#E0581E"/>
<path d="M713.354 22.8258L719.269 17.2919L724.936 23.6462L718.608 28.852L713.354 22.8258Z" fill="#E0581E"/>
<path d="M742.459 22.9892L748.87 17.3736L754.123 23.6455L748.043 28.8513L742.459 22.9892Z" fill="#E0581E"/>
<path d="M773.091 22.3499L779.401 16.6237L784.765 22.8028L778.777 28.114L773.091 22.3499Z" fill="#E0581E"/>
<path d="M801.453 23.6974L807.533 18.4916L813.117 24.3537L806.706 29.9693L801.453 23.6974Z" fill="#E0581E"/>
<path d="M831.337 22.8258L837.251 17.2919L842.918 23.6462L836.59 28.852L831.337 22.8258Z" fill="#E0581E"/>
<path d="M861.177 22.9892L867.588 17.3735L872.841 23.6454L866.761 28.8512L861.177 22.9892Z" fill="#E0581E"/>
<path d="M891.809 22.3499L898.12 16.6237L903.483 22.8028L897.496 28.114L891.809 22.3499Z" fill="#E0581E"/>
<path d="M920.171 23.6974L926.252 18.4916L931.836 24.3537L925.424 29.9693L920.171 23.6974Z" fill="#E0581E"/>
<path d="M950.054 22.8258L955.969 17.2919L961.636 23.6462L955.308 28.852L950.054 22.8258Z" fill="#E0581E"/>
<path d="M979.159 22.9891L985.57 17.3735L990.823 23.6454L984.743 28.8512L979.159 22.9891Z" fill="#E0581E"/>
<path d="M1009.79 22.3499L1016.1 16.6237L1021.47 22.8028L1015.48 28.114L1009.79 22.3499Z" fill="#E0581E"/>
<path d="M1038.15 23.6974L1044.23 18.4916L1049.82 24.3537L1043.41 29.9693L1038.15 23.6974Z" fill="#E0581E"/>
<path d="M1068.04 22.8258L1073.95 17.2919L1079.62 23.6462L1073.29 28.852L1068.04 22.8258Z" fill="#E0581E"/>
<path d="M1097.9 22.9891L1104.31 17.3735L1109.57 23.6454L1103.49 28.8512L1097.9 22.9891Z" fill="#E0581E"/>
<path d="M1128.53 22.3499L1134.85 16.6237L1140.21 22.8028L1134.22 28.114L1128.53 22.3499Z" fill="#E0581E"/>
<path d="M1156.9 23.6974L1162.98 18.4916L1168.56 24.3537L1162.15 29.9693L1156.9 23.6974Z" fill="#E0581E"/>
<path d="M1186.78 22.8258L1192.7 17.2918L1198.36 23.6462L1192.03 28.852L1186.78 22.8258Z" fill="#E0581E"/>
<path d="M1215.89 22.9891L1222.3 17.3735L1227.55 23.6454L1221.47 28.8512L1215.89 22.9891Z" fill="#E0581E"/>
<path d="M1246.52 22.3499L1252.83 16.6237L1258.19 22.8028L1252.2 28.114L1246.52 22.3499Z" fill="#E0581E"/>
<path d="M1274.88 23.6974L1280.96 18.4916L1286.54 24.3537L1280.13 29.9693L1274.88 23.6974Z" fill="#E0581E"/>
<path d="M1304.76 22.8258L1310.68 17.2918L1316.34 23.6461L1310.02 28.8519L1304.76 22.8258Z" fill="#E0581E"/>
</svg>
