<?xml version="1.0" encoding="utf-8"?>
<!-- Generator: Adobe Illustrator 14.0.0, SVG Export Plug-In . SVG Version: 6.00 Build 43363)  -->
<!DOCTYPE svg PUBLIC "-//W3C//DTD SVG 1.1//EN" "http://www.w3.org/Graphics/SVG/1.1/DTD/svg11.dtd">
<svg version="1.1" id="Layer_1" xmlns="http://www.w3.org/2000/svg" xmlns:xlink="http://www.w3.org/1999/xlink" x="0px" y="0px"
	 width="1328px" height="36.771px" viewBox="-2.828 -86.771 1328 36.771"
	 enable-background="new -2.828 -86.771 1328 36.771" xml:space="preserve" fill="#E0581E">
<path d="M1326.027-59.496l-6.386,8.24l-3.908-2.959l8.778-9.541l-13.493-11.382l-10.369,13.31l9.031,7.613L1305.605-50l-7.632-9.28
	l-7.661,8.139l-3.588-3.074l8.538-10.122l-13.309-10.37l-10.489,12.44l7.778,7.131l-2.169,2.51l-10.106-8.557l-7.696,9.698
	l-3.954-2.731l9.314-10.657l-13.124-10.601l-10.704,12.253l9.45,9.005l-3.648,3.872l-7.825-8.997l-6.782,8.084l-3.23-2.959
	l7.093-8.413l-12.416-11.423l-11.382,13.493l8.143,6.343l-2.701,3.187l-9.658-8.467l-6.319,8.354l-3.851-3.074l8.777-9.542
	l-13.492-11.382l-10.37,13.31l9.03,7.614l-3.448,3.986l-8.258-9.052l-8.633,8.024l-3.378-2.958l8.537-10.122l-13.308-10.37
	l-10.49,12.44l8.754,8.052l-2.325,2.388l-10.925-9.355l-7.105,9.584l-4.545-2.617l9.315-10.657l-13.124-10.601l-10.705,12.253
	l9.45,9.005l-3.286,2.503l-8.188-7.628l-6.646,7.856l-3.365-2.731l7.093-8.413l-12.415-11.423l-11.382,13.493l8.142,6.343
	l-2.681,2.731l-9.678-8.012l-6.412,8.126l-3.758-2.846l8.778-9.541l-13.492-11.382l-10.37,13.31l9.031,7.613l-4.227,3.417
	l-7.48-8.481l-7.813,7.568l-3.437-2.503l8.538-10.121l-13.308-10.371l-10.49,12.44l8.753,8.051l-2.382,2.161l-10.868-9.127
	l-7.849,10.041l-3.802-3.073l9.315-10.657l-13.125-10.604l-10.705,12.253l9.45,9.005l-2.659,2.731l-8.814-7.856l-6.591,8.199
	l-3.422-3.074l7.093-8.413l-12.415-11.423l-11.382,13.493l8.141,6.343l-2.622,2.846l-9.734-8.126l-6.242,8.467l-3.928-3.187
	l8.777-9.542l-13.491-11.382l-10.37,13.31l9.03,7.614l-3.827,3.986l-7.878-9.052l-7.414,7.568l-2.891-2.502l8.538-10.122
	l-13.309-10.37l-10.488,12.44l8.751,8.052l-2.241,2.389l-11.008-9.356l-8.051,10.154l-3.6-3.187l9.314-10.657l-13.127-10.601
	l-10.705,12.253l9.45,9.005l-2.86,2.617l-8.613-7.742l-6.45,8.199l-3.562-3.074l7.094-8.413l-12.416-11.423l-11.382,13.493
	l8.142,6.343l-3.396,3.188l-8.961-8.467l-6.217,8.011l-3.953-2.731l8.777-9.541l-13.492-11.382l-10.369,13.309l9.03,7.613
	l-4.144,3.53l-7.561-8.595l-8.189,8.139l-3.062-3.075l8.539-10.121l-13.308-10.371L799.42-62.266l8.751,8.051l-2.528,1.82
	l-10.721-8.786l-8.337,10.497l-3.313-3.53l9.313-10.657l-13.126-10.603l-10.704,12.253l9.45,9.005l-2.806,2.846l-8.668-7.971
	l-6.853,8.199l-3.161-3.074l7.094-8.413l-12.415-11.423l-11.383,13.493l8.142,6.344l-2.885,2.959l-9.474-8.24l-6.047,7.897
	l-4.122-2.617l8.777-9.541l-13.492-11.382l-10.37,13.31l9.03,7.613l-4.546,2.96l-7.161-8.025l-8.129,8.024l-3.88-2.959l8.538-10.122
	l-13.309-10.37l-10.489,12.44l8.753,8.052l-2.51,1.932l-10.74-8.899l-7.975,10.269l-3.677-3.302l9.315-10.657L660.64-75.474
	l-10.705,12.253l9.449,9.005l-3.356,2.047l-8.116-7.172l-6.605,8.085l-3.407-2.96l7.093-8.413l-12.416-11.424l-11.382,13.493
	l8.141,6.344l-2.75,2.846l-9.607-8.126l-6.483,8.012l-3.686-2.731l8.777-9.542l-13.493-11.382l-10.368,13.31l9.03,7.614
	l-4.069,3.416l-7.637-8.482l-8.226,8.025l-3.022-2.959l8.538-10.122l-13.309-10.37l-10.489,12.44l8.752,8.052l-2.68,2.275
	l-10.569-9.242l-7.576,9.813l-3.538-3.31l8.777-10.194l-13.124-10.601l-10.706,12.253l8.775,8.313l-3.08,2.512l-7.719-6.945
	l-6.89,8.313l-3.121-3.188l7.092-8.413l-12.416-11.424l-11.383,13.493l8.143,6.344l-3.493,2.275l-8.865-7.555l-6.197,8.355
	l-3.972-3.075l8.778-9.541l-13.493-11.382l-10.369,13.31l9.031,7.613l-5.04,3.645l-6.666-8.71l-8.169,8.026l-3.816-2.961
	l8.538-10.121l-13.309-10.371l-10.49,12.44l8.753,8.052l-2.344,2.162l-10.905-9.128l-7.469,9.927l-4.183-2.96l9.315-10.657
	l-13.126-10.601l-10.706,12.253l9.451,9.005l-2.849,2.732l-8.625-7.856l-7.009,7.972l-3.005-2.846l7.094-8.413l-12.415-11.425
	l-11.382,13.493l8.142,6.344l-3.384,2.389l-8.975-7.669l-5.977,8.468l-4.192-3.188l8.776-9.542l-13.491-11.382l-10.371,13.31
	l9.031,7.614l-4.587,3.074l-7.119-8.139l-8.06,7.796l-3.188-2.731l8.538-10.122l-13.308-10.37l-10.49,12.44l8.753,8.052
	l-2.286,2.275l-10.963-9.242l-7.98,10.154l-3.67-3.188l9.314-10.657l-13.126-10.601l-10.705,12.253l8.713,8.2l-3.195,3.081
	l-7.541-7.4l-6.839,8.428l-3.173-3.303l7.093-8.413l-12.417-11.424l-11.38,13.493l7.324,5.652l-2.854,3.309l-8.688-7.897
	l-6.832,8.354l-3.339-3.074l8.777-9.542l-13.492-11.382l-10.37,13.31l9.031,7.614l-3.845,3.417l-7.859-8.482l-8.689,8.368
	l-3.323-3.303l8.539-10.121l-13.309-10.371l-10.489,12.44l8.753,8.052l-2.039,2.39l-11.212-9.356l-8.874,9.813l-2.775-2.846
	l9.313-10.656l-13.125-10.602l-10.705,12.253l9.451,9.005l-2.772,3.075l-8.702-8.2l-6.36,7.516l-3.082-2.853l6.524-7.951
	l-12.418-11.424l-11.38,13.493l7.458,5.995l-2.739,2.625l-8.937-7.556l-6.699,8.583l-3.47-3.303l8.777-9.542l-13.492-11.382
	l-10.371,13.31l9.03,7.614l-3.597,4.102l-8.107-9.167l-8.44,7.798l-2.808-2.733l8.537-10.121L99.3-74.707l-10.489,12.44l8.753,8.052
	l-2.782,2.504l-10.468-9.471l-7.447,9.471l-3.654-2.854l8.767-10.307L68.852-75.474L58.147-63.221l9.019,8.429l-3.312,2.74
	l-7.731-7.288l-6.875,8.2l-3.136-3.075l7.093-8.413L40.788-74.052L29.407-60.559l8.142,6.344L34.64-51.14l-9.449-8.355l-6.3,8.355
	l-3.87-3.075l8.778-9.542L10.307-75.139l-10.37,13.31l9.03,7.614l-3.432,3.763l-8.364-8.829v-27.49h1328.856V-59.496z
	 M1312.221-68.889l5.918,5.587l-5.257,6.084l-6.332-5.256L1312.221-68.889z M1282.601-68.807l6.416,5.67l-5.588,5.918l-6.085-5.256
	L1282.601-68.807z M1252.05-69.564l6.314,5.783l-5.69,5.819l-5.991-5.361L1252.05-69.564z M1223.899-67.678l6.085,5.257
	l-5.257,6.332l-6.415-5.67L1223.899-67.678z M1194.163-68.889l5.918,5.587l-5.258,6.084l-6.331-5.256L1194.163-68.889z
	 M1163.78-68.807l6.415,5.67l-5.588,5.918l-6.083-5.256L1163.78-68.807z M1133.229-69.564l6.315,5.783l-5.69,5.819l-5.991-5.361
	L1133.229-69.564z M1105.079-67.678l6.085,5.257l-5.256,6.332l-6.415-5.67L1105.079-67.678z M1075.343-68.889l5.919,5.587
	l-5.258,6.084l-6.331-5.256L1075.343-68.889z M1045.723-68.807l6.416,5.67l-5.589,5.918l-6.083-5.256L1045.723-68.807z
	 M1015.172-69.564l6.313,5.783l-5.689,5.819l-5.991-5.361L1015.172-69.564z M987.022-67.678l6.084,5.257l-5.256,6.332l-6.415-5.67
	L987.022-67.678z M957.285-68.889l5.919,5.587l-5.258,6.084l-6.332-5.256L957.285-68.889z M928.609-68.807l6.415,5.67l-5.588,5.918
	l-6.084-5.256L928.609-68.807z M898.059-69.564l6.314,5.783l-5.691,5.819l-5.99-5.361L898.059-69.564z M869.908-67.678l6.084,5.257
	l-5.256,6.332l-6.415-5.67L869.908-67.678z M840.172-68.889l5.919,5.587l-5.258,6.084l-6.331-5.256L840.172-68.889z M810.552-68.807
	l6.416,5.67l-5.589,5.918l-6.084-5.256L810.552-68.807z M780.001-69.564l6.313,5.783l-5.689,5.819l-5.991-5.361L780.001-69.564z
	 M751.852-67.678l6.083,5.257l-5.256,6.332l-6.415-5.67L751.852-67.678z M722.114-68.889l5.919,5.587l-5.258,6.084l-6.331-5.256
	L722.114-68.889z M691.731-68.807l6.415,5.67l-5.588,5.918l-6.084-5.256L691.731-68.807z M661.181-69.564l6.314,5.783l-5.69,5.819
	l-5.991-5.361L661.181-69.564z M633.031-67.678l6.084,5.257l-5.256,6.332l-6.417-5.67L633.031-67.678z M603.294-68.889l5.919,5.587
	l-5.258,6.084l-6.333-5.256L603.294-68.889z M573.673-68.807l6.416,5.67l-5.589,5.918l-6.083-5.256L573.673-68.807z M543.123-69.564
	l6.314,5.783l-5.691,5.819l-5.99-5.361L543.123-69.564z M514.973-67.678l6.084,5.257l-5.256,6.332l-6.415-5.67L514.973-67.678z
	 M485.235-68.889l5.919,5.587l-5.257,6.084l-6.333-5.256L485.235-68.889z M454.88-68.807l6.415,5.67l-5.588,5.918l-6.083-5.256
	L454.88-68.807z M424.329-69.564l6.313,5.783l-5.69,5.819l-5.99-5.361L424.329-69.564z M396.179-67.678l6.085,5.257l-5.257,6.332
	l-6.415-5.67L396.179-67.678z M366.441-68.889l5.92,5.587l-5.256,6.084l-6.334-5.256L366.441-68.889z M336.822-68.807l6.415,5.67
	l-5.587,5.918l-6.084-5.256L336.822-68.807z M306.271-69.564l6.314,5.783l-5.69,5.819l-5.991-5.361L306.271-69.564z M278.12-67.678
	l6.085,5.257l-5.257,6.332l-6.415-5.67L278.12-67.678z M248.384-68.889l5.919,5.587l-5.257,6.084l-6.331-5.256L248.384-68.889z
	 M218.002-68.807l6.415,5.67l-5.587,5.918l-6.084-5.256L218.002-68.807z M187.451-69.564l6.315,5.783l-5.69,5.819l-5.99-5.361
	L187.451-69.564z M159.301-67.678l6.085,5.257l-5.257,6.332l-6.415-5.67L159.301-67.678z M129.564-68.889l5.918,5.587l-5.256,6.084
	l-6.331-5.256L129.564-68.889z M99.944-68.807l6.415,5.67l-5.587,5.918l-6.083-5.256L99.944-68.807z M69.393-69.564l6.316,5.783
	l-5.69,5.819l-5.991-5.361L69.393-69.564z M41.244-67.678l6.084,5.257l-5.257,6.332l-6.415-5.67L41.244-67.678z M11.508-68.889
	l5.917,5.587l-5.256,6.084l-6.331-5.256L11.508-68.889z"/>
</svg>
