<?xml version="1.0" encoding="utf-8"?>
<!-- Generator: Adobe Illustrator 14.0.0, SVG Export Plug-In . SVG Version: 6.00 Build 43363)  -->
<!DOCTYPE svg PUBLIC "-//W3C//DTD SVG 1.1//EN" "http://www.w3.org/Graphics/SVG/1.1/DTD/svg11.dtd">
<svg version="1.1" id="Layer_1" xmlns="http://www.w3.org/2000/svg" xmlns:xlink="http://www.w3.org/1999/xlink" x="0px" y="0px"
	 width="1772px" height="58.681px" viewBox="0 0 1772 58.681" enable-background="new 0 0 1772 58.681"
	 xml:space="preserve" fill="#E0581E">
<path d="M1772.82,21.318l-8.519,10.992l-5.214-3.947l11.71-12.729l-18-15.184l-13.834,17.755l12.048,10.157l-5.437,5.622
	l-10.181-12.38l-10.222,10.857l-4.786-4.101l11.391-13.503l-17.754-13.835l-13.994,16.597l10.377,9.513l-2.895,3.349l-13.482-11.415
	l-10.268,12.938l-5.275-3.644l12.427-14.218L1673.404,0l-14.281,16.348l12.608,12.015l-4.868,5.165l-10.439-12.003l-9.048,10.785
	l-4.31-3.947l9.463-11.224L1635.965,1.9l-15.184,18l10.861,8.463l-3.604,4.251l-12.884-11.296l-8.432,11.145l-5.137-4.101
	l11.71-12.729l-18-15.185l-13.835,17.756l12.048,10.157l-4.6,5.317l-11.018-12.075l-11.517,10.705l-4.508-3.947l11.391-13.503
	l-17.754-13.835l-13.994,16.597l11.677,10.741l-3.102,3.187l-14.575-12.48l-9.479,12.785l-6.063-3.491l12.428-14.218L1514.888,0
	l-14.282,16.348l12.608,12.015l-4.384,3.339l-10.924-10.177l-8.868,10.481l-4.489-3.644l9.463-11.224L1477.448,1.9l-15.185,18
	l10.861,8.463l-3.575,3.644l-12.911-10.688l-8.555,10.841l-5.013-3.796l11.71-12.729l-18-15.184l-13.834,17.755l12.048,10.157
	l-5.638,4.558l-9.979-11.314l-10.423,10.098l-4.585-3.34l11.391-13.503l-17.754-13.835l-13.994,16.597l11.677,10.741l-3.178,2.883
	l-14.499-12.177l-10.471,13.396l-5.072-4.101l12.428-14.218L1357.388,0l-14.282,16.348l12.608,12.015l-3.548,3.644l-11.76-10.481
	l-8.792,10.938l-4.565-4.101l9.463-11.224L1319.948,1.9l-15.185,18l10.861,8.463l-3.499,3.796l-12.987-10.841l-8.326,11.296
	l-5.24-4.252l11.71-12.729l-18-15.185l-13.834,17.756l12.048,10.157l-5.105,5.318l-10.511-12.076l-9.891,10.097l-3.857-3.339
	l11.392-13.503l-17.755-13.835l-13.993,16.597l11.676,10.741l-2.99,3.188l-14.686-12.481l-10.74,13.546l-4.803-4.252l12.426-14.218
	L1201.146,0l-14.281,16.348l12.607,12.015l-3.816,3.491l-11.49-10.329l-8.605,10.938l-4.752-4.101l9.464-11.224L1163.708,1.9
	l-15.184,18l10.86,8.463l-4.53,4.252l-11.955-11.296l-8.294,10.688l-5.273-3.644l11.71-12.729l-18-15.184l-13.834,17.755
	l12.048,10.157l-5.528,4.709l-10.087-11.467l-10.925,10.858l-4.084-4.102l11.392-13.503L1084.27,1.025l-13.994,16.597l11.676,10.741
	l-3.373,2.427l-14.303-11.721l-11.123,14.004l-4.42-4.709l12.426-14.218L1043.646,0l-14.281,16.348l12.607,12.015l-3.742,3.797
	l-11.564-10.635l-9.142,10.938l-4.217-4.102l9.464-11.224l-16.564-15.239l-15.184,18l10.86,8.463l-3.848,3.948l-12.64-10.992
	l-8.066,10.536l-5.5-3.491l11.71-12.729l-18-15.184l-13.835,17.755l12.048,10.157l-6.063,3.948l-9.554-10.706L937.29,32.31
	l-5.177-3.948l11.391-13.503L925.75,1.024L911.756,17.62l11.677,10.741l-3.347,2.578l-14.33-11.872l-10.639,13.699l-4.904-4.405
	l12.427-14.218L885.13,0l-14.282,16.348l12.608,12.015l-4.479,2.73l-10.829-9.568l-8.811,10.786l-4.547-3.948l9.463-11.224
	l-16.564-15.24l-15.185,18l10.861,8.463l-3.669,3.797L826.88,21.318l-8.649,10.688l-4.918-3.645l11.711-12.729l-18-15.185
	l-13.834,17.756l12.048,10.157l-5.429,4.558l-10.188-11.315L778.647,32.31l-4.034-3.948l11.391-13.503L768.25,1.024L754.256,17.62
	l11.677,10.741l-3.575,3.035l-14.102-12.329l-10.106,13.091l-4.721-4.415l11.71-13.6L727.63,0l-14.282,16.348l11.708,11.091
	l-4.11,3.351l-10.296-9.265l-9.191,11.09l-4.166-4.252l9.463-11.224l-16.565-15.24l-15.185,18l10.861,8.463l-4.659,3.035
	L669.38,21.318l-8.269,11.146l-5.298-4.102l11.71-12.729l-18-15.184l-13.834,17.755l12.048,10.157l-6.723,4.862l-8.894-11.62
	l-10.898,10.707l-5.092-3.949l11.392-13.503L609.768,1.024L595.773,17.62l11.677,10.741l-3.127,2.884l-14.55-12.178l-9.963,13.243
	l-5.58-3.949l12.427-14.218L569.146,0l-14.281,16.348l12.607,12.015l-3.8,3.645l-11.508-10.481l-9.351,10.635l-4.008-3.797
	l9.463-11.224L531.707,1.899l-15.184,18l10.86,8.463l-4.514,3.188l-11.973-10.231l-7.973,11.297l-5.595-4.253l11.71-12.729
	l-18-15.185l-13.834,17.756l12.048,10.157l-6.121,4.102l-9.496-10.858l-10.753,10.401l-4.254-3.645l11.392-13.503L452.268,1.024
	L438.273,17.62l11.677,10.741l-3.051,3.035l-14.625-12.329l-10.647,13.547l-4.896-4.253l12.427-14.218L411.647,0l-14.282,16.348
	l11.624,10.939l-4.263,4.11l-10.061-9.873l-9.123,11.243l-4.234-4.405l9.463-11.224l-16.564-15.24l-15.184,18l9.772,7.54
	l-3.806,4.415l-11.591-10.536l-9.115,11.146l-4.453-4.102l11.71-12.729l-18-15.185l-13.834,17.756l12.048,10.157l-5.131,4.559
	l-10.485-11.315l-11.591,11.164l-4.433-4.406l11.39-13.503L293.75,1.024L279.757,17.62l11.676,10.741l-2.72,3.188l-14.957-12.482
	l-11.839,13.092l-3.704-3.797l12.426-14.218L253.13,0l-14.282,16.348l12.608,12.015l-3.698,4.102l-11.61-10.939l-8.487,10.026
	l-4.111-3.806l8.705-10.606L215.69,1.899l-15.184,18l9.95,7.997l-3.654,3.502L194.88,21.317l-8.936,11.451l-4.632-4.406
	l11.711-12.729l-18-15.185l-13.835,17.756l12.047,10.157l-4.8,5.473l-10.815-12.23l-11.26,10.403l-3.746-3.646l11.39-13.503
	L136.25,1.024L122.257,17.62l11.676,10.741l-3.71,3.342l-13.966-12.636l-9.937,12.636l-4.872-3.807l11.693-13.752L95.63,0
	L81.349,16.348l12.03,11.245l-4.416,3.654l-10.314-9.723l-9.173,10.94l-4.184-4.103l9.463-11.224L58.19,1.899l-15.184,18
	l10.861,8.463l-3.88,4.103L37.381,21.318l-8.404,11.146l-5.164-4.103l11.711-12.729l-18-15.185L3.689,18.204l12.047,10.157
	l-4.577,5.021L0,21.604v37.077h1772.82V21.318z M1754.4,8.786l7.896,7.453l-7.014,8.117l-8.447-7.012L1754.4,8.786z M1714.885,8.896
	l8.56,7.564l-7.455,7.896l-8.117-7.012L1714.885,8.896z M1674.127,7.886l8.424,7.713l-7.592,7.764l-7.992-7.153L1674.127,7.886z
	 M1636.572,10.402l8.117,7.013l-7.013,8.447l-8.559-7.563L1636.572,10.402z M1596.9,8.786l7.896,7.453l-7.014,8.117l-8.447-7.012
	L1596.9,8.786z M1556.367,8.896l8.559,7.564l-7.455,7.896l-8.115-7.012L1556.367,8.896z M1515.609,7.886l8.424,7.713l-7.591,7.764
	l-7.993-7.153L1515.609,7.886z M1478.055,10.402l8.117,7.013l-7.012,8.447l-8.559-7.563L1478.055,10.402z M1438.383,8.786
	l7.896,7.453l-7.014,8.117l-8.447-7.012L1438.383,8.786z M1398.867,8.896l8.559,7.564l-7.455,7.896l-8.115-7.012L1398.867,8.896z
	 M1358.109,7.886l8.424,7.713l-7.591,7.764l-7.993-7.153L1358.109,7.886z M1320.555,10.402l8.117,7.013l-7.012,8.447l-8.559-7.563
	L1320.555,10.402z M1280.883,8.786l7.896,7.453l-7.014,8.117l-8.447-7.012L1280.883,8.786z M1242.627,8.896l8.559,7.564
	l-7.455,7.896l-8.116-7.012L1242.627,8.896z M1201.869,7.886l8.424,7.713l-7.592,7.764l-7.992-7.153L1201.869,7.886z
	 M1164.314,10.402l8.116,7.013l-7.012,8.447l-8.559-7.563L1164.314,10.402z M1124.643,8.786l7.896,7.453l-7.014,8.117l-8.447-7.012
	L1124.643,8.786z M1085.127,8.896l8.559,7.564l-7.455,7.896l-8.116-7.012L1085.127,8.896z M1044.369,7.886l8.424,7.713l-7.592,7.764
	l-7.992-7.153L1044.369,7.886z M1006.814,10.402l8.116,7.013l-7.012,8.447l-8.559-7.563L1006.814,10.402z M967.143,8.786
	l7.896,7.453l-7.014,8.117l-8.447-7.012L967.143,8.786z M926.609,8.896l8.559,7.564l-7.455,7.896l-8.116-7.012L926.609,8.896z
	 M885.852,7.886l8.425,7.713l-7.592,7.764l-7.992-7.153L885.852,7.886z M848.297,10.402l8.117,7.013l-7.012,8.447l-8.56-7.563
	L848.297,10.402z M808.625,8.786l7.896,7.453l-7.014,8.117l-8.448-7.012L808.625,8.786z M769.109,8.896l8.559,7.564l-7.455,7.896
	l-8.116-7.012L769.109,8.896z M728.352,7.886l8.425,7.713l-7.592,7.764l-7.992-7.153L728.352,7.886z M690.797,10.402l8.117,7.013
	l-7.012,8.447l-8.56-7.563L690.797,10.402z M651.125,8.786l7.896,7.453l-7.014,8.117l-8.448-7.012L651.125,8.786z M610.627,8.896
	l8.559,7.564l-7.454,7.896l-8.116-7.012L610.627,8.896z M569.869,7.886l8.424,7.713l-7.591,7.764l-7.993-7.153L569.869,7.886z
	 M532.314,10.402l8.116,7.013l-7.012,8.447l-8.559-7.563L532.314,10.402z M492.643,8.786l7.896,7.453l-7.013,8.117l-8.448-7.012
	L492.643,8.786z M453.127,8.896l8.559,7.564l-7.454,7.896l-8.116-7.012L453.127,8.896z M412.369,7.886l8.424,7.713l-7.591,7.764
	l-7.993-7.153L412.369,7.886z M374.814,10.402l8.117,7.013l-7.012,8.447l-8.559-7.563L374.814,10.402z M335.143,8.786l7.896,7.453
	l-7.013,8.117l-8.448-7.012L335.143,8.786z M294.609,8.896l8.559,7.564l-7.454,7.896l-8.117-7.012L294.609,8.896z M253.852,7.886
	l8.425,7.713l-7.591,7.764l-7.993-7.153L253.852,7.886z M216.298,10.402l8.117,7.013l-7.012,8.447l-8.559-7.563L216.298,10.402z
	 M176.626,8.786l7.896,7.453l-7.012,8.117l-8.448-7.012L176.626,8.786z M137.109,8.896l8.559,7.564l-7.454,7.896l-8.117-7.012
	L137.109,8.896z M96.352,7.886l8.425,7.713l-7.591,7.764l-7.993-7.153L96.352,7.886z M58.798,10.402l8.117,7.013l-7.012,8.447
	l-8.559-7.563L58.798,10.402z M19.126,8.786l7.896,7.453l-7.012,8.117l-8.448-7.012L19.126,8.786z"/>
</svg>
