<svg width="28" height="25" viewBox="0 0 28 25" fill="none" xmlns="http://www.w3.org/2000/svg">
<path d="M0 12.5C0 11.6716 0.671573 11 1.5 11H26.5C27.3284 11 28 11.6716 28 12.5C28 13.3284 27.3284 14 26.5 14H1.5C0.671572 14 0 13.3284 0 12.5Z" fill="white"/>
<path d="M0 23.5C0 22.6716 0.671573 22 1.5 22H26.5C27.3284 22 28 22.6716 28 23.5C28 24.3284 27.3284 25 26.5 25H1.5C0.671572 25 0 24.3284 0 23.5Z" fill="white"/>
<path d="M0 1.5C0 0.671573 0.671573 0 1.5 0H26.5C27.3284 0 28 0.671573 28 1.5C28 2.32843 27.3284 3 26.5 3H1.5C0.671572 3 0 2.32843 0 1.5Z" fill="white"/>
</svg>
