<svg width="84" height="183" viewBox="0 0 84 183" fill="none" xmlns="http://www.w3.org/2000/svg">
<path d="M6.51814 20.2912C6.51814 20.2912 4.04296 6.14047 4.74551 0L12.8996 1.13272C12.8996 1.13272 10.2163 9.57395 12.3109 17.1745C12.3109 17.1745 15.0127 10.3817 21.7704 4.87234L27.3419 13.2335C27.3419 13.2335 19.525 16.4845 15.0268 21.4946C15.0268 21.4946 21.7031 18.8523 29.9147 22.5696L27.0915 31.2922C27.0915 31.2922 14.2277 21.7536 10.0038 30.9331C7.35295 36.698 7.08408 50.4236 20.3436 63.2933L20.4563 63.2898C24.0276 61.1138 28.2516 60.1012 33.2334 60.5498L32.5102 55.8623L18.3053 47.1032L25.9856 37.76L34.4899 49.0943L45.3989 46.2766L37.1462 31.3158L49.7421 27.9447L49.5362 45.2075L59.2211 42.7054L63.0168 28.6724L74.5048 34.7257L64.9261 45.098L67.0792 55.5279L80.136 48.4643L84 61.1173L68.4084 61.9816L70.6256 72.7271L82.6621 75.4694L76.8715 86.4599L67.9563 76.9648L59.4716 79.3409L64.6463 91.5159L55.7637 94.8775L54.5429 80.7186L43.3639 83.7152L38.0927 98.1391L27.4449 89.7297L36.4718 80.3524L34.7707 70.4169C32.005 71.3212 28.0683 73.516 25.1758 78.8452C22.7938 100.847 30.8785 106.286 36.1661 106.187C43.3889 106.053 46.9189 94.6797 46.9189 94.6797L52.9665 100.257C52.9665 100.257 46.9222 108.802 42.4142 110.487C42.4142 110.487 52.7041 110.858 58.7961 107.9L59.7968 117.482C59.7968 117.482 46.7336 119.083 41.0351 116.853C41.0351 116.853 42.5877 121.268 50.9521 124.752L45.7773 131.258C45.7773 131.258 36.7385 125.444 33.2496 115.822C33.2496 115.822 27.1392 114.097 21.9829 107.247C22.7374 113.718 24.2249 121.299 26.6904 130.198C29.9266 130.038 36.5444 130.358 40.5158 131.156C40.5158 131.156 41.3983 141.698 32.2793 159.43C28.0141 153.519 24.9318 149.081 24.9318 149.081C24.9318 149.081 29.9689 142.115 30.1153 139.399C27.7073 138.468 23.6677 139.056 23.7295 138.986C20.5691 149.149 13.4883 161.235 13.4883 161.235C13.4883 161.235 14.5904 170.292 19.3846 183H6.46154C6.46154 183 -7.02216 98.3652 13.6553 69.754C-7.8006 45.7939 1.10484 29.4201 6.51814 20.2912ZM44.5674 74.3826L61.5488 69.3419L57.7618 52.2004L41.4905 56.5971L44.5674 74.3826Z" fill="#B87924"/>
<path d="M6.51814 20.2912C6.51814 20.2912 4.04296 6.14047 4.74551 0L12.8996 1.13272C12.8996 1.13272 10.2163 9.57395 12.3109 17.1745C12.3109 17.1745 15.0127 10.3817 21.7704 4.87234L27.3419 13.2335C27.3419 13.2335 19.525 16.4845 15.0268 21.4946C15.0268 21.4946 21.7031 18.8523 29.9147 22.5696L27.0915 31.2922C27.0915 31.2922 14.2277 21.7536 10.0038 30.9331C7.35295 36.698 7.08408 50.4236 20.3436 63.2933L20.4563 63.2898C24.0276 61.1138 28.2516 60.1012 33.2334 60.5498L32.5102 55.8623L18.3053 47.1032L25.9856 37.76L34.4899 49.0943L45.3989 46.2766L37.1462 31.3158L49.7421 27.9447L49.5362 45.2075L59.2211 42.7054L63.0168 28.6724L74.5048 34.7257L64.9261 45.098L67.0792 55.5279L80.136 48.4643L84 61.1173L68.4084 61.9816L70.6256 72.7271L82.6621 75.4694L76.8715 86.4599L67.9563 76.9648L59.4716 79.3409L64.6463 91.5159L55.7637 94.8775L54.5429 80.7186L43.3639 83.7152L38.0927 98.1391L27.4449 89.7297L36.4718 80.3524L34.7707 70.4169C32.005 71.3212 28.0683 73.516 25.1758 78.8452C22.7938 100.847 30.8785 106.286 36.1661 106.187C43.3889 106.053 46.9189 94.6797 46.9189 94.6797L52.9665 100.257C52.9665 100.257 46.9222 108.802 42.4142 110.487C42.4142 110.487 52.7041 110.858 58.7961 107.9L59.7968 117.482C59.7968 117.482 46.7336 119.083 41.0351 116.853C41.0351 116.853 42.5877 121.268 50.9521 124.752L45.7773 131.258C45.7773 131.258 36.7385 125.444 33.2496 115.822C33.2496 115.822 27.1392 114.097 21.9829 107.247C22.7374 113.718 24.2249 121.299 26.6904 130.198C29.9266 130.038 36.5444 130.358 40.5158 131.156C40.5158 131.156 41.3983 141.698 32.2793 159.43C28.0141 153.519 24.9318 149.081 24.9318 149.081C24.9318 149.081 29.9689 142.115 30.1153 139.399C27.7073 138.468 23.6677 139.056 23.7295 138.986C20.5691 149.149 13.4883 161.235 13.4883 161.235C13.4883 161.235 14.5904 170.292 19.3846 183H6.46154C6.46154 183 -7.02216 98.3652 13.6553 69.754C-7.8006 45.7939 1.10484 29.4201 6.51814 20.2912ZM44.5674 74.3826L61.5488 69.3419L57.7618 52.2004L41.4905 56.5971L44.5674 74.3826Z" fill="white"/>
</svg>
