<svg width="151" height="135" viewBox="0 0 151 135" fill="none" xmlns="http://www.w3.org/2000/svg">
<path d="M122.058 71.2785C122.058 71.2785 119.565 64.1217 115.581 58.7844L108.498 71.8315C108.498 71.8315 119.42 74.5002 113.108 81.6596C107.367 88.1713 80.535 94.0734 64.3132 70.8414L64.2752 71.1311C63.1219 66.1769 62.6253 62.2035 62.4103 59.6796L75.6782 62.268L81.5245 76.2525L94.8658 67.5395L82.1523 55.7971L83.869 41.9219L99.1145 46.1954L99.4592 34.7782L84.5663 35.7788L85.7641 25.2082L99.4867 18.8926L90.5633 7.93359L82.5113 20.487L70.3836 18.707L76.2234 0.678028L61.4012 0L63.101 17.6327L51.3271 15.904L44.6866 0.893944L33.4291 11.5041L46.3759 21.4191L44.7928 33.4024L26.9367 26.268L24.9971 41.9008L44.1139 38.5212L42.3277 52.0173L26.8725 57.1321L33.264 69.5775L48.5068 56.9688L53.8119 58.0037C50.6011 66.036 49.263 75.1953 49.0245 84.327C32.1605 105.838 8.91552 91.4364 13.6885 75.8259C25.9787 91.2955 38.358 82.7826 38.358 82.7826L27.5461 67.608C24.8241 69.1075 22.1008 68.5098 19.7497 66.7482C20.1101 62.4431 16.9478 54.5266 12.9847 54.0948C12.4356 49.5658 13.7501 45.4424 18.0159 44.3286L12.4789 22.9819C8.69273 23.1912 -6.02591 33.0772 5.3941 60.9764C-11.31 83.3593 12.8484 120.256 49.4675 98.7169C51.0938 118.49 56.26 135 56.26 135H112.928C92.6562 123.267 80.5062 108.392 73.2078 94.762C96.8198 107.693 117.566 92.6397 125.535 83.5884C125.535 83.5884 133.196 80.1166 142.164 86.2715L148.024 74.9438C148.024 74.9438 138.611 70.9296 127.689 74.6845C127.689 74.6845 135.357 64.8629 151 66.3454V52.7006C151 52.7006 128.865 52.7006 122.058 71.2785ZM55.6152 26.867L75.0688 29.4251L72.9693 50.6968L53.1527 47.0775L55.6152 26.867Z" fill="#9ACA3C"/>
</svg>
