<svg width="49" height="54" viewBox="0 0 49 54" fill="none" xmlns="http://www.w3.org/2000/svg">
<rect x="15.3778" y="27.9332" width="14.6578" height="14.6578" transform="rotate(-54.0251 15.3778 27.9332)" fill="white"/>
<path d="M44.0943 30.6233L36.5329 28.2938L38.2311 24.6509L45.6556 23.9044L46.9323 23.7761L46.496 22.5694L43.8969 15.3809L43.4207 14.0638L42.3295 14.9418L36.629 19.529L32.4456 17.3209L37.7988 10.0632L38.5637 9.02608L37.3691 8.54264L30.0304 5.57271L28.9478 5.13458L28.6816 6.27177L26.7938 14.3367L22.7983 12.2282L22.0915 3.91528L21.9709 2.49771L20.6779 3.09115L13.1876 6.52898L12.1336 7.01271L12.7671 7.98408L17.2602 14.8738L15.2231 19.0412L8.45491 13.0935L7.46333 12.2221L6.89297 13.4126L3.22405 21.0704L2.64656 22.2757L3.96589 22.4896L12.8332 23.9269L10.4797 28.7384L2.45801 28.6297L1.28939 28.6139L1.45449 29.7709L2.52474 37.2713L2.70159 38.5107L3.87126 38.0643L13.256 34.4828L15.5107 35.8372L9.90883 43.0831L9.17812 44.0282L10.2372 44.5812L17.422 48.3323L18.5397 48.9159L18.8533 47.6946L21.0502 39.1396L24.9373 41.389L25.7549 50.648L25.8711 51.9643L27.1063 51.4947L35.1424 48.44L36.1932 48.0406L35.6741 47.0435L31.5195 39.0623L33.8352 34.1211L40.6846 39.4029L41.7752 40.2439L42.2373 38.9465L44.742 31.9145L45.0923 30.9307L44.0943 30.6233ZM26.2784 33.0785L18.6957 28.7298L22.5769 20.584L30.1569 24.4386L26.2784 33.0785Z" fill="white" stroke="#FFCF8D" stroke-width="2"/>
</svg>
