<svg width="20" height="26" viewBox="0 0 20 26" fill="none" xmlns="http://www.w3.org/2000/svg">
<path d="M9.93066 25.167L2.82812 15.3318C1.68149 13.8499 1 12.0022 1 9.99801C1 5.1209 5.02925 1.16699 10 1.16699C14.9708 1.16699 19 5.1209 19 9.99801C19 11.9827 18.333 13.8143 17.2069 15.289L9.93066 25.167ZM10.0003 6.88351C8.25919 6.88351 6.84806 8.26815 6.84806 9.97659C6.84806 11.685 8.25919 13.0697 10.0003 13.0697C11.7411 13.0697 13.1526 11.685 13.1526 9.97659C13.1523 8.26847 11.7411 6.88351 10.0003 6.88351Z" stroke="#7AAD16" stroke-width="1.5" stroke-linecap="round" stroke-linejoin="round"/>
<path d="M9.93066 25.167L2.82812 15.3318C1.68149 13.8499 1 12.0022 1 9.99801C1 5.1209 5.02925 1.16699 10 1.16699C14.9708 1.16699 19 5.1209 19 9.99801C19 11.9827 18.333 13.8143 17.2069 15.289L9.93066 25.167ZM10.0003 6.88351C8.25919 6.88351 6.84806 8.26815 6.84806 9.97659C6.84806 11.685 8.25919 13.0697 10.0003 13.0697C11.7411 13.0697 13.1526 11.685 13.1526 9.97659C13.1523 8.26847 11.7411 6.88351 10.0003 6.88351Z" stroke="#E0581E" stroke-width="1.5" stroke-linecap="round" stroke-linejoin="round"/>
</svg>
