<svg width="90" height="88" viewBox="0 0 90 88" fill="none" xmlns="http://www.w3.org/2000/svg">
<path d="M19.8464 75.2732C19.8464 75.2732 29.333 67.0921 35.1668 52.4639C19.8095 58.5477 12.2637 48.8673 12.2637 48.8673C5.78886 49.0891 1.52588e-05 44.9006 1.52588e-05 44.9006L2.33752 40.0515C6.60539 44.4008 9.56326 44.2688 9.56326 44.2688C6.73817 41.2708 4.11961 32.7234 4.11961 32.7234L9.89739 30.9594C9.84724 35.4966 12.8479 41.8222 12.8479 41.8222C12.5956 38.5905 15.8692 32.691 15.8692 32.691L20.7117 35.0727C20.7117 35.0727 15.1323 40.109 17.0095 44.647C18.4715 48.1795 24.3835 52.1292 38.0472 43.2442C38.5621 41.0025 38.967 38.6546 39.2377 36.2058L35.0657 31.2955L29.2031 37.9993L25.5327 32.7595L32.8499 28.6344L29.0394 24.0536L20.6386 25.3297L21.4714 17.4457L29.1176 20.8396L34.2787 16.2648L25.9923 9.62514L32.7607 4.73627L37.3782 13.5166L42.3888 9.07595L40.9018 0L49.4597 1.49497L46.4126 10.1308L50.8398 15.2534L57.0513 6.40447L62.7671 13.1259L52.731 17.4405L57.7181 23.2088L66.5643 20.8359L67.3794 28.6344L56.3313 27.4328L53.1603 30.5694L61.685 37.0867L55.2736 42.7193L50.1774 33.5203L46.0128 37.4928C46.4989 38.9738 47.1553 41.189 47.7403 43.8774C57.721 52.8177 66.8668 51.2004 70.2989 48.7154C75.5043 44.9478 68.1849 37.2894 68.1849 37.2894L73.2641 34.5059C76.4706 39.6365 75.5773 44.3846 75.5773 44.3846C78.1752 40.8558 79.32 35.2806 79.32 35.2806L85.1044 38.1666C82.4475 43.2619 78.5485 45.7668 78.5485 45.7668C83.4772 46.397 88.3979 43.7373 88.3979 43.7373L90 49.0921C86.2817 50.189 77.2613 49.9701 77.2613 49.9701C72.5273 54.253 64.1885 61.2545 48.9662 52.2073C49.3011 56.7424 49.0864 61.7035 47.6916 66.428C47.6916 66.428 59.3091 67.1651 65.9477 69.3766C65.9477 69.3766 68.5294 79.144 68.7138 84.1199C68.7138 84.1199 65.7633 86.3314 61.3376 86.3314C61.3376 86.3314 61.522 78.5911 60.5999 74.5368C60.5999 74.5368 56.2554 73.3263 54.3132 73.0351C54.3132 73.0351 46.1544 98.2734 21.5061 83.1984C21.5061 83.1984 10.2574 74.1682 6.56926 67.9023L12.4702 63.8479C12.4702 63.8479 15.9739 71.7716 19.8464 75.2732ZM51.106 24.2357L43.7379 15.5313L35.3667 22.7297L42.8904 32.0423L51.106 24.2357Z" fill="#EBAC56"/>
<path d="M19.8464 75.2732C19.8464 75.2732 29.333 67.0921 35.1668 52.4639C19.8095 58.5477 12.2637 48.8673 12.2637 48.8673C5.78886 49.0891 1.52588e-05 44.9006 1.52588e-05 44.9006L2.33752 40.0515C6.60539 44.4008 9.56326 44.2688 9.56326 44.2688C6.73817 41.2708 4.11961 32.7234 4.11961 32.7234L9.89739 30.9594C9.84724 35.4966 12.8479 41.8222 12.8479 41.8222C12.5956 38.5905 15.8692 32.691 15.8692 32.691L20.7117 35.0727C20.7117 35.0727 15.1323 40.109 17.0095 44.647C18.4715 48.1795 24.3835 52.1292 38.0472 43.2442C38.5621 41.0025 38.967 38.6546 39.2377 36.2058L35.0657 31.2955L29.2031 37.9993L25.5327 32.7595L32.8499 28.6344L29.0394 24.0536L20.6386 25.3297L21.4714 17.4457L29.1176 20.8396L34.2787 16.2648L25.9923 9.62514L32.7607 4.73627L37.3782 13.5166L42.3888 9.07595L40.9018 0L49.4597 1.49497L46.4126 10.1308L50.8398 15.2534L57.0513 6.40447L62.7671 13.1259L52.731 17.4405L57.7181 23.2088L66.5643 20.8359L67.3794 28.6344L56.3313 27.4328L53.1603 30.5694L61.685 37.0867L55.2736 42.7193L50.1774 33.5203L46.0128 37.4928C46.4989 38.9738 47.1553 41.189 47.7403 43.8774C57.721 52.8177 66.8668 51.2004 70.2989 48.7154C75.5043 44.9478 68.1849 37.2894 68.1849 37.2894L73.2641 34.5059C76.4706 39.6365 75.5773 44.3846 75.5773 44.3846C78.1752 40.8558 79.32 35.2806 79.32 35.2806L85.1044 38.1666C82.4475 43.2619 78.5485 45.7668 78.5485 45.7668C83.4772 46.397 88.3979 43.7373 88.3979 43.7373L90 49.0921C86.2817 50.189 77.2613 49.9701 77.2613 49.9701C72.5273 54.253 64.1885 61.2545 48.9662 52.2073C49.3011 56.7424 49.0864 61.7035 47.6916 66.428C47.6916 66.428 59.3091 67.1651 65.9477 69.3766C65.9477 69.3766 68.5294 79.144 68.7138 84.1199C68.7138 84.1199 65.7633 86.3314 61.3376 86.3314C61.3376 86.3314 61.522 78.5911 60.5999 74.5368C60.5999 74.5368 56.2554 73.3263 54.3132 73.0351C54.3132 73.0351 46.1544 98.2734 21.5061 83.1984C21.5061 83.1984 10.2574 74.1682 6.56926 67.9023L12.4702 63.8479C12.4702 63.8479 15.9739 71.7716 19.8464 75.2732ZM51.106 24.2357L43.7379 15.5313L35.3667 22.7297L42.8904 32.0423L51.106 24.2357Z" fill="#FFCF8D"/>
</svg>
