<svg width="91" height="165" viewBox="0 0 91 165" fill="none" xmlns="http://www.w3.org/2000/svg">
<path d="M12.5213 66.7247L0 66.4337L4.15 55.4063L14.9426 61.6274L22.9103 57.0101L12.6267 46.5205L23.0579 40.5873L26.3134 55.0373L35.286 49.8371L34.3303 37.4578L44.9733 38.3237L40.5924 52.7416L43.9946 57.7509L54.8574 48.0243L60.7863 57.9759L47.1949 62.4643L52.2183 70.1582C55.8573 68.7324 59.0676 68.3755 61.9076 68.8734C62.797 62.8272 64.4916 46.4805 60.9138 25.6914C60.9138 25.6914 58.4473 17.3796 51.9994 18.3244L54.2762 11.7124C54.2762 11.7124 59.7764 13.4131 62.0521 18.1355C62.0521 18.1355 63.1905 12.2793 58.638 5.10029L65.2756 0C65.2756 0 69.6374 10.7675 67.1719 19.8352C67.1719 19.8352 71.5347 17.5676 72.6721 10.5785L77.6031 15.8678C77.6031 15.8678 74.9478 22.6688 67.7401 25.8804C67.7401 25.8804 73.4059 44.7238 69.2027 72.6139C70.0178 73.3698 70.7898 74.2137 71.5136 75.1515C88.1568 70.2772 84.6783 52.3767 84.6783 52.3767C81.1247 52.5097 77.4374 55.9822 77.4374 55.9822L73.7502 49.972C77.7055 47.3684 83.1816 47.0554 83.1816 47.0554C78.8188 44.4378 74.0775 46.9095 74.0775 46.9095L72.142 39.8884C77.5057 39.1535 81.7962 40.6893 81.7962 40.6893L84.6783 37.0848C87.5615 40.9583 89.25 45.4577 89.25 45.4577C95.8635 68.3845 82.1024 77.8522 75.0533 81.0947C85.5929 103.542 82.6034 148.502 82.6034 148.502L77 149C77 149 80 156.5 79 165H70C70.9489 157 69 150 69 150L61 150.5C59.4942 158.499 57 165 57 165H48C78.2927 85.6691 53.1348 77.7492 49.1414 77.0833L40.4198 82.0396L47.9217 91.5272L39.9871 95.1058L36.3029 84.3262L29.2156 88.2577L28.8151 99.7671L18.4722 96.6865L24.9341 87.3478L20.1065 79.3269L9.13923 88.7066L4.29556 78.4661L17.2053 74.5116L12.5213 66.7247ZM29.0339 79.4939L43.3872 71.8L34.9999 58.9028L21.5009 66.5407L29.0339 79.4939Z" fill="#FFCF8E"/>
</svg>
