<svg width="85" height="117" viewBox="0 0 85 117" fill="none" xmlns="http://www.w3.org/2000/svg">
<path d="M68.2011 117C68.2011 117 65.1426 111.713 62.9689 106.088C60.415 106.088 50.3054 106.088 50.3054 106.088C50.3054 106.088 50.2699 110.34 51.4986 117C51.2274 117 44.9813 117 44.9813 117C42.7409 89.9349 48.1473 64.5557 50.1061 54.6174C44.839 54.4826 30.7007 54.9084 22.4269 62.6729C17.0642 67.7068 26.4897 75.3373 26.4897 75.3373L21.127 79.2347C16.7396 73.8758 17.0642 68.3561 17.0642 68.3561C14.6267 72.7393 14.139 79.2347 14.139 79.2347L7.15028 76.7996C9.42551 70.6291 13.489 67.2196 13.489 67.2196C7.80024 67.2196 2.59983 70.9534 2.59983 70.9534L0 65.108C4.06279 63.3222 14.3013 63.16 14.3013 63.16C24.3582 51.4167 43.8503 49.4272 51.1229 49.097C32.7106 41.7967 21.7777 25.6532 21.7777 25.6532C15.9266 23.218 8.61398 17.0476 8.61398 17.0476L12.8391 12.1773C16.0889 18.8334 20.6393 20.945 20.6393 20.945C18.5271 16.3982 18.5271 8.11842 18.5271 8.11842H25.5159C23.2406 13.1516 24.7021 19.9706 24.7021 19.9706C25.5159 16.0739 31.5285 9.57922 31.5285 9.57922L36.0797 14.126C36.0797 14.126 28.6033 17.6976 27.9534 23.7052C27.1011 31.5859 46.1122 40.6913 52.6214 43.5685C53.9399 38.5264 54.933 35.7196 54.933 35.7196L51.7365 29.0197L44.3676 34.0959L42.0924 28.0883L50.2387 25.8819L47.6619 20.4808L39.1665 19.6456L41.9301 12.1773L48.5349 17.3719L54.6943 14.1948L48.2688 5.68252L56.0706 2.5973L58.3917 12.2861L64.3703 9.20236L65.1715 0L73.1347 3.57166L68.0285 11.2244L71.0707 17.3052L79.3112 10.2278L83.2124 18.1848L72.3707 19.9018L75.7983 26.7504L85 26.6283L83.8624 34.4209L73.4015 30.519L69.5366 32.7876L76.223 41.2399L68.5843 45.1374L65.9 34.9222L60.9464 37.8304C50.8872 79.3539 75.9406 116.999 75.9406 116.999H68.2011V117ZM69.106 26.1152L64.0872 15.82L54.1533 20.7569L59.1721 31.6829L69.106 26.1152Z" fill="#FFCF8D"/>
</svg>
