<svg width="90" height="95" viewBox="0 0 90 95" fill="none" xmlns="http://www.w3.org/2000/svg">
<mask id="mask0" mask-type="alpha" maskUnits="userSpaceOnUse" x="0" y="0" width="90" height="95">
<rect width="90" height="95" fill="#C4C4C4"/>
</mask>
<g mask="url(#mask0)">
<path d="M70.2666 16.5275C70.2666 16.5275 72.064 7.09364 71.5539 3L65.6324 3.75515C65.6324 3.75515 67.581 9.38263 66.0599 14.4496C66.0599 14.4496 64.0979 9.92112 59.1906 6.24823L55.1445 11.8223C55.1445 11.8223 60.8211 13.9896 64.0877 17.3297C64.0877 17.3297 59.2394 15.5682 53.2762 18.0464L55.3264 23.8615C55.3264 23.8615 64.668 17.5024 67.7354 23.6221C69.6604 27.4653 69.8556 36.6158 60.2267 45.1955L60.1448 45.1932C57.5514 43.7425 54.484 43.0675 50.8662 43.3665L51.3914 40.2416L61.7068 34.4021L56.1295 28.1734L49.9537 35.7295L42.0317 33.8511L48.0248 23.8772L38.8777 21.6298L39.0273 33.1383L31.9942 31.4703L29.2378 22.1149L20.8953 26.1505L27.8513 33.0653L26.2877 40.0186L16.806 35.3096L14 43.7449L25.3224 44.3211L23.7124 51.4848L14.9716 53.313L19.1766 60.6399L25.6508 54.3099L31.8123 55.894L28.0544 64.0106L34.505 66.2517L35.3915 56.8124L43.5095 58.8101L47.3375 68.4261L55.0697 62.8198L48.5145 56.5682L49.7498 49.9446C51.7583 50.5475 54.617 52.0107 56.7176 55.5635C58.4473 70.2315 52.5763 73.8573 48.7365 73.7914C43.4914 73.7019 40.9279 66.1198 40.9279 66.1198L36.5362 69.8383C36.5362 69.8383 40.9255 75.5348 44.1992 76.6581C44.1992 76.6581 36.7268 76.9054 32.3028 74.9335L31.5761 81.3217C31.5761 81.3217 41.0625 82.3884 45.2007 80.9017C45.2007 80.9017 44.0732 83.8453 37.9991 86.1681L41.757 90.5051C41.757 90.5051 48.3208 86.6296 50.8544 80.2148C50.8544 80.2148 55.2918 79.0648 59.0363 74.4979C58.4883 78.8121 57.4081 83.8657 55.6177 89.7986C53.2676 89.6918 48.4618 89.9053 45.5778 90.4376C45.5778 90.4376 44.9369 97.4654 51.5591 109.286C54.6564 105.346 56.8947 102.387 56.8947 102.387C56.8947 102.387 53.2369 97.7433 53.1306 95.9324C54.8792 95.3123 57.8128 95.704 57.7679 95.6576C60.0629 102.433 65.2049 110.49 65.2049 110.49C65.2049 110.49 64.4046 116.528 60.9231 125H70.3077C70.3077 125 80.0994 68.5768 65.0837 49.5027C80.6647 33.5292 74.1977 22.6134 70.2666 16.5275ZM42.6356 52.5884L30.3038 49.228L33.0539 37.8003L44.87 40.7314L42.6356 52.5884Z" fill="#B87924"/>
<path d="M70.2666 16.5275C70.2666 16.5275 72.064 7.09364 71.5539 3L65.6324 3.75515C65.6324 3.75515 67.581 9.38263 66.0599 14.4496C66.0599 14.4496 64.0979 9.92112 59.1906 6.24823L55.1445 11.8223C55.1445 11.8223 60.8211 13.9896 64.0877 17.3297C64.0877 17.3297 59.2394 15.5682 53.2762 18.0464L55.3264 23.8615C55.3264 23.8615 64.668 17.5024 67.7354 23.6221C69.6604 27.4653 69.8556 36.6158 60.2267 45.1955L60.1448 45.1932C57.5514 43.7425 54.484 43.0675 50.8662 43.3665L51.3914 40.2416L61.7068 34.4021L56.1295 28.1734L49.9537 35.7295L42.0317 33.8511L48.0248 23.8772L38.8777 21.6298L39.0273 33.1383L31.9942 31.4703L29.2378 22.1149L20.8953 26.1505L27.8513 33.0653L26.2877 40.0186L16.806 35.3096L14 43.7449L25.3224 44.3211L23.7124 51.4848L14.9716 53.313L19.1766 60.6399L25.6508 54.3099L31.8123 55.894L28.0544 64.0106L34.505 66.2517L35.3915 56.8124L43.5095 58.8101L47.3375 68.4261L55.0697 62.8198L48.5145 56.5682L49.7498 49.9446C51.7583 50.5475 54.617 52.0107 56.7176 55.5635C58.4473 70.2315 52.5763 73.8573 48.7365 73.7914C43.4914 73.7019 40.9279 66.1198 40.9279 66.1198L36.5362 69.8383C36.5362 69.8383 40.9255 75.5348 44.1992 76.6581C44.1992 76.6581 36.7268 76.9054 32.3028 74.9335L31.5761 81.3217C31.5761 81.3217 41.0625 82.3884 45.2007 80.9017C45.2007 80.9017 44.0732 83.8453 37.9991 86.1681L41.757 90.5051C41.757 90.5051 48.3208 86.6296 50.8544 80.2148C50.8544 80.2148 55.2918 79.0648 59.0363 74.4979C58.4883 78.8121 57.4081 83.8657 55.6177 89.7986C53.2676 89.6918 48.4618 89.9053 45.5778 90.4376C45.5778 90.4376 44.9369 97.4654 51.5591 109.286C54.6564 105.346 56.8947 102.387 56.8947 102.387C56.8947 102.387 53.2369 97.7433 53.1306 95.9324C54.8792 95.3123 57.8128 95.704 57.7679 95.6576C60.0629 102.433 65.2049 110.49 65.2049 110.49C65.2049 110.49 64.4046 116.528 60.9231 125H70.3077C70.3077 125 80.0994 68.5768 65.0837 49.5027C80.6647 33.5292 74.1977 22.6134 70.2666 16.5275ZM42.6356 52.5884L30.3038 49.228L33.0539 37.8003L44.87 40.7314L42.6356 52.5884Z" fill="#FFC683"/>
</g>
</svg>
