<svg width="122" height="95" viewBox="0 0 122 95" fill="none" xmlns="http://www.w3.org/2000/svg">
<mask id="mask0" mask-type="alpha" maskUnits="userSpaceOnUse" x="0" y="0" width="122" height="95">
<rect width="122" height="95" fill="#C4C4C4"/>
</mask>
<g mask="url(#mask0)">
<path d="M27.5342 62.9759C27.5342 62.9759 29.2167 58.1588 31.9057 54.5664L36.6866 63.3481C36.6866 63.3481 29.3148 65.1443 33.5748 69.9632C37.45 74.3461 55.5601 78.3187 66.509 62.6817L66.5347 62.8767C67.3131 59.5421 67.6483 56.8677 67.7934 55.169L58.8383 56.9112L54.8923 66.3238L45.8876 60.4593L54.4686 52.5557L53.3099 43.2167L43.02 46.0931L42.7873 38.4084L52.8393 39.0819L52.0308 31.967L42.7687 27.7162L48.7916 20.3399L54.2262 28.7893L62.4118 27.5912L58.4703 15.4564L68.4745 15L67.3272 26.8682L75.274 25.7046L79.7559 15.6017L87.3542 22.7431L78.6158 29.4167L79.6843 37.4824L91.7362 32.6804L93.0453 43.2025L80.1425 40.9277L81.3481 50.0116L91.7795 53.4543L87.4656 61.831L77.1775 53.3444L73.5969 54.0409C75.764 59.4473 76.6671 65.6122 76.8281 71.7585C88.2104 86.2373 103.9 76.5437 100.678 66.0367C92.3828 76.4489 84.0274 70.7191 84.0274 70.7191L91.3249 60.5054C93.1621 61.5147 95.0002 61.1124 96.587 59.9267C96.3438 57.029 98.4782 51.7006 101.153 51.41C101.524 48.3616 100.636 45.5862 97.7573 44.8365L101.494 30.4686C104.05 30.6095 113.984 37.2635 106.276 56.0418C117.551 71.1072 101.893 95.7954 77.1776 81.2981C77.8259 97.979 74.2278 120 74.2278 120H35.0808C53.3928 100.481 56.5962 89.7115 60.5056 78.7821C44.5688 87.4858 30.5665 77.3536 25.1876 71.2614C25.1876 71.2614 20.0165 68.9246 13.9636 73.0674L10.0088 65.443C10.0088 65.443 16.3616 62.7411 23.7334 65.2684C23.7334 65.2684 18.5579 58.6577 8 59.6555V50.4715C8 50.4715 22.9399 50.4715 27.5342 62.9759ZM72.3797 33.0836L59.2496 34.8054L60.6666 49.1228L74.0418 46.6868L72.3797 33.0836Z" fill="#FFC683"/>
</g>
</svg>
