<svg width="100" height="93" viewBox="0 0 100 93" fill="none" xmlns="http://www.w3.org/2000/svg">
<mask id="mask0" mask-type="alpha" maskUnits="userSpaceOnUse" x="0" y="0" width="100" height="93">
<rect width="100" height="93" fill="#C4C4C4"/>
</mask>
<g mask="url(#mask0)">
<path d="M71.2011 129C71.2011 129 68.1426 123.713 65.9689 118.088C63.415 118.088 53.3054 118.088 53.3054 118.088C53.3054 118.088 53.2699 122.34 54.4986 129C54.2274 129 47.9813 129 47.9813 129C45.7409 101.935 51.1473 76.5557 53.1061 66.6174C47.839 66.4826 33.7007 66.9084 25.4269 74.6729C20.0642 79.7068 29.4897 87.3373 29.4897 87.3373L24.127 91.2347C19.7396 85.8758 20.0642 80.3561 20.0642 80.3561C17.6267 84.7393 17.139 91.2347 17.139 91.2347L10.1503 88.7996C12.4255 82.6291 16.489 79.2196 16.489 79.2196C10.8002 79.2196 5.59983 82.9534 5.59983 82.9534L3 77.108C7.06279 75.3222 17.3013 75.16 17.3013 75.16C27.3582 63.4167 46.8503 61.4272 54.1229 61.097C35.7106 53.7967 24.7777 37.6532 24.7777 37.6532C18.9266 35.218 11.614 29.0476 11.614 29.0476L15.8391 24.1773C19.0889 30.8334 23.6393 32.945 23.6393 32.945C21.5271 28.3982 21.5271 20.1184 21.5271 20.1184H28.5159C26.2406 25.1516 27.7021 31.9706 27.7021 31.9706C28.5159 28.0739 34.5285 21.5792 34.5285 21.5792L39.0797 26.126C39.0797 26.126 31.6033 29.6976 30.9534 35.7052C30.1011 43.5859 49.1122 52.6913 55.6214 55.5685C56.9399 50.5264 57.933 47.7196 57.933 47.7196L54.7365 41.0197L47.3676 46.0959L45.0924 40.0883L53.2387 37.8819L50.6619 32.4808L42.1665 31.6456L44.9301 24.1773L51.5349 29.3719L57.6943 26.1948L51.2688 17.6825L59.0706 14.5973L61.3917 24.2861L67.3703 21.2024L68.1715 12L76.1347 15.5717L71.0285 23.2244L74.0707 29.3052L82.3112 22.2278L86.2124 30.1848L75.3707 31.9018L78.7983 38.7504L88 38.6283L86.8624 46.4209L76.4015 42.519L72.5366 44.7876L79.223 53.2399L71.5843 57.1374L68.9 46.9222L63.9464 49.8304C53.8872 91.3539 78.9406 128.999 78.9406 128.999H71.2011V129ZM72.106 38.1152L67.0872 27.82L57.1533 32.7569L62.1721 43.6829L72.106 38.1152Z" fill="#FFCF8D"/>
</g>
</svg>
