<svg width="103" height="95" viewBox="0 0 103 95" fill="none" xmlns="http://www.w3.org/2000/svg">
<mask id="mask0" mask-type="alpha" maskUnits="userSpaceOnUse" x="0" y="0" width="103" height="95">
<rect width="103" height="95" fill="#C4C4C4"/>
</mask>
<g mask="url(#mask0)">
<path d="M20.4941 55.549L11 55.3286L14.1467 46.9745L22.3301 51.6874L28.3715 48.1894L20.5741 40.2428L28.4834 35.748L30.9519 46.6949L37.7553 42.7553L37.0307 33.3771L45.1007 34.0331L41.7789 44.9558L44.3585 48.7507L52.5952 41.382L57.0907 48.9212L46.7851 52.3214L50.5941 58.1502C53.3533 57.07 55.7876 56.7996 57.9409 57.1768C58.6153 52.5964 59.9002 40.2125 57.1874 24.4632C57.1874 24.4632 55.3172 18.1663 50.4281 18.8822L52.1545 13.873C52.1545 13.873 56.3249 15.1615 58.0505 18.739C58.0505 18.739 58.9137 14.3025 55.4618 8.86386L60.4947 5C60.4947 5 63.802 13.1572 61.9325 20.0267C61.9325 20.0267 65.2406 18.3088 66.103 13.014L69.8419 17.0211C69.8419 17.0211 67.8286 22.1734 62.3633 24.6064C62.3633 24.6064 66.6594 38.8816 63.4724 60.0105C64.0905 60.5832 64.6758 61.2225 65.2246 61.933C77.8441 58.2403 75.2067 44.6793 75.2067 44.6793C72.5121 44.7801 69.7163 47.4108 69.7163 47.4108L66.9205 42.8576C69.9195 40.8852 74.0717 40.6481 74.0717 40.6481C70.7637 38.665 67.1686 40.5375 67.1686 40.5375L65.7011 35.2185C69.7681 34.6618 73.0213 35.8252 73.0213 35.8252L75.2067 33.0946C77.3928 36.029 78.6731 39.4376 78.6731 39.4376C83.6877 56.8064 73.2535 63.9789 67.9085 66.4354C75.9001 83.4406 73.6333 117.502 73.6333 117.502L69.3846 117.879C69.3846 117.879 71.6593 123.561 70.9011 130H64.0769C64.7964 123.939 63.3187 118.636 63.3187 118.636L57.2527 119.015C56.111 125.075 54.2198 130 54.2198 130H47.3956C70.3648 69.9008 51.289 63.9009 48.2611 63.3964L41.648 67.1512L47.3362 74.3388L41.3199 77.0498L38.5264 68.8835L33.1525 71.8619L32.8488 80.5811L25.0064 78.2474L29.9061 71.1726L26.2456 65.0962L17.9297 72.202L14.2571 64.444L24.0458 61.4482L20.4941 55.549ZM33.0147 65.2227L43.898 59.3939L37.5384 49.6233L27.3028 55.4096L33.0147 65.2227Z" fill="#FFCF8E"/>
</g>
</svg>
