<svg width="130" height="128" viewBox="0 0 130 128" fill="none" xmlns="http://www.w3.org/2000/svg">
<path d="M28.667 109.057C28.667 109.057 42.3698 97.2501 50.7965 76.1389C28.6138 84.9189 17.7142 70.9483 17.7142 70.9483C8.36166 71.2685 0 65.2237 0 65.2237L3.3764 58.2256C9.54111 64.5024 13.8136 64.3119 13.8136 64.3119C9.73289 59.9852 5.95054 47.6498 5.95054 47.6498L14.2962 45.1039C14.2238 51.652 18.558 60.781 18.558 60.781C18.1936 56.117 22.9221 47.603 22.9221 47.603L29.9168 51.0403C29.9168 51.0403 21.8577 58.3086 24.5693 64.8577C26.681 69.9557 35.2206 75.6559 54.9571 62.8332C55.7007 59.598 56.2857 56.2096 56.6767 52.6754L50.6505 45.5891L42.1823 55.2638L36.8806 47.7019L47.4499 41.7485L41.9458 35.1377L29.8113 36.9792L31.0142 25.6013L42.0587 30.4993L49.5137 23.897L37.5444 14.3148L47.321 7.25925L53.9907 19.9309L61.2283 13.5222L59.0803 0.42395L71.4417 2.58146L67.0403 15.0446L73.4352 22.4373L82.4073 9.66677L90.6635 19.367L76.167 25.5938L83.3705 33.9185L96.1485 30.494L97.3258 41.7485L81.3675 40.0144L76.7871 44.5412L89.1005 53.9467L79.8396 62.0757L72.4784 48.7998L66.4629 54.5329C67.165 56.6702 68.1132 59.8671 68.9581 63.747C83.3748 76.6495 96.5853 74.3154 101.543 70.7291C109.062 65.2918 98.4893 54.2393 98.4893 54.2393L105.826 50.2222C110.457 57.6266 109.167 64.479 109.167 64.479C112.92 59.3863 114.573 51.3403 114.573 51.3403L122.929 55.5053C119.091 62.8587 113.459 66.4737 113.459 66.4737C120.578 67.3833 127.686 63.5449 127.686 63.5449L130 71.2728C124.629 72.8558 111.6 72.5398 111.6 72.5398C104.762 78.7209 92.7167 88.8254 70.7289 75.7686C71.2126 82.3135 70.9026 89.4733 68.8878 96.2916C68.8878 96.2916 85.6687 97.3554 95.2578 100.547C95.2578 100.547 98.9868 114.643 99.2532 121.824C99.2532 121.824 94.9914 125.016 88.5987 125.016C88.5987 125.016 88.865 113.845 87.5332 107.994C87.5332 107.994 81.2577 106.247 78.4524 105.827C78.4524 105.827 66.6674 142.25 31.0643 120.494C31.0643 120.494 14.8162 107.462 9.48891 98.4193L18.0125 92.5681C18.0125 92.5681 23.0734 104.003 28.667 109.057ZM73.8198 35.4005L63.177 22.8384L51.0852 33.227L61.9528 46.6668L73.8198 35.4005Z" fill="#EBAC56"/>
</svg>
