<?xml version="1.0" encoding="utf-8"?>
<!-- Generator: Adobe Illustrator 14.0.0, SVG Export Plug-In . SVG Version: 6.00 Build 43363)  -->
<!DOCTYPE svg PUBLIC "-//W3C//DTD SVG 1.1//EN" "http://www.w3.org/Graphics/SVG/1.1/DTD/svg11.dtd">
<svg version="1.1" id="Layer_1" xmlns="http://www.w3.org/2000/svg" xmlns:xlink="http://www.w3.org/1999/xlink" x="0px" y="0px"
	 width="906.999px" height="24.719px" viewBox="0 1.56 906.999 24.719" enable-background="new 0 1.56 906.999 24.719"
	 xml:space="preserve">
<path fill="#FFC683" d="M0,10.617l5.65-6.152l-2.664-2.04L0,5.835V10.617z M902.702,15.57l4.297,2.19v-6.317l-0.394-0.396
	l0.394-0.43V5.835l-1.968,2.16l-5.452-5.649l-2.386,2.806l5.369,4.985l-7.161,8.754l-9.192-7.848l5.981-6.579l-2.637-2.12
	l-4.293,5.761l-6.44-5.761l-1.981,2.12l5.546,4.374l-7.757,9.302l-8.462-7.876l4.83-5.8l-2.132-2.12l-4.688,5.654l-5.269-5.024
	l-2.257,1.888l6.141,5.811l-7.291,8.449l-8.949-7.311l5.979-7.107l-2.487-1.966l-5.077,6.53l-7.135-6.53l-1.903,1.727l5.971,5.551
	l-7.149,8.578l-9.07-7.15l5.819-6.979l-1.914-1.885l-5.753,5.376l-5.525-6.32l-2.454,2.829l6.154,5.249l-7.068,9.177l-9.191-7.849
	l5.983-6.578l-2.372-2.277l-4.558,5.918l-6.094-5.21l-1.868,1.81l5.085,4.133l-7.762,9.302l-8.458-7.875l4.444-5.481l-2.1-1.967
	l-4.334,5.181l-5.937-5.653l-1.887,2.12l6.44,6.208l-7.292,8.449l-8.949-7.311l6.352-7.347l-1.895-1.962l-6.052,6.766l-7.64-6.451
	l-1.392,1.647l5.973,5.551l-7.149,8.578l-9.073-7.151l5.822-6.978l-2.27-2.277l-5.922,5.77l-5.356-5.847l-2.616,2.355l6.154,5.249
	l-7.069,9.177l-9.199-7.849l5.981-6.578l-2.274-2.12l-4.656,5.76l-5.921-5.446l-1.942,2.281l4.988,3.897l-7.757,9.302l-8.462-7.875
	l4.838-5.801l-2.168-2.276l-4.661,5.811l-5.139-5.103l-2.174,2.124l5.937,5.653l-7.299,8.448l-8.941-7.31l6.346-7.347l-2.502-2.199
	l-5.44,7.001l-7.47-6.373l-1.558,1.569l5.965,5.551l-7.149,8.578l-9.069-7.15l5.818-6.979l-2.172-1.883l-5.495,5.375l-4.852-5.611
	l-3.126,2.119l6.155,5.25l-7.068,9.175l-9.196-7.847l5.982-6.579l-2.857-2.198l-4.074,5.839l-6.115-5.289l-2.308,1.648l5.548,4.373
	l-7.758,9.303l-8.462-7.877l4.836-5.8l-2.048-1.962l-4.777,5.496l-5.878-5.417l-1.942,1.883l6.441,6.208l-7.297,8.449l-8.947-7.31
	l6.349-7.348l-2.852-2.041l-5.089,6.843l-7.433-6.292l-1.598,1.49l5.966,5.552l-7.15,8.577l-9.07-7.151l5.819-6.979l-2.603-2.041
	l-5.566,5.534l-4.543-6.005l-3.434,2.513l6.152,5.249l-7.066,9.176l-9.196-7.847l5.982-6.579l-2.708-2.119l-4.224,5.761
	l-6.042-5.209l-2.38,1.569l5.55,4.374l-7.759,9.302l-8.462-7.876l4.834-5.801l-2.129-2.197l-4.696,5.731l-5.26-4.788l-2.099,1.731
	l5.979,5.731l-7.296,8.449l-8.945-7.31l5.983-7.028l-2.411-2.282l-5.164,6.766l-7.204-6.372l-1.827,1.569l5.967,5.552l-7.149,8.577
	l-9.072-7.15l5.82-6.979l-2.061-2.04l-5.608,5.532l-5.203-5.848l-2.774,2.355l6.156,5.25l-7.068,9.176l-9.195-7.848l5.983-6.578
	l-2.513-1.884l-4.42,5.524l-6.548-5.603l-1.874,1.962l5.55,4.374l-7.758,9.303l-8.464-7.876l4.836-5.801l-2.324-2.041l-4.501,5.574
	l-5.533-4.945l-2.286,1.411l6.44,6.209l-7.296,8.448l-8.946-7.31l6.349-7.348l-2.506-2.277l-5.437,7.08l-7.318-6.136l-1.714,1.333
	l5.967,5.552l-7.148,8.577l-9.071-7.15l5.819-6.979L425.5,2.417l-5.54,5.533l-4.883-5.534l-3.096,2.04l6.154,5.25l-7.067,9.175
	l-9.196-7.847l5.981-6.579l-2.811-1.804l-4.12,5.445l-6.457-5.681l-1.967,2.04l5.549,4.375l-7.758,9.302l-8.461-7.875l4.835-5.801
	l-2.153-2.118l-4.673,5.651l-5.907-5.496l-1.913,1.961l6.441,6.209l-7.297,8.448l-8.946-7.311l6.349-7.348l-2.258-2.433
	l-5.683,7.236l-7.308-6.056l-1.724,1.253l5.965,5.552l-7.147,8.575l-9.072-7.149l5.819-6.979l-2.088-2.119l-5.578,5.611
	l-5.154-5.926l-2.826,2.433l6.154,5.25l-7.066,9.176l-9.196-7.847l5.982-6.579l-2.692-1.884l-4.237,5.523l-6.109-5.837l-2.314,2.197
	l5.55,4.374l-7.758,9.303l-8.463-7.876l4.834-5.8l-2.427-2.119l-4.397,5.652L293.5,2.65l-1.95,1.804l6.443,6.209l-7.299,8.447
	l-8.945-7.309l6.349-7.348l-2.453-2.198l-5.487,7l-7.503-6.451l-1.529,1.648l5.967,5.552l-7.149,8.578l-9.07-7.151l5.819-6.979
	l-1.97-1.725l-5.055,5.217l-5.37-6.241l-2.608,2.749l6.156,5.249l-7.067,9.176l-9.197-7.848l5.985-6.578l-2.679-2.198l-4.256,5.837
	l-6.633-5.602l-1.787,1.961l5.548,4.373l-7.758,9.303l-8.463-7.875l4.836-5.801l-2.332-2.119l-4.492,5.653l-6.008-5.417
	l-1.814,1.883l6.443,6.21l-7.297,8.448l-8.945-7.312l6.349-7.349l-2.592-2.119l-5.349,6.923l-7.409-6.292l-1.622,1.49l5.967,5.552
	l-7.149,8.577l-9.072-7.151l5.819-6.979l-2.342-1.726l-5.324,5.219l-5.099-5.847l-2.879,2.355l6.154,5.249l-7.068,9.176
	l-9.196-7.848l5.982-6.578l-2.561-1.961l-4.37,5.603l-6.596-5.523l-1.826,1.883l5.547,4.373l-7.758,9.303l-8.46-7.875l4.834-5.801
	l-2.293-1.883l-4.531,5.417l-5.582-5.26l-2.239,1.725l6.441,6.21l-7.298,8.448l-8.943-7.31l6.35-7.348l-3.098-1.804l-4.843,6.607
	l-7.447-6.45l-1.583,1.647l5.965,5.552l-7.149,8.577l-9.07-7.15l5.819-6.979l-2.303-2.04L98.22,7.943l-5.629-6.24l-2.35,2.748
	L96.397,9.7l-7.069,9.176l-9.195-7.848l5.982-6.578L83.49,2.332l-4.307,5.759l-6.583-5.837L70.76,4.45l5.549,4.374l-7.758,9.303
	l-8.462-7.876l4.834-5.801L62.722,2.41l-4.623,5.575l-5.333-6.204l-2.486,2.67l6.441,6.21l-7.296,8.448l-8.946-7.31l6.348-7.348
	l-2.694-1.882l-5.246,6.686l-6.888-5.899l-1.479,1.73l5.301,4.917l-7.15,8.577l-9.07-7.15l5.819-6.979l-2.445-2.119l-5.222,5.611
	l-5.2-6.383L9.775,4.465l6.155,5.25l-7.067,9.177L0,11.444v6.316l9.775,4.77l7.603-9.54l12.607,9.54l7.837-9.199l12.456,10.222
	l8.67-10.563l10.563,11.585l10.62-9.2l10.847,9.2l7.24-10.903l12.623,9.881l8.078-9.54l12.608,10.563l8.519-10.563l10.223,8.518
	l8.519-9.199l12.438,11.244l10.053-9.2l9.541,7.497l7.154-8.859l13.754,9.54l8.396-9.805l10.563,9.805l8.86-10.903l11.586,11.245
	l7.495-9.882l11.585,10.222l8.859-10.222l12.949,10.563l8.177-10.827l10.564,9.465l7.497-8.686l13.252,10.73l7.533-11.586
	l12.266,9.881l8.179-9.881l10.881,12.607l9.904-10.277l12.225,7.551l6.858-8.085l12.621,9.79l7.979-10.365l11.771,7.298l7.496-7.837
	l13.778,9.881l8.712-10.903l10.222,9.199l8.521-8.782l11.926,10.486l10.563-9.2l9.541,7.838l7.156-8.288l13.97,9.65l8.859-9.65
	l9.883,7.946l8.518-7.946l12.268,7.606l7.497-7.606l12.947,7.946l8.52-7.155l11.925,7.155l8.861-8.369l10.222,8.029
	c0,0,7.81-8.392,8.518-8.405l12.268,9.768l8.479-9.389l10.478,9.73l9.666-10.109l12.268,10.79l8.519-11.181l10.563,11.863
	l8.859-12.229l11.585,11.547l8.526-11.926l11.443,12.02l9.334-10.921l11.417,10.415l8.676-10.415l10.916,10.921l8.86-10.921
	l11.449,10.682l8.893-10.682l12.098,10.415l8.45-11.514l11.123,11.245c0,0,9.098-10.139,9.662-10.146l9.153,10.146l9.588-10.146
	l11.927,10.146L902.702,15.57z M4.011,10.731l4.034,3.853l3.865-4.425L7.594,6.537L4.011,10.731z M23.86,10.617l4.372,3.908
	l3.583-4.366l-4.146-3.623L23.86,10.617z M44.752,11.063l4.303,3.986l3.659-4.302L48.63,7.05L44.752,11.063z M64.096,10.124
	l4.146,3.623l3.808-4.081l-4.373-3.909L64.096,10.124z M84.476,10.731l4.034,3.853l3.865-4.425L88.06,6.537L84.476,10.731z
	 M104.846,10.617l4.373,3.91l3.582-4.366l-4.146-3.624L104.846,10.617z M125.738,11.063l4.302,3.986l3.659-4.302l-4.083-3.697
	L125.738,11.063z M145.081,10.124l4.146,3.623l3.808-4.081l-4.373-3.909L145.081,10.124z M165.459,10.731l4.035,3.853l3.866-4.425
	l-4.316-3.623L165.459,10.731z M185.31,10.617l4.373,3.91l3.585-4.366l-4.148-3.624L185.31,10.617z M206.203,11.063l4.305,3.986
	l3.658-4.302l-4.085-3.697L206.203,11.063z M225.546,10.124l4.147,3.623l3.807-4.081l-4.372-3.909L225.546,10.124z M245.926,10.731
	l4.035,3.853l3.865-4.425l-4.315-3.623L245.926,10.731z M265.134,10.617l4.371,3.91l3.585-4.366l-4.148-3.624L265.134,10.617z
	 M286.025,11.063l4.303,3.986l3.66-4.302l-4.085-3.697L286.025,11.063z M305.366,10.124l4.149,3.623l3.807-4.081l-4.371-3.909
	L305.366,10.124z M325.748,10.731l4.035,3.853l3.864-4.425l-4.316-3.623L325.748,10.731z M345.599,10.617l4.372,3.91l3.584-4.366
	l-4.147-3.624L345.599,10.617z M366.49,11.063l4.305,3.986l3.657-4.302L370.37,7.05L366.49,11.063z M385.834,10.124l4.146,3.623
	l3.809-4.081l-4.373-3.909L385.834,10.124z M406.215,10.731l4.035,3.853l3.863-4.425l-4.315-3.623L406.215,10.731z M426.584,10.617
	l4.374,3.91l3.582-4.366l-4.146-3.625L426.584,10.617z M447.476,11.063l4.303,3.986l3.659-4.302l-4.084-3.697L447.476,11.063z
	 M466.818,10.124l4.149,3.623l3.808-4.081l-4.372-3.909L466.818,10.124z M487.2,10.731l4.035,3.853l3.865-4.425l-4.317-3.623
	L487.2,10.731z M507.05,10.617l4.373,3.91l3.583-4.366l-4.147-3.625L507.05,10.617z M527.94,11.063l4.304,3.986l3.66-4.302
	L531.82,7.05L527.94,11.063z M547.286,10.124l4.146,3.623l3.809-4.081l-4.375-3.909L547.286,10.124z M567.666,10.731l4.032,3.853
	l3.866-4.425l-4.316-3.623L567.666,10.731z M588.017,10.617l4.373,3.91l3.583-4.366l-4.147-3.625L588.017,10.617z M608.909,11.063
	l4.304,3.986l3.657-4.302l-4.083-3.697L608.909,11.063z M628.252,10.124l4.147,3.623l3.808-4.081l-4.372-3.909L628.252,10.124z
	 M648.635,10.731l4.032,3.853l3.865-4.425l-4.315-3.623L648.635,10.731z M668.483,10.617l4.373,3.91l3.583-4.366l-4.146-3.625
	L668.483,10.617z M689.377,11.063l4.3,3.986l3.66-4.302l-4.082-3.697L689.377,11.063z M708.72,10.124l4.148,3.623l3.803-4.081
	l-4.368-3.909L708.72,10.124z M729.102,10.731l4.034,3.853L737,10.159l-4.32-3.623L729.102,10.731z M749.472,10.617l4.37,3.91
	l3.583-4.366l-4.149-3.625L749.472,10.617z M770.359,11.063l4.307,3.984l3.653-4.3l-4.083-3.697L770.359,11.063z M789.7,10.124
	l4.15,3.623l3.81-4.081l-4.375-3.909L789.7,10.124z M810.085,10.731l4.033,3.853l3.864-4.425l-4.314-3.623L810.085,10.731z
	 M829.937,10.617l4.368,3.91l3.585-4.366l-4.144-3.625L829.937,10.617z M850.824,11.063l4.307,3.984l3.652-4.3l-4.081-3.697
	L850.824,11.063z M870.173,10.124l4.144,3.623l3.808-4.081l-4.374-3.909L870.173,10.124z M890.547,10.731l4.034,3.853l3.866-4.425
	l-4.314-3.623L890.547,10.731z"/>
</svg>
