<svg width="1320" height="37" viewBox="0 0 1320 37" fill="none" xmlns="http://www.w3.org/2000/svg">
<path d="M-1.09278e-06 23.7721L14.3441 30.7721L25.5 16.7721L44 30.7721L55.5 17.2721L73.7778 32.2721L86.5 16.7721L102 33.7721L117.584 20.2721L133.5 33.7721L144.125 17.7721L162.646 32.2721L174.5 18.2721L193 33.7721L205.5 18.2721L220.5 30.7721L233 17.2721L251.25 33.7721L266 20.2721L280 31.2721L290.5 18.2721L310.683 32.2721L323 17.8838L338.5 32.2721L351.5 16.2721L368.5 32.7721L379.5 18.2721L396.5 33.2721L409.5 18.2721L428.5 33.7721L440.5 17.8838L456 31.772L467 19.0259L486.447 34.772L497.5 17.772L515.5 32.272L527.5 17.772L543.463 36.272L558 21.1916L575.936 32.272L586 20.4084L604.521 34.772L616.229 19.5628L633.5 30.272L644.5 18.772L664.717 33.272L677.5 17.272L692.5 30.772L705 17.8838L722.5 33.272L738 19.772L752 31.272L762.5 19.1093L783 33.272L796 19.1093L810.5 30.772L823 19.1093L841 30.272L852 19.1093L871 30.772L883.5 20.272L901 30.772L914 18.4889L929 30.272C929 30.272 940.458 17.9591 941.5 17.9382L959.5 32.272L971.942 18.4946L987.317 32.772L1001.5 17.9382L1019.5 33.772L1032 17.3641L1047.5 34.772L1060.5 16.8276L1077.5 33.772L1090.01 16.272L1106.8 33.9089L1120.5 17.8838L1137.25 33.1654L1149.98 17.8838L1166 33.9089L1179 17.8838L1195.8 33.5572L1208.85 17.8838L1226.6 33.1654L1239 16.272L1255.32 32.772C1255.32 32.772 1268.67 17.8956 1269.5 17.8838L1282.93 32.772L1297 17.8837L1314.5 32.772L1320 24.3319L1320 17.272L1313.87 25.4315L1300.38 13.9169L1309.16 4.26401L1305.29 1.15332L1298.99 9.60574L1289.54 1.15332L1286.63 4.26401L1294.77 10.6818L1283.39 24.3319L1270.97 12.7748L1278.06 4.26326L1274.93 1.15257L1268.05 9.44877L1260.32 2.07622L1257.01 4.84718L1266.02 13.3747L1255.32 25.772L1242.19 15.0453L1250.96 4.61665L1247.31 1.73042L1239.86 11.312L1229.39 1.73042L1226.6 4.26402L1235.36 12.4101L1224.87 24.9954L1211.56 14.5046L1220.1 4.26478L1217.29 1.49988L1208.85 9.38886L1200.74 0.114409L1197.14 4.26402L1206.17 11.9672L1195.8 25.4315L1182.31 13.9169L1191.09 4.26402L1187.61 0.922791L1180.92 9.60651L1171.98 1.96172L1169.24 4.61742L1176.7 10.6818L1165.31 24.3319L1152.9 12.7748L1159.42 4.73192L1156.34 1.84569L1149.98 9.44878L1141.27 1.15333L1138.5 4.26327L1147.95 13.3747L1137.25 25.772L1124.12 15.0453L1133.44 4.26327L1130.66 1.38463L1121.78 11.312L1110.57 1.84646L1108.53 4.26403L1117.29 12.4101L1106.8 24.9955L1093.49 14.5031L1102.03 4.26328L1098.7 0.922043L1090.01 9.38812L1082.15 0.807535L1078.31 4.26403L1087.34 11.9672L1076.97 25.4315L1063.47 13.9169L1072.25 4.26403L1068.91 1.15409L1062.08 9.60576L1053.39 1.61593L1050.54 4.96398L1057.86 10.6818L1046.48 24.3319L1034.06 12.7749L1041.16 4.26328L1037.98 0.922804L1031.14 9.44879L1023.6 1.96173L1020.41 5.07925L1029.12 13.3747L1018.41 25.772L1005.29 15.0461L1014.6 4.26404L1010.93 1.03883L1002.95 11.312L991.986 1.96249L989.699 4.26404L998.453 12.4101L987.961 24.9955L974.653 14.5039L983.192 4.26404L980.003 1.50067L971.942 9.38813L964.823 1.1541L960.234 4.26404L969.266 11.9672L958.896 25.4315L945.402 13.9169L954.18 4.26404L949.986 1.03884L944.01 9.60577L935.034 1.84723L931.65 4.26405L939.792 10.6819L928.409 24.3319L915.992 12.7741L923.087 4.26254L920.083 1.38389L913.073 9.44804L904.446 1.49991L901.597 4.26329L911.049 13.3747L900.342 25.772L887.215 15.0461L896.531 4.26405L892.347 1.26938L884.879 11.312L873.972 2.07777L871.628 4.26405L880.381 12.4101L869.89 24.9955L856.58 14.5031L865.12 4.2633L861.302 1.26862L853.133 9.38814L846.465 0.576263L841.426 4.2633L850.458 11.9665L840.087 25.4308L826.593 13.9162L835.372 4.2633L831.4 1.15336L825.201 9.60578L816.335 1.9625L812.842 4.26406L820.984 10.6819L809.601 24.3319L797.182 12.7749L804.277 4.2633L801.153 1.03885L794.263 9.44881L786.545 2.42358L783.463 4.964L792.24 13.3747L781.533 25.772L768.408 15.0461L777.186 4.73348L773.648 1.38541L766.071 11.312L755.5 1.96251L752.819 4.26406L761.573 12.4101L751.082 24.9955L737.773 14.5039L746.312 4.26406L743.288 1.27015L735.061 9.38891L727.424 0.808329L723.354 4.26406L732.386 11.9673L722.016 25.4315L708.522 13.9169L717.3 4.26406L713.614 1.50069L707.129 9.60579L697.521 1.38542L694.771 4.26407L702.913 10.6819L691.53 24.3319L679.112 12.7749L686.206 4.26331L682.797 1.2694L676.193 9.44882L668.074 2.19305L664.717 4.26331L674.168 13.3747L663.462 25.772L650.335 15.0461L659.651 4.26407L655.975 0.9236L647.999 11.3121L637.257 2.30908L634.747 4.26407L643.501 12.4101L633.011 24.9955L619.701 14.5039L628.24 4.26407L624.359 1.27016L616.229 9.38816L609.066 1.26941L604.521 4.26332L613.553 11.9665L603.182 25.4308L589.688 13.9162L598.466 4.26332L594.343 1.61597L588.296 9.6058L578.821 1.27016L575.936 4.26408L584.078 10.6819L572.695 24.332L560.278 12.7757L567.372 4.26408L564.211 1.15414L557.358 9.44883L548.689 1.38468L545.883 4.26332L555.334 13.3747L544.629 25.772L531.5 15.0446L540.816 4.26257L537.502 0.691555L529.164 11.3113L518.441 2.4236L515.913 4.26333L524.666 12.4094L514.175 24.9947L500.866 14.5032L509.405 4.26333L506.343 1.15339L498.154 9.38741L490.592 0.691559L486.447 4.26257L495.479 11.9658L485.108 25.43L471.615 13.9154L480.393 4.26257L476.44 1.49995L470.222 9.60505L461.26 1.03888L457.864 4.26333L466.006 10.6811L454.623 24.3312L442.205 12.7749L449.299 4.26333L445.738 1.15415L439.286 9.44884L430.673 1.61598L427.811 4.26333L437.263 13.3748L426.557 25.7721L413.429 15.0461L422.744 4.26409L419.144 1.03965L411.092 11.3121L400.083 1.84728L397.841 4.26409L406.594 12.4102L396.103 24.9955L382.794 14.5039L391.333 4.26409L388.442 1.73277L381.027 9.38894L373.147 0.231257L369.32 4.26409L378.352 11.9673L367.982 25.4316L354.488 13.917L363.266 4.2641L359.338 1.03965L353.095 9.60582L343.36 1.38545L340.737 4.26334L348.879 10.6811L337.496 24.3312L325.078 12.7749L332.172 4.26334L328.75 1.15416L322.159 9.44885L313.343 1.50073L310.683 4.26334L320.135 13.3748L309.429 25.7721L296.303 15.0439L305.619 4.26183L301.816 1.15265L293.967 11.3106L283.097 2.07706L280.716 4.26259L289.469 12.4086L278.978 24.994L265.668 14.5024L274.208 4.26259L270.771 1.7305L262.957 9.38743L255.476 0.807607L251.25 4.26335L260.281 11.9665L249.911 25.4308L236.417 13.9162L245.195 4.26335L241.437 1.38546L235.024 9.60583L225.345 1.50073L222.665 4.26335L230.807 10.6812L219.424 24.3312L207.007 12.7749L214.101 4.26335L210.736 1.50073L204.088 9.44886L195.898 1.73203L192.612 4.26335L202.064 13.3748L191.357 25.7721L178.232 15.0462L187.548 4.26411L183.003 1.61676L175.897 11.3121L164.97 1.84805L162.646 4.26411L171.399 12.4102L160.908 24.9955L147.598 14.5039L156.138 4.26411L152.758 1.27096L144.125 9.38896L135.865 0.232041L132.417 4.26412L141.449 11.9673L131.077 25.4316L117.584 13.917L126.362 4.26412L122.511 1.15494L116.191 9.60584L106.532 1.03968L103.831 4.26336L111.973 10.6812L100.59 24.3312L88.1728 12.7749L95.2668 4.26336L92.0359 1.27021L85.2529 9.44887L77.4271 0.346556L73.7778 4.26337L83.2295 13.3748L72.5237 25.7721L59.3979 15.0469L68.7131 4.26488L64.7588 1.50226L57.0612 11.3129L46.9542 2.65645L44.7848 5.19612L52.5632 12.4102L42.0724 24.9955L28.7631 14.504L37.3024 4.26412L33.7145 1.15495L26.0514 9.38821L18.4199 3.16152e-06L14.3441 4.26337L23.3759 11.9666L13.0051 25.4308L-1.90303e-06 14.504L-1.09278e-06 23.7721Z" fill="#FFC683"/>
<path d="M-2.00917e-06 13.2899L8.28979 4.26337L4.38098 1.27021L-2.62268e-06 6.27209L-2.00917e-06 13.2899Z" fill="#FFC683"/>
<path d="M1320 1.15332L1316.5 5.27197L1320 8.77197L1320 1.15332Z" fill="#FFC683"/>
<path d="M5.88476 13.4567L11.8041 19.1093L17.4753 12.6187L11.1429 7.30127L5.88476 13.4567Z" fill="#FFC683"/>
<path d="M35.0107 13.2899L41.427 19.0259L46.6844 12.6195L40.5994 7.30202L35.0107 13.2899Z" fill="#FFC683"/>
<path d="M65.6666 13.9428L71.9817 19.7918L77.3491 13.4802L71.358 8.05505L65.6666 13.9428Z" fill="#FFC683"/>
<path d="M94.0503 12.5664L100.135 17.8839L105.723 11.896L99.3068 6.15997L94.0503 12.5664Z" fill="#FFC683"/>
<path d="M123.956 13.4567L129.876 19.1093L135.547 12.6187L129.214 7.30126L123.956 13.4567Z" fill="#FFC683"/>
<path d="M153.845 13.2898L160.262 19.0259L165.518 12.6195L159.434 7.30201L153.845 13.2898Z" fill="#FFC683"/>
<path d="M184.501 13.9428L190.816 19.7918L196.184 13.4802L190.192 8.05504L184.501 13.9428Z" fill="#FFC683"/>
<path d="M212.884 12.5664L218.969 17.8838L224.557 11.896L218.141 6.15996L212.884 12.5664Z" fill="#FFC683"/>
<path d="M242.79 13.4567L248.71 19.1093L254.381 12.6187L248.048 7.30124L242.79 13.4567Z" fill="#FFC683"/>
<path d="M271.917 13.2898L278.333 19.0259L283.59 12.6195L277.506 7.302L271.917 13.2898Z" fill="#FFC683"/>
<path d="M302.573 13.9428L308.888 19.7918L314.256 13.4802L308.263 8.05503L302.573 13.9428Z" fill="#FFC683"/>
<path d="M330.956 12.5664L337.041 17.8838L342.629 11.896L336.212 6.15994L330.956 12.5664Z" fill="#FFC683"/>
<path d="M360.862 13.4567L366.781 19.1093L372.452 12.6187L366.119 7.30123L360.862 13.4567Z" fill="#FFC683"/>
<path d="M389.044 13.2898L395.46 19.0259L400.718 12.6195L394.633 7.30199L389.044 13.2898Z" fill="#FFC683"/>
<path d="M419.7 13.9427L426.015 19.7918L431.383 13.4802L425.391 8.05502L419.7 13.9427Z" fill="#FFC683"/>
<path d="M448.083 12.5664L454.169 17.8838L459.756 11.896L453.34 6.15993L448.083 12.5664Z" fill="#FFC683"/>
<path d="M477.989 13.4567L483.908 19.1093L489.579 12.6187L483.247 7.30122L477.989 13.4567Z" fill="#FFC683"/>
<path d="M507.116 13.2898L513.532 19.0259L518.789 12.6194L512.704 7.30198L507.116 13.2898Z" fill="#FFC683"/>
<path d="M537.771 13.9427L544.087 19.7918L549.454 13.4802L543.463 8.05501L537.771 13.9427Z" fill="#FFC683"/>
<path d="M566.155 12.5664L572.24 17.8838L577.828 11.896L571.412 6.15992L566.155 12.5664Z" fill="#FFC683"/>
<path d="M596.061 13.4566L601.98 19.1093L607.651 12.6187L601.319 7.30121L596.061 13.4566Z" fill="#FFC683"/>
<path d="M625.95 13.2898L632.367 19.0259L637.623 12.6194L631.539 7.30197L625.95 13.2898Z" fill="#FFC683"/>
<path d="M656.605 13.9427L662.921 19.7918L668.288 13.4801L662.296 8.055L656.605 13.9427Z" fill="#FFC683"/>
<path d="M684.989 12.5663L691.074 17.8838L696.662 11.896L690.246 6.15991L684.989 12.5663Z" fill="#FFC683"/>
<path d="M714.895 13.4566L720.815 19.1093L726.486 12.6187L720.153 7.3012L714.895 13.4566Z" fill="#FFC683"/>
<path d="M744.022 13.2898L750.438 19.0259L755.695 12.6194L749.611 7.30196L744.022 13.2898Z" fill="#FFC683"/>
<path d="M774.677 13.9427L780.992 19.7918L786.36 13.4801L780.368 8.05499L774.677 13.9427Z" fill="#FFC683"/>
<path d="M803.061 12.5663L809.146 17.8838L814.734 11.896L808.317 6.1599L803.061 12.5663Z" fill="#FFC683"/>
<path d="M832.967 13.4566L838.886 19.1093L844.557 12.6187L838.224 7.30119L832.967 13.4566Z" fill="#FFC683"/>
<path d="M862.83 13.2898L869.246 19.0258L874.503 12.6194L868.418 7.30195L862.83 13.2898Z" fill="#FFC683"/>
<path d="M893.485 13.9427L899.801 19.7918L905.168 13.4801L899.176 8.05498L893.485 13.9427Z" fill="#FFC683"/>
<path d="M921.869 12.5663L927.954 17.8838L933.542 11.896L927.126 6.15989L921.869 12.5663Z" fill="#FFC683"/>
<path d="M951.775 13.4566L957.694 19.1093L963.365 12.6186L957.032 7.30118L951.775 13.4566Z" fill="#FFC683"/>
<path d="M980.901 13.2898L987.317 19.0258L992.574 12.6194L986.49 7.30194L980.901 13.2898Z" fill="#FFC683"/>
<path d="M1011.56 13.9427L1017.87 19.7918L1023.24 13.4801L1017.25 8.05497L1011.56 13.9427Z" fill="#FFC683"/>
<path d="M1039.94 12.5663L1046.03 17.8838L1051.61 11.8959L1045.2 6.15988L1039.94 12.5663Z" fill="#FFC683"/>
<path d="M1069.85 13.4566L1075.77 19.1092L1081.44 12.6186L1075.1 7.30117L1069.85 13.4566Z" fill="#FFC683"/>
<path d="M1099.74 13.2898L1106.15 19.0258L1111.41 12.6194L1105.32 7.30193L1099.74 13.2898Z" fill="#FFC683"/>
<path d="M1130.39 13.9427L1136.71 19.7917L1142.07 13.4801L1136.08 8.05496L1130.39 13.9427Z" fill="#FFC683"/>
<path d="M1158.77 12.5663L1164.86 17.8838L1170.45 11.8959L1164.03 6.15987L1158.77 12.5663Z" fill="#FFC683"/>
<path d="M1188.68 13.4566L1194.6 19.1092L1200.27 12.6186L1193.94 7.30116L1188.68 13.4566Z" fill="#FFC683"/>
<path d="M1217.81 13.2898L1224.22 19.0258L1229.48 12.6194L1223.4 7.30192L1217.81 13.2898Z" fill="#FFC683"/>
<path d="M1248.46 13.9427L1254.78 19.7917L1260.14 13.4801L1254.15 8.05495L1248.46 13.9427Z" fill="#FFC683"/>
<path d="M1276.85 12.5663L1282.93 17.8838L1288.52 11.8959L1282.1 6.15986L1276.85 12.5663Z" fill="#FFC683"/>
<path d="M1306.75 13.4566L1312.67 19.1092L1318.34 12.6186L1312.01 7.30115L1306.75 13.4566Z" fill="#FFC683"/>
</svg>
