<?xml version="1.0" encoding="utf-8"?>
<!-- Generator: Adobe Illustrator 14.0.0, SVG Export Plug-In . SVG Version: 6.00 Build 43363)  -->
<!DOCTYPE svg PUBLIC "-//W3C//DTD SVG 1.1//EN" "http://www.w3.org/Graphics/SVG/1.1/DTD/svg11.dtd">
<svg version="1.1" id="Layer_1" xmlns="http://www.w3.org/2000/svg" xmlns:xlink="http://www.w3.org/1999/xlink" x="0px" y="0px"
	 width="1330.889px" height="36.271px" viewBox="0 0 1330.889 36.271" enable-background="new 0 0 1330.889 36.271"
	 xml:space="preserve">
<path fill="#FFC683" d="M0,13.29l8.29-9.026L4.381,1.27L0,6.272V13.29z M1324.583,20.557l6.307,3.214v-9.269l-0.578-0.582
	l0.578-0.631V6.272l-2.889,3.17l-8-8.289l-3.5,4.119l7.879,7.314l-10.51,12.845l-13.488-11.516l8.779-9.652l-3.871-3.111
	l-6.299,8.453l-9.451-8.453l-2.908,3.111l8.139,6.417l-11.379,13.649l-12.42-11.557l7.09-8.512l-3.131-3.11l-6.879,8.296
	l-7.73-7.373l-3.311,2.771l9.01,8.526l-10.699,12.397l-13.131-10.727l8.771-10.429l-3.648-2.886l-7.451,9.582l-10.471-9.582
	l-2.789,2.534l8.76,8.146l-10.49,12.586l-13.309-10.492l8.539-10.239l-2.811-2.766l-8.439,7.89l-8.109-9.274l-3.602,4.15
	l9.031,7.702l-10.371,13.465l-13.488-11.516l8.779-9.652l-3.48-3.342l-6.689,8.685l-8.939-7.646l-2.74,2.656l7.461,6.064
	l-11.391,13.649l-12.41-11.557l6.521-8.043l-3.08-2.886l-6.359,7.603l-8.711-8.295l-2.77,3.11l9.449,9.11l-10.699,12.397
	l-13.131-10.727l9.318-10.781l-2.779-2.879l-8.879,9.928l-11.211-9.466l-2.039,2.418l8.76,8.146l-10.49,12.586l-13.311-10.493
	l8.541-10.239l-3.33-3.342l-8.689,8.467l-7.859-8.581l-3.84,3.457l9.029,7.702l-10.371,13.465l-13.5-11.516l8.781-9.652l-3.342-3.11
	l-6.83,8.452l-8.689-7.99l-2.85,3.348l7.32,5.719l-11.381,13.649l-12.42-11.557l7.1-8.512l-3.18-3.341l-6.84,8.526l-7.541-7.487
	l-3.189,3.117l8.711,8.295l-10.711,12.397l-13.119-10.727l9.311-10.781l-3.67-3.227l-7.98,10.273l-10.963-9.351l-2.287,2.302
	l8.754,8.146l-10.492,12.586l-13.309-10.492l8.539-10.24l-3.188-2.764l-8.063,7.888l-7.119-8.233l-4.588,3.109l9.031,7.703
	l-10.369,13.464l-13.494-11.515l8.777-9.653l-4.193-3.226l-5.977,8.567l-8.977-7.76l-3.385,2.417l8.143,6.418l-11.383,13.65
	l-12.418-11.558l7.096-8.512l-3.004-2.879l-7.01,8.064l-8.627-7.948l-2.85,2.763l9.451,9.111l-10.707,12.397l-13.127-10.727
	l9.316-10.782l-4.186-2.994l-7.467,10.042l-10.908-9.234l-2.344,2.187l8.754,8.146l-10.492,12.586l-13.311-10.493l8.541-10.24
	l-3.818-2.994l-8.168,8.119l-6.668-8.812l-5.039,3.687l9.031,7.703l-10.371,13.464l-13.494-11.515l8.779-9.653l-3.973-3.109
	l-6.199,8.453l-8.865-7.645l-3.492,2.302l8.143,6.418l-11.385,13.65l-12.418-11.557l7.096-8.513l-3.125-3.224l-6.891,8.41
	l-7.717-7.025l-3.082,2.541l8.775,8.411l-10.707,12.397l-13.125-10.727l8.777-10.313l-3.537-3.349l-7.576,9.928l-10.57-9.351
	l-2.682,2.302l8.754,8.146l-10.49,12.586l-13.311-10.492l8.539-10.24l-3.023-2.993l-8.229,8.118L727.425,0.8l-4.07,3.456
	l9.033,7.703l-10.371,13.464l-13.494-11.515l8.779-9.653l-3.688-2.764l-6.484,8.105l-9.607-8.222l-2.75,2.879l8.143,6.418
	l-11.383,13.65l-12.418-11.557l7.094-8.513L682.8,1.259l-6.605,8.18l-8.119-7.256l-3.356,2.069l9.452,9.111L663.464,25.76
	l-13.127-10.727l9.316-10.782l-3.678-3.341L648,11.3l-10.741-9.003l-2.511,1.955l8.754,8.146l-10.489,12.586l-13.31-10.492
	l8.539-10.24l-3.881-2.994l-8.132,8.118l-7.161-8.119l-4.546,2.994l9.031,7.703l-10.371,13.464l-13.494-11.515l8.778-9.653
	l-4.123-2.646l-6.047,7.99l-9.475-8.337l-2.887,2.994l8.143,6.418l-11.383,13.65l-12.416-11.556l7.094-8.513l-3.161-3.109
	l-6.853,8.294l-8.67-8.064l-2.807,2.878l9.451,9.111l-10.705,12.396L531.5,15.03l9.315-10.782l-3.313-3.57l-8.338,10.619
	L518.44,2.409l-2.528,1.84l8.754,8.146l-10.491,12.584l-13.31-10.491l8.539-10.24l-3.063-3.109l-8.188,8.233l-7.563-8.695
	l-4.146,3.57l9.031,7.703l-10.37,13.464L471.613,13.9l8.777-9.653l-3.952-2.763l-6.219,8.104l-8.962-8.565l-3.396,3.224l8.143,6.418
	l-11.383,13.65l-12.418-11.557l7.094-8.512l-3.562-3.108l-6.452,8.294l-8.613-7.833l-2.861,2.646l9.452,9.112l-10.706,12.396
	l-13.127-10.726l9.314-10.782l-3.6-3.225l-8.052,10.271l-11.009-9.465l-2.242,2.417l8.753,8.146l-10.491,12.586l-13.309-10.492
	l8.539-10.24l-2.891-2.531l-7.415,7.656l-7.88-9.158l-3.827,4.033l9.032,7.703l-10.37,13.464l-13.494-11.515l8.778-9.653
	l-3.928-3.225l-6.243,8.565l-9.735-8.221l-2.623,2.878l8.142,6.418l-11.383,13.65l-12.418-11.557l7.094-8.512l-3.422-3.109
	l-6.591,8.295l-8.816-7.948l-2.66,2.763l9.452,9.112L309.427,25.75l-13.126-10.728l9.316-10.782l-3.803-3.109l-7.849,10.158
	l-10.87-9.232l-2.381,2.186l8.753,8.146l-10.491,12.585l-13.31-10.492l8.54-10.24l-3.437-2.532l-7.814,7.657l-7.481-8.58
	l-4.226,3.456l9.031,7.703l-10.37,13.464l-13.494-11.515l8.778-9.653l-3.758-2.878l-6.413,8.221l-9.679-8.104l-2.68,2.763
	l8.142,6.418l-11.383,13.65l-12.417-11.557l7.094-8.512l-3.365-2.763l-6.648,7.948l-8.19-7.718l-3.286,2.531l9.452,9.112
	l-10.707,12.396L178.23,15.024l9.316-10.782l-4.545-2.646l-7.106,9.694l-10.927-9.464l-2.324,2.416l8.753,8.146l-10.491,12.586
	l-13.31-10.492l8.54-10.24l-3.38-2.993l-8.633,8.118l-8.26-9.157l-3.448,4.032l9.032,7.703l-10.372,13.464l-13.493-11.515
	l8.778-9.653l-3.851-3.109l-6.32,8.451l-9.659-8.565l-2.701,3.224l8.142,6.418l-11.383,13.65L88.171,12.753l7.094-8.512
	l-3.229-2.993l-6.783,8.18l-7.826-9.103l-3.649,3.917l9.452,9.112L72.523,25.75L59.397,15.025l9.315-10.782L64.758,1.48
	l-7.698,9.811L46.953,2.635l-2.169,2.539l7.778,7.215L42.071,24.974L28.762,14.482l8.539-10.24l-3.588-3.109L26.05,9.366L18.42,0
	l-4.076,4.264l9.032,7.703L13.005,25.431L0,14.504v9.269l14.344,7l11.156-14l18.5,14l11.5-13.5l18.278,15l12.722-15.5l15.5,17
	l15.584-13.5l15.916,13.5l10.625-16l18.521,14.5l11.854-14l18.5,15.5l12.5-15.5l15,12.5l12.5-13.5l18.25,16.5l14.75-13.5l14,11
	l10.5-13l20.183,14L323,17.884l15.5,14.389l13-16l17,16.5l11-14.5l17,15l13-15l19,15.5l12-15.889L456,31.772l11-12.746
	l19.447,15.746l11.053-17l18,14.5l12-14.5l15.964,18.5L558,21.192l17.937,11.08L586,20.409l18.521,14.363l11.707-15.209
	L633.5,30.272l11-11.5l20.217,14.5l12.783-16l15,13.5l12.5-12.889l17.5,15.389l15.5-13.5l14,11.5l10.5-12.162l20.5,14.162l13-14.162
	l14.5,11.662l12.5-11.662l18,11.162l11-11.162l19,11.662l12.5-10.5l17.5,10.5l13-12.283l15,11.783c0,0,11.457-12.313,12.5-12.333
	l18,14.333l12.441-13.777l15.375,14.277l14.184-14.833l18,15.833l12.5-16.407l15.5,17.407l13-17.944l17,16.944l12.51-17.5
	l16.791,17.636l13.699-16.024l16.75,15.282l12.73-15.282l16.02,16.024l13-16.024l16.801,15.674l13.049-15.674l17.75,15.282
	l12.4-16.894l16.32,16.5c0,0,13.35-14.876,14.18-14.888l13.43,14.888l14.07-14.888l17.5,14.888L1324.583,20.557z M5.885,13.457
	l5.919,5.653l5.671-6.491l-6.332-5.316L5.885,13.457z M35.011,13.29l6.416,5.735l5.258-6.406L40.6,7.302L35.011,13.29z
	 M65.667,13.943l6.315,5.849l5.367-6.312l-5.991-5.425L65.667,13.943z M94.051,12.566l6.084,5.316l5.588-5.987l-6.417-5.736
	L94.051,12.566z M123.956,13.457l5.92,5.653l5.671-6.491l-6.333-5.316L123.956,13.457z M153.846,13.29l6.417,5.736l5.256-6.406
	l-6.084-5.316L153.846,13.29z M184.501,13.943l6.314,5.849l5.368-6.312l-5.992-5.425L184.501,13.943z M212.884,12.566l6.085,5.316
	l5.588-5.987l-6.416-5.736L212.884,12.566z M242.79,13.457l5.92,5.653l5.671-6.491l-6.333-5.316L242.79,13.457z M271.917,13.29
	l6.416,5.736l5.257-6.406l-6.084-5.316L271.917,13.29z M302.574,13.943l6.315,5.849l5.368-6.312l-5.993-5.425L302.574,13.943z
	 M330.956,12.566l6.085,5.316l5.588-5.987l-6.417-5.736L330.956,12.566z M360.862,13.457l5.919,5.653l5.671-6.491l-6.333-5.316
	L360.862,13.457z M389.044,13.29l6.416,5.736l5.258-6.406l-6.085-5.316L389.044,13.29z M419.701,13.943l6.314,5.849l5.368-6.312
	l-5.992-5.425L419.701,13.943z M448.083,12.566l6.086,5.316l5.587-5.987l-6.416-5.736L448.083,12.566z M477.99,13.457l5.92,5.653
	l5.67-6.491l-6.332-5.316L477.99,13.457z M507.117,13.29l6.416,5.736l5.258-6.406l-6.086-5.316L507.117,13.29z M537.772,13.943
	l6.315,5.849l5.367-6.312l-5.991-5.425L537.772,13.943z M566.156,12.566l6.086,5.316l5.588-5.987l-6.416-5.736L566.156,12.566z
	 M596.061,13.457l5.92,5.653l5.671-6.491l-6.332-5.316L596.061,13.457z M625.951,13.29l6.418,5.736l5.256-6.406l-6.084-5.317
	L625.951,13.29z M656.606,13.943l6.315,5.849l5.367-6.312l-5.992-5.425L656.606,13.943z M684.989,12.566l6.086,5.316l5.588-5.987
	l-6.416-5.736L684.989,12.566z M714.896,13.457l5.92,5.653l5.672-6.491l-6.334-5.316L714.896,13.457z M744.022,13.29l6.416,5.736
	l5.258-6.406l-6.084-5.317L744.022,13.29z M774.677,13.943l6.314,5.849l5.369-6.312l-5.992-5.425L774.677,13.943z M803.062,12.566
	l6.086,5.316l5.588-5.987l-6.418-5.736L803.062,12.566z M832.968,13.457l5.918,5.653l5.672-6.491l-6.334-5.316L832.968,13.457z
	 M862.829,13.29l6.416,5.736l5.258-6.406l-6.086-5.317L862.829,13.29z M893.485,13.943l6.316,5.849l5.365-6.312l-5.99-5.425
	L893.485,13.943z M921.868,12.566l6.086,5.316l5.588-5.987l-6.416-5.736L921.868,12.566z M951.776,13.457l5.918,5.653l5.672-6.491
	l-6.334-5.316L951.776,13.457z M980.901,13.29l6.416,5.736l5.258-6.406l-6.084-5.317L980.901,13.29z M1011.56,13.943l6.311,5.849
	l5.371-6.312l-5.99-5.425L1011.56,13.943z M1039.94,12.566l6.09,5.316l5.58-5.987l-6.41-5.736L1039.94,12.566z M1069.851,13.457
	l5.92,5.653l5.67-6.491l-6.34-5.316L1069.851,13.457z M1099.741,13.29l6.41,5.736l5.26-6.406l-6.09-5.317L1099.741,13.29z
	 M1130.39,13.943l6.32,5.848l5.359-6.311l-5.99-5.425L1130.39,13.943z M1158.771,12.566l6.09,5.316l5.59-5.987l-6.42-5.736
	L1158.771,12.566z M1188.681,13.457l5.92,5.653l5.67-6.491l-6.33-5.316L1188.681,13.457z M1217.812,13.29l6.408,5.736l5.262-6.406
	l-6.08-5.317L1217.812,13.29z M1248.46,13.943l6.32,5.848l5.359-6.311l-5.99-5.425L1248.46,13.943z M1276.851,12.566l6.08,5.316
	l5.59-5.987l-6.42-5.736L1276.851,12.566z M1306.749,13.457l5.92,5.653l5.672-6.491l-6.33-5.316L1306.749,13.457z"/>
</svg>
