<?xml version="1.0" encoding="utf-8"?>
<!-- Generator: Adobe Illustrator 14.0.0, SVG Export Plug-In . SVG Version: 6.00 Build 43363)  -->
<!DOCTYPE svg PUBLIC "-//W3C//DTD SVG 1.1//EN" "http://www.w3.org/Graphics/SVG/1.1/DTD/svg11.dtd">
<svg version="1.1" id="Layer_1" xmlns="http://www.w3.org/2000/svg" xmlns:xlink="http://www.w3.org/1999/xlink" x="0px" y="0px"
	 width="1772.82px" height="58.681px" viewBox="0 0 1772.82 58.681" enable-background="new 0 0 1772.82 58.681"
	 xml:space="preserve" fill="#E0581E">
<path d="M0,37.364l8.519-10.992l5.214,3.947L2.022,43.047l18,15.184l13.834-17.755L21.809,30.319l5.437-5.622l10.181,12.38
	l10.222-10.857l4.786,4.101L41.043,43.823l17.754,13.835l13.994-16.597l-10.377-9.513l2.895-3.349l13.482,11.415l10.268-12.938
	l5.275,3.644L81.907,44.538l17.509,14.143l14.281-16.348l-12.608-12.015l4.868-5.165l10.439,12.003l9.048-10.785l4.31,3.947
	l-9.463,11.224l16.564,15.239l15.184-18l-10.861-8.463l3.604-4.251l12.884,11.296l8.432-11.145l5.137,4.101l-11.71,12.729l18,15.185
	l13.835-17.756L179.311,30.32l4.6-5.317l11.018,12.075l11.517-10.705l4.508,3.947l-11.391,13.503l17.754,13.835l13.994-16.597
	L219.633,30.32l3.102-3.187l14.575,12.48l9.479-12.785l6.063,3.491l-12.428,14.218l17.509,14.144l14.282-16.348l-12.608-12.015
	l4.384-3.339l10.924,10.177l8.868-10.481l4.489,3.644l-9.463,11.224l16.563,15.239l15.185-18l-10.861-8.463l3.575-3.644
	l12.911,10.688l8.555-10.841l5.013,3.796l-11.71,12.729l18,15.184l13.834-17.755l-12.048-10.157l5.638-4.558l9.979,11.314
	l10.423-10.098l4.585,3.34L357.06,43.821l17.754,13.835l13.994-16.597l-11.677-10.741l3.178-2.883l14.499,12.177l10.471-13.396
	l5.072,4.101l-12.428,14.218l17.51,14.146l14.282-16.348l-12.608-12.015l3.548-3.644l11.76,10.481l8.792-10.938l4.565,4.101
	l-9.463,11.224l16.563,15.239l15.185-18l-10.861-8.463l3.499-3.796l12.987,10.841l8.326-11.296l5.24,4.252l-11.71,12.729l18,15.185
	l13.834-17.756L495.324,30.32l5.105-5.318l10.511,12.076l9.891-10.097l3.857,3.339l-11.392,13.503l17.755,13.835l13.993-16.597
	L533.369,30.32l2.99-3.188l14.686,12.481l10.74-13.546l4.803,4.252l-12.426,14.218l17.512,14.144l14.281-16.348l-12.607-12.015
	l3.816-3.491l11.49,10.329l8.605-10.938l4.752,4.101l-9.464,11.224l16.564,15.239l15.184-18l-10.86-8.463l4.53-4.252l11.955,11.296
	l8.294-10.688l5.273,3.644l-11.71,12.729l18,15.184l13.834-17.755l-12.048-10.157l5.528-4.709l10.087,11.467l10.925-10.858
	l4.084,4.102l-11.392,13.503l17.754,13.835l13.994-16.597l-11.676-10.741l3.373-2.427l14.303,11.721l11.123-14.004l4.42,4.709
	l-12.426,14.218l17.512,14.146l14.281-16.348l-12.607-12.015l3.742-3.797l11.564,10.635l9.142-10.938l4.217,4.102l-9.464,11.224
	l16.564,15.239l15.184-18l-10.86-8.463l3.848-3.948l12.64,10.992l8.066-10.536l5.5,3.491l-11.71,12.729l18,15.184l13.835-17.755
	l-12.048-10.157l6.063-3.948l9.554,10.706l10.846-10.705l5.177,3.948l-11.391,13.503l17.754,13.835l13.994-16.597L849.388,30.32
	l3.347-2.578l14.33,11.872l10.639-13.699l4.904,4.405l-12.427,14.218l17.51,14.144l14.282-16.348l-12.608-12.015l4.479-2.73
	l10.829,9.568l8.811-10.786l4.547,3.948l-9.463,11.224l16.564,15.24l15.185-18l-10.861-8.463l3.669-3.797l12.817,10.841
	l8.649-10.688l4.918,3.645l-11.711,12.729l18,15.185l13.834-17.756L967.583,30.32l5.429-4.558l10.188,11.315l10.974-10.706
	l4.034,3.948l-11.391,13.503l17.754,13.835l13.994-16.597l-11.677-10.741l3.575-3.035l14.102,12.329l10.106-13.091l4.721,4.415
	l-11.71,13.6l17.509,14.144l14.282-16.348l-11.708-11.091l4.11-3.351l10.296,9.265l9.191-11.09l4.166,4.252l-9.463,11.224
	l16.565,15.24l15.185-18l-10.861-8.463l4.659-3.035l11.827,10.079l8.269-11.146l5.298,4.102l-11.71,12.729l18,15.184l13.834-17.755
	l-12.048-10.157l6.723-4.862l8.894,11.62l10.898-10.707l5.092,3.949l-11.392,13.503l17.755,13.836l13.994-16.597L1165.37,30.32
	l3.127-2.884l14.55,12.178l9.963-13.243l5.58,3.949l-12.427,14.218l17.511,14.144l14.281-16.348l-12.607-12.015l3.8-3.645
	l11.508,10.481l9.351-10.635l4.008,3.797l-9.463,11.224l16.563,15.241l15.184-18l-10.86-8.463l4.514-3.188l11.973,10.231
	l7.973-11.297l5.595,4.253l-11.71,12.729l18,15.185l13.834-17.756l-12.048-10.157l6.121-4.102l9.496,10.858l10.753-10.401
	l4.254,3.645l-11.392,13.503l17.754,13.835l13.994-16.597L1322.87,30.32l3.051-3.035l14.625,12.329l10.647-13.547l4.896,4.253
	l-12.428,14.218l17.512,14.144l14.281-16.348l-11.623-10.939l4.263-4.11l10.061,9.873l9.123-11.243l4.234,4.405l-9.463,11.224
	l16.563,15.24l15.185-18l-9.772-7.54l3.806-4.415l11.592,10.536l9.114-11.146l4.453,4.102l-11.71,12.729l18,15.185l13.834-17.756
	l-12.048-10.157l5.131-4.559l10.485,11.315l11.591-11.164l4.434,4.406l-11.391,13.503l17.754,13.836l13.993-16.597l-11.676-10.741
	l2.72-3.188l14.957,12.482l11.839-13.092l3.704,3.797l-12.426,14.218l17.509,14.145l14.282-16.348l-12.608-12.015l3.698-4.102
	l11.61,10.939l8.486-10.026l4.111,3.806l-8.705,10.606l16.565,15.24l15.184-18l-9.95-7.997l3.654-3.502l11.922,10.081l8.937-11.451
	l4.632,4.406l-11.711,12.729l18,15.185l13.835-17.756l-12.047-10.157l4.8-5.473l10.814,12.23l11.261-10.403l3.746,3.646
	l-11.391,13.503l17.754,13.834l13.993-16.597l-11.676-10.741l3.71-3.342l13.966,12.636l9.938-12.636l4.872,3.807l-11.693,13.752
	l17.511,14.145l14.281-16.348l-12.03-11.245l4.416-3.654l10.314,9.723l9.173-10.94l4.184,4.103l-9.463,11.224l16.565,15.24
	l15.184-18l-10.861-8.463l3.881-4.103l12.605,11.146l8.404-11.146l5.164,4.103l-11.711,12.729l18,15.185l13.835-17.756
	l-12.047-10.157l4.576-5.021l11.159,11.778V0H0V37.364z M18.42,49.895l-7.896-7.453l7.014-8.117l8.447,7.012L18.42,49.895z
	 M57.936,49.785l-8.56-7.564l7.455-7.896l8.117,7.012L57.936,49.785z M98.693,50.795l-8.424-7.713l7.592-7.764l7.992,7.153
	L98.693,50.795z M136.248,48.28l-8.117-7.013l7.013-8.447l8.559,7.563L136.248,48.28z M175.92,49.895l-7.896-7.453l7.014-8.117
	l8.447,7.012L175.92,49.895z M216.453,49.785l-8.559-7.564l7.455-7.896l8.115,7.012L216.453,49.785z M257.211,50.795l-8.424-7.713
	l7.591-7.764l7.993,7.153L257.211,50.795z M294.766,48.28l-8.117-7.013l7.012-8.447l8.559,7.563L294.766,48.28z M334.438,49.895
	l-7.896-7.453l7.014-8.117l8.447,7.012L334.438,49.895z M373.953,49.785l-8.559-7.564l7.455-7.896l8.115,7.012L373.953,49.785z
	 M414.711,50.795l-8.424-7.713l7.591-7.764l7.993,7.153L414.711,50.795z M452.266,48.28l-8.117-7.013l7.012-8.447l8.559,7.563
	L452.266,48.28z M491.938,49.895l-7.896-7.453l7.014-8.117l8.447,7.012L491.938,49.895z M530.193,49.785l-8.559-7.564l7.455-7.896
	l8.116,7.012L530.193,49.785z M570.951,50.795l-8.424-7.713l7.592-7.764l7.992,7.153L570.951,50.795z M608.506,48.28l-8.116-7.013
	l7.012-8.447l8.559,7.563L608.506,48.28z M648.178,49.895l-7.896-7.453l7.014-8.117l8.447,7.012L648.178,49.895z M687.693,49.785
	l-8.559-7.564l7.455-7.896l8.116,7.012L687.693,49.785z M728.451,50.795l-8.424-7.713l7.592-7.764l7.992,7.153L728.451,50.795z
	 M766.006,48.28l-8.116-7.013l7.012-8.447l8.559,7.563L766.006,48.28z M805.678,49.895l-7.896-7.453l7.014-8.117l8.447,7.012
	L805.678,49.895z M846.211,49.785l-8.559-7.564l7.455-7.896l8.116,7.012L846.211,49.785z M886.969,50.795l-8.425-7.713l7.592-7.764
	l7.992,7.153L886.969,50.795z M924.523,48.28l-8.117-7.013l7.012-8.447l8.56,7.563L924.523,48.28z M964.195,49.895l-7.896-7.453
	l7.014-8.117l8.448,7.012L964.195,49.895z M1003.711,49.785l-8.559-7.564l7.455-7.896l8.116,7.012L1003.711,49.785z
	 M1044.469,50.795l-8.425-7.713l7.592-7.764l7.992,7.153L1044.469,50.795z M1082.023,48.28l-8.117-7.013l7.012-8.447l8.56,7.563
	L1082.023,48.28z M1121.695,49.895l-7.896-7.453l7.014-8.117l8.448,7.012L1121.695,49.895z M1162.193,49.785l-8.559-7.564
	l7.454-7.896l8.116,7.012L1162.193,49.785z M1202.951,50.795l-8.424-7.713l7.591-7.764l7.993,7.153L1202.951,50.795z
	 M1240.506,48.28l-8.116-7.013l7.012-8.447l8.559,7.563L1240.506,48.28z M1280.178,49.895l-7.896-7.453l7.013-8.117l8.448,7.012
	L1280.178,49.895z M1319.693,49.785l-8.559-7.564l7.454-7.896l8.116,7.012L1319.693,49.785z M1360.451,50.795l-8.424-7.713
	l7.591-7.764l7.993,7.153L1360.451,50.795z M1398.007,48.28l-8.117-7.013l7.012-8.447l8.56,7.563L1398.007,48.28z M1437.678,49.895
	l-7.896-7.453l7.014-8.117l8.447,7.012L1437.678,49.895z M1478.212,49.785l-8.56-7.564l7.454-7.896l8.117,7.012L1478.212,49.785z
	 M1518.969,50.795l-8.425-7.713l7.591-7.764l7.993,7.153L1518.969,50.795z M1556.522,48.28l-8.117-7.013l7.013-8.447l8.559,7.563
	L1556.522,48.28z M1596.194,49.895l-7.896-7.453l7.012-8.117l8.448,7.012L1596.194,49.895z M1635.712,49.785l-8.56-7.564
	l7.454-7.896l8.117,7.012L1635.712,49.785z M1676.469,50.795l-8.425-7.713l7.591-7.764l7.993,7.153L1676.469,50.795z
	 M1714.022,48.28l-8.117-7.013l7.013-8.447l8.559,7.563L1714.022,48.28z M1753.694,49.895l-7.896-7.453l7.012-8.117l8.448,7.012
	L1753.694,49.895z"/>
</svg>
