<?xml version="1.0" encoding="utf-8"?>
<!-- Generator: Adobe Illustrator 14.0.0, SVG Export Plug-In . SVG Version: 6.00 Build 43363)  -->
<!DOCTYPE svg PUBLIC "-//W3C//DTD SVG 1.1//EN" "http://www.w3.org/Graphics/SVG/1.1/DTD/svg11.dtd">
<svg version="1.1" id="Layer_1" xmlns="http://www.w3.org/2000/svg" xmlns:xlink="http://www.w3.org/1999/xlink" x="0px" y="0px"
	 width="1328.856px" height="36.771px" viewBox="-2.828 -86.771 1328.856 36.771"
	 enable-background="new -2.828 -86.771 1328.856 36.771" xml:space="preserve">
<path d="M-2.828-77.276l6.386-8.24l3.908,2.959l-8.778,9.541l13.493,11.382l10.369-13.31l-9.031-7.613l4.075-4.215l7.631,9.28
	l7.661-8.139l3.588,3.074l-8.538,10.122l13.309,10.37l10.489-12.44l-7.778-7.131l2.169-2.51l10.106,8.557l7.696-9.698l3.954,2.731
	l-9.314,10.657l13.124,10.601l10.705-12.253l-9.451-9.005l3.649-3.872l7.825,8.997l6.782-8.084l3.23,2.959l-7.093,8.413
	l12.416,11.423l11.382-13.493l-8.142-6.343l2.701-3.187l9.658,8.467l6.319-8.354l3.851,3.074l-8.777,9.542l13.492,11.382
	l10.371-13.31l-9.031-7.614l3.448-3.986l8.258,9.052l8.633-8.024l3.378,2.958l-8.538,10.122l13.308,10.37l10.49-12.44l-8.753-8.052
	l2.325-2.388l10.925,9.355l7.105-9.584l4.544,2.617l-9.315,10.657l13.125,10.601l10.705-12.253l-9.451-9.005l3.286-2.503
	l8.188,7.628l6.646-7.856l3.366,2.731l-7.093,8.413l12.416,11.423l11.382-13.493l-8.142-6.343l2.681-2.731l9.677,8.012l6.412-8.126
	l3.758,2.846l-8.778,9.541l13.492,11.382l10.37-13.31l-9.031-7.613l4.226-3.417l7.48,8.481l7.813-7.568l3.437,2.503l-8.539,10.121
	l13.308,10.371l10.49-12.44l-8.753-8.051l2.382-2.161l10.868,9.127l7.848-10.041l3.802,3.073l-9.315,10.657l13.125,10.604
	l10.706-12.253l-9.451-9.005l2.66-2.731l8.814,7.856l6.59-8.199l3.422,3.074l-7.093,8.413l12.416,11.423l11.382-13.493l-8.141-6.343
	l2.623-2.846l9.734,8.126l6.242-8.467l3.928,3.187l-8.777,9.542l13.492,11.382l10.37-13.31l-9.03-7.614l3.827-3.986l7.878,9.052
	l7.414-7.568l2.891,2.502l-8.539,10.122l13.309,10.37l10.489-12.44l-8.751-8.052l2.241-2.389l11.008,9.356l8.05-10.154l3.6,3.187
	l-9.314,10.657l13.127,10.601l10.705-12.253l-9.45-9.005l2.86-2.617l8.613,7.742l6.45-8.199l3.562,3.074l-7.094,8.413l12.417,11.423
	l11.381-13.493l-8.141-6.343l3.396-3.188l8.961,8.467l6.217-8.011l3.953,2.731l-8.778,9.541l13.492,11.382l10.37-13.309
	l-9.031-7.613l4.144-3.53l7.561,8.595l8.189-8.139l3.062,3.075l-8.539,10.121l13.308,10.371l10.489-12.441l-8.751-8.051l2.528-1.82
	l10.721,8.786l8.337-10.497l3.313,3.53L530.614-71.9l13.126,10.603l10.705-12.253l-9.45-9.005l2.806-2.846l8.668,7.971l6.853-8.199
	l3.161,3.074l-7.094,8.413l12.416,11.423l11.382-13.493l-8.141-6.344l2.884-2.959l9.474,8.24l6.047-7.897l4.122,2.617l-8.778,9.541
	l13.493,11.382l10.37-13.31l-9.03-7.613l4.545-2.96l7.161,8.025l8.129-8.024l3.88,2.959l-8.538,10.122l13.308,10.37l10.489-12.44
	l-8.752-8.052l2.509-1.932l10.741,8.899l7.975-10.269l3.676,3.302l-9.315,10.657l13.125,10.601l10.705-12.253l-9.449-9.005
	l3.356-2.047l8.116,7.172l6.605-8.085l3.407,2.96l-7.093,8.413l12.416,11.424l11.382-13.493l-8.141-6.344l2.75-2.846l9.607,8.126
	l6.483-8.012l3.686,2.731l-8.777,9.542l13.493,11.382l10.368-13.31l-9.03-7.614l4.069-3.416l7.637,8.482l8.226-8.025l3.022,2.959
	l-8.538,10.122l13.309,10.37l10.489-12.44l-8.752-8.052l2.68-2.275l10.569,9.242l7.576-9.813l3.538,3.31l-8.777,10.194
	l13.124,10.601l10.706-12.253l-8.775-8.313l3.08-2.512l7.719,6.945l6.89-8.313l3.121,3.188l-7.092,8.413l12.416,11.424
	l11.383-13.493l-8.143-6.344l3.493-2.275l8.865,7.555l6.197-8.355l3.972,3.075l-8.778,9.541l13.493,11.382l10.369-13.31
	l-9.031-7.613l5.04-3.645l6.666,8.71l8.169-8.026l3.816,2.961l-8.538,10.121l13.309,10.371l10.49-12.44l-8.753-8.052l2.344-2.162
	l10.905,9.128l7.469-9.927l4.183,2.96l-9.315,10.657l13.126,10.601l10.706-12.253l-9.451-9.005l2.849-2.732l8.625,7.856l7.009-7.972
	l3.005,2.846l-7.094,8.413l12.415,11.425l11.382-13.493l-8.142-6.344l3.384-2.389l8.975,7.669l5.977-8.468l4.192,3.188l-8.776,9.542
	l13.491,11.382l10.371-13.31l-9.031-7.614l4.587-3.074l7.119,8.139l8.06-7.796l3.188,2.731l-8.538,10.122l13.308,10.37l10.49-12.44
	l-8.753-8.052l2.286-2.275l10.963,9.242l7.98-10.154l3.67,3.188l-9.314,10.657l13.126,10.601l10.705-12.253l-8.713-8.2l3.195-3.081
	l7.541,7.4l6.839-8.428l3.173,3.303l-7.093,8.413l12.417,11.424l11.38-13.493l-7.324-5.652l2.854-3.309l8.688,7.897l6.832-8.354
	l3.339,3.074l-8.777,9.542l13.492,11.382l10.37-13.31l-9.031-7.614l3.845-3.417l7.859,8.482l8.689-8.368l3.323,3.303l-8.539,10.121
	l13.309,10.371l10.489-12.44l-8.753-8.052l2.039-2.39l11.212,9.356l8.874-9.813l2.775,2.846l-9.313,10.656l13.125,10.602
	l10.705-12.253l-9.451-9.005l2.772-3.075l8.702,8.2l6.36-7.516l3.082,2.853l-6.524,7.951l12.418,11.424l11.38-13.493l-7.458-5.995
	l2.739-2.625l8.937,7.556l6.699-8.583l3.47,3.303l-8.777,9.542l13.492,11.382l10.371-13.31l-9.03-7.614l3.597-4.102l8.107,9.167
	l8.44-7.798l2.808,2.733l-8.537,10.121l13.308,10.37l10.489-12.44l-8.753-8.052l2.782-2.504l10.468,9.471l7.447-9.471l3.654,2.854
	l-8.767,10.307l13.127,10.602l10.704-12.253l-9.019-8.429l3.312-2.74l7.731,7.288l6.875-8.2l3.136,3.075l-7.093,8.413l12.417,11.424
	l11.381-13.493l-8.142-6.344l2.909-3.075l9.449,8.355l6.3-8.355l3.87,3.075l-8.778,9.542l13.492,11.382l10.37-13.31l-9.03-7.614
	l3.432-3.763l8.364,8.829V-50H-2.828V-77.276z M10.979-67.883L5.061-73.47l5.257-6.084l6.332,5.256L10.979-67.883z M40.599-67.965
	l-6.417-5.67l5.588-5.918l6.084,5.256L40.599-67.965z M71.15-67.207l-6.314-5.783l5.69-5.819l5.991,5.361L71.15-67.207z
	 M99.3-69.093l-6.084-5.257l5.257-6.332l6.415,5.67L99.3-69.093z M129.037-67.883l-5.918-5.587l5.257-6.084l6.332,5.256
	L129.037-67.883z M159.419-67.965l-6.416-5.67l5.588-5.918l6.083,5.256L159.419-67.965z M189.971-67.207l-6.315-5.783l5.69-5.819
	l5.991,5.361L189.971-67.207z M218.12-69.093l-6.084-5.257l5.255-6.332l6.416,5.67L218.12-69.093z M247.857-67.883l-5.919-5.587
	l5.257-6.084l6.332,5.256L247.857-67.883z M277.477-67.965l-6.416-5.67l5.589-5.918l6.083,5.256L277.477-67.965z M308.028-67.207
	l-6.314-5.783l5.689-5.819l5.991,5.361L308.028-67.207z M336.177-69.093l-6.084-5.257l5.256-6.332l6.415,5.67L336.177-69.093z
	 M365.915-67.883l-5.919-5.587l5.258-6.084l6.332,5.256L365.915-67.883z M394.59-67.965l-6.415-5.67l5.588-5.918l6.083,5.256
	L394.59-67.965z M425.141-67.207l-6.314-5.783l5.691-5.819l5.991,5.361L425.141-67.207z M453.291-69.093l-6.083-5.257l5.255-6.332
	l6.416,5.67L453.291-69.093z M483.028-67.883l-5.919-5.587l5.257-6.084l6.332,5.256L483.028-67.883z M512.648-67.965l-6.416-5.67
	l5.589-5.918l6.083,5.256L512.648-67.965z M543.199-67.207l-6.314-5.783l5.69-5.819l5.991,5.361L543.199-67.207z M571.348-69.093
	l-6.083-5.257l5.256-6.332l6.416,5.67L571.348-69.093z M601.085-67.883l-5.919-5.587l5.257-6.084l6.332,5.256L601.085-67.883z
	 M631.468-67.965l-6.416-5.67l5.588-5.918l6.084,5.256L631.468-67.965z M662.019-67.207l-6.314-5.783l5.69-5.819l5.991,5.361
	L662.019-67.207z M690.168-69.093l-6.084-5.257l5.256-6.332l6.417,5.67L690.168-69.093z M719.905-67.883l-5.919-5.587l5.258-6.084
	l6.333,5.256L719.905-67.883z M749.526-67.965l-6.416-5.67l5.589-5.918l6.083,5.256L749.526-67.965z M780.076-67.207l-6.314-5.783
	l5.691-5.819l5.99,5.361L780.076-67.207z M808.227-69.093l-6.084-5.257l5.256-6.332l6.415,5.67L808.227-69.093z M837.964-67.883
	l-5.919-5.587l5.257-6.084l6.333,5.256L837.964-67.883z M868.319-67.965l-6.415-5.67l5.588-5.918l6.083,5.256L868.319-67.965z
	 M898.87-67.207l-6.313-5.783l5.69-5.819l5.99,5.361L898.87-67.207z M927.021-69.093l-6.085-5.257l5.257-6.332l6.415,5.67
	L927.021-69.093z M956.758-67.883l-5.92-5.587l5.256-6.084l6.334,5.256L956.758-67.883z M986.377-67.965l-6.415-5.67l5.587-5.918
	l6.084,5.256L986.377-67.965z M1016.928-67.207l-6.314-5.783l5.69-5.819l5.991,5.361L1016.928-67.207z M1045.079-69.093
	l-6.085-5.257l5.257-6.332l6.415,5.67L1045.079-69.093z M1074.815-67.883l-5.919-5.587l5.257-6.084l6.331,5.256L1074.815-67.883z
	 M1105.197-67.965l-6.415-5.67l5.587-5.918l6.084,5.256L1105.197-67.965z M1135.748-67.207l-6.315-5.783l5.69-5.819l5.99,5.361
	L1135.748-67.207z M1163.898-69.093l-6.085-5.257l5.257-6.332l6.415,5.67L1163.898-69.093z M1193.635-67.883l-5.918-5.587
	l5.256-6.084l6.331,5.256L1193.635-67.883z M1223.255-67.965l-6.415-5.67l5.587-5.918l6.083,5.256L1223.255-67.965z
	 M1253.807-67.207l-6.316-5.783l5.69-5.819l5.991,5.361L1253.807-67.207z M1281.955-69.093l-6.084-5.257l5.257-6.332l6.415,5.67
	L1281.955-69.093z M1311.691-67.883l-5.917-5.587l5.256-6.084l6.331,5.256L1311.691-67.883z"/>
</svg>
