<svg width="141" height="139" viewBox="0 0 141 139" fill="none" xmlns="http://www.w3.org/2000/svg">
<path d="M45.4969 116.664C45.4969 116.664 55.7959 103.502 59.6413 82.8532C41.1127 94.7959 28.7241 84.0913 28.7241 84.0913C20.3048 86.0615 11.6402 82.0847 11.6402 82.0847L13.4434 75.1353C20.1584 79.717 23.9966 78.7769 23.9966 78.7769C19.5208 75.5884 13.8767 65.0873 13.8767 65.0873L20.9837 61.2807C22.0943 67.2287 27.6626 74.7243 27.6626 74.7243C26.4945 70.5625 29.2509 61.9962 29.2509 61.9962L36.2081 63.8553C36.2081 63.8553 30.2092 71.8907 33.8433 77.3395C36.6731 81.5809 45.4371 85.2134 61.0223 70.046C61.1152 66.9801 61.0367 63.8039 60.7562 60.5304L54.0213 55.19L48.0839 65.4801L41.9202 59.5785L50.4305 52.284L44.2542 47.2808L33.5867 51.1297L32.6331 40.6009L43.5234 43.0564L49.0944 35.7331L36.5245 29.1982L44.1183 21.0471L52.4398 31.3342L57.8485 24.2254L53.5488 12.7394L65.1404 12.4744L63.3899 24.5612L70.5139 30.1131L76.3521 16.9266L85.5777 24.2355L73.557 32.4833L81.5814 38.7346L92.5478 33.3354L95.6366 43.3247L80.8609 44.6196L77.5226 49.5453L90.3726 55.8583L83.439 64.8897L74.3823 54.1791L69.9598 60.4561C70.9801 62.2671 72.4139 64.9944 73.8766 68.3592C89.2611 77.464 100.815 72.9754 104.665 68.8344C110.503 62.5555 98.9349 54.437 98.9349 54.437L104.863 49.4781C110.391 55.3573 110.452 61.7998 110.452 61.7998C112.939 56.5099 112.992 48.9202 112.992 48.9202L121.313 51.1944C119.156 58.5487 114.701 62.8369 114.701 62.8369C121.317 62.3825 127.069 57.6267 127.069 57.6267L130.555 64.2153C125.971 66.6149 114.105 68.669 114.105 68.669C109.018 75.4997 99.9155 86.8218 77.641 78.9372C79.2551 84.7824 80.2602 91.3275 79.6589 97.8693C79.6589 97.8693 95.0597 95.8192 104.324 96.9894C104.324 96.9894 110.236 109.096 111.768 115.557C111.768 115.557 108.478 119.215 102.684 120.363C102.684 120.363 100.919 110.191 98.6607 105.127C98.6607 105.127 92.6589 104.671 90.0408 104.794C90.0408 104.794 85.902 139.924 49.7243 126.6C49.7243 126.6 32.6565 117.707 26.2036 110.468L32.8781 103.633C32.8781 103.633 39.5193 113.089 45.4969 116.664ZM73.1911 41.7934L61.2883 32.3193L52.1947 43.9073L64.459 54.1365L73.1911 41.7934Z" fill="#FFC683"/>
</svg>
