<svg width="136" height="95" viewBox="0 0 136 95" fill="none" xmlns="http://www.w3.org/2000/svg">
<mask id="mask0" mask-type="alpha" maskUnits="userSpaceOnUse" x="0" y="0" width="136" height="95">
<rect width="136" height="95" fill="#C4C4C4"/>
</mask>
<g mask="url(#mask0)">
<path d="M45.924 103.937C45.924 103.937 55.6307 91.5309 59.255 72.0699C41.7919 83.3258 30.1156 73.2367 30.1156 73.2367C22.1804 75.0937 14.014 71.3455 14.014 71.3455L15.7136 64.7958C22.0424 69.114 25.66 68.228 25.66 68.228C21.4415 65.2228 16.122 55.3255 16.122 55.3255L22.8203 51.7378C23.867 57.3438 29.1151 64.4084 29.1151 64.4084C28.0142 60.4859 30.6121 52.4122 30.6121 52.4122L37.1693 54.1643C37.1693 54.1643 31.5153 61.7377 34.9405 66.8732C37.6075 70.8707 45.8676 74.2943 60.5566 59.9991C60.6441 57.1095 60.5701 54.1159 60.3058 51.0307L53.9582 45.9974L48.3622 55.6957L42.5529 50.1335L50.5739 43.2584L44.7527 38.543L34.6986 42.1705L33.7999 32.2472L44.0639 34.5615L49.3145 27.6593L37.4675 21.5001L44.6246 13.8177L52.4676 23.5133L57.5653 16.8133L53.5129 5.98774L64.4379 5.73799L62.788 17.1298L69.5024 22.3624L75.0049 9.93413L83.7 16.8228L72.3705 24.5964L79.9335 30.4882L90.2693 25.3994L93.1805 34.8144L79.2545 36.0348L76.108 40.6772L88.2192 46.6273L81.6843 55.1393L73.1483 45.0446L68.9802 50.9606C69.9418 52.6675 71.2931 55.238 72.6717 58.4093C87.1716 66.9906 98.0616 62.7601 101.689 58.8572C107.192 52.9393 96.2891 45.2876 96.2891 45.2876L101.876 40.6139C107.086 46.155 107.144 52.2271 107.144 52.2271C109.488 47.2413 109.538 40.0881 109.538 40.0881L117.381 42.2315C115.347 49.1629 111.148 53.2045 111.148 53.2045C117.384 52.7762 122.806 48.2939 122.806 48.2939L126.091 54.5037C121.771 56.7653 110.587 58.7013 110.587 58.7013C105.792 65.1392 97.2133 75.8102 76.2197 68.379C77.741 73.8881 78.6883 80.0569 78.1215 86.2225C78.1215 86.2225 92.6367 84.2903 101.369 85.3932C101.369 85.3932 106.941 96.8036 108.384 102.893C108.384 102.893 105.284 106.341 99.8227 107.423C99.8227 107.423 98.159 97.8356 96.0307 93.0627C96.0307 93.0627 90.3741 92.6329 87.9064 92.7488C87.9064 92.7488 84.0057 125.859 49.9083 113.301C49.9083 113.301 33.8219 104.919 27.7401 98.0965L34.0308 91.655C34.0308 91.655 40.2901 100.567 45.924 103.937ZM72.0257 33.3711L60.8073 24.4418L52.2366 35.3634L63.7957 45.0045L72.0257 33.3711Z" fill="#FFC683"/>
</g>
</svg>
