<svg width="1110" height="31" viewBox="0 0 1110 31" fill="none" xmlns="http://www.w3.org/2000/svg">
<path d="M4.55804e-06 7.27913e-07L1110 9.79243e-05V17.2599L1104.01 9.40065L1092.66 19.1802L1100.04 27.3785L1096.79 30.0205L1091.49 22.8417L1083.54 30.0205L1081.1 27.3785L1087.94 21.9278L1078.37 10.3346L1067.93 20.1501L1073.89 27.3792L1071.26 30.0211L1065.47 22.975L1058.97 29.2366L1056.19 26.8832L1063.77 19.6407L1054.77 9.11147L1043.73 18.2218L1051.1 27.079L1048.03 29.5303L1041.76 21.3925L1032.96 29.5303L1030.62 27.3785L1037.98 20.4599L1029.16 9.77099L1017.97 18.681L1025.15 27.3779L1022.79 29.7261L1015.69 23.0259L1008.87 30.9028L1005.85 27.3785L1013.44 20.8361L1004.72 9.40065L993.372 19.1802L1000.75 27.3785L997.834 30.2163L992.201 22.841L984.686 29.3339L982.382 27.0784L988.655 21.9278L979.083 10.3345L968.64 20.1501L974.128 26.9811L971.536 29.4324L966.186 22.975L958.867 30.0205L956.536 27.3791L964.484 19.6407L955.481 9.11146L944.443 18.2218L952.276 27.3791L949.941 29.824L942.478 21.3925L933.049 29.4318L931.335 27.3785L938.695 20.4599L929.874 9.77098L918.682 18.6823L925.862 27.3791L923.068 30.2169L915.761 23.0265L909.151 30.3142L905.916 27.3785L913.511 20.8361L904.791 9.40064L893.443 19.1802L900.825 27.3785L898.018 30.0198L892.272 22.8417L884.965 29.6276L882.566 26.784L888.726 21.9277L879.154 10.3345L868.712 20.1501L874.678 27.3791L872.009 30.2163L866.258 22.975L859.915 29.3339L857.228 26.6861L864.555 19.6407L855.552 9.11145L844.513 18.2211L852.347 27.3785L849.261 30.1177L842.549 21.3925L833.329 29.3332L831.406 27.3785L838.767 20.4599L829.945 9.77097L818.753 18.6816L825.934 27.3785L823.252 29.7255L816.474 23.0265L810.488 30.0198L806.629 27.3785L814.224 20.836L805.503 9.40063L794.156 19.1801L801.538 27.3785L798.011 30.1177L792.985 22.8417L785.438 29.4311L782.592 27.3785L789.439 21.9277L779.867 10.3345L769.425 20.1508L775.391 27.3798L772.865 29.8246L766.97 22.9756L759.715 29.7261L757.32 27.3791L765.268 19.6407L756.265 9.11144L745.226 18.2211L753.06 27.3785L749.542 29.9219L743.262 21.3925L734.09 29.2353L732.119 27.3785L739.48 20.4599L730.657 9.77096L719.465 18.6823L726.646 27.3791L723.436 29.9225L716.566 23.0265L710.959 30.5106L706.722 27.3791L714.317 20.8367L705.596 9.40127L694.249 19.1808L701.631 27.3791L698.291 30.0204L693.078 22.8417L685.622 29.3332L682.685 27.3785L689.532 21.9277L679.96 10.3345L669.517 20.1501L675.482 27.3791L672.856 30.1177L667.062 22.975L660.572 28.9416L657.98 26.784L665.361 19.6406L656.357 9.11143L645.32 18.2211L652.702 26.9798L649.726 29.8234L643.355 21.3925L634.466 29.3332L632.211 27.3785L639.573 20.4599L630.751 9.77096L619.559 18.6816L626.74 27.3785L624.197 29.9212L617.279 23.0259L610.856 30.3135L607.434 27.3785L615.029 20.836L606.308 9.40061L594.961 19.1801L602.343 27.3785L599.244 29.7254L593.791 22.8417L585.711 29.8233L583.398 27.3785L590.245 21.9277L580.673 10.3345L570.23 20.1501L576.196 27.3791L573.329 29.9219L567.775 22.975L560.948 29.1374L558.125 27.3791L566.073 19.6406L557.07 9.11142L546.032 18.2211L553.866 27.3785L550.774 30.2156L544.067 21.3925L535.034 29.0389L532.924 27.3785L540.285 20.4599L531.463 9.77095L520.271 18.6816L527.452 27.3785L524.189 29.9212L517.351 23.0265L511.329 29.9219L507.506 27.3791L515.101 20.8367L506.38 9.40125L495.033 19.1808L502.415 27.3791L498.947 29.6275L493.862 22.8416L485.894 29.9212L483.469 27.3785L490.315 21.9277L480.744 10.3345L470.302 20.1494L476.267 27.3785L473.609 30.0198L467.846 22.975L460.556 29.824L458.197 27.3791L466.145 19.6406L457.142 9.11141L446.103 18.2224L453.936 27.3797L451.15 30.4127L444.138 21.3931L435.121 28.9416L432.995 27.3791L440.355 20.4605L431.533 9.77158L420.341 18.6822L427.522 27.3791L424.948 30.0204L418.061 23.0271L411.702 30.4127L408.217 27.3797L415.812 20.8373L407.091 9.40188L395.744 19.1814L403.126 27.3797L399.802 29.7261L394.573 22.8423L387.037 30.1177L384.181 27.3791L391.027 21.9283L381.455 10.3351L371.014 20.1501L376.979 27.3791L373.984 30.0198L368.559 22.975L361.316 29.6275L358.909 27.3791L366.857 19.6406L357.855 9.1114L346.815 18.2211L354.648 27.3784L351.621 30.117L344.85 21.3925L335.592 29.4311L333.707 27.3784L341.068 20.4599L332.246 9.77093L321.054 18.6816L328.235 27.3784L325.803 29.5283L319.568 23.0258L312.942 30.8036L309.724 27.3784L317.319 20.836L308.598 9.40059L297.251 19.1801L304.633 27.3784L301.33 30.117L296.08 22.8416L287.893 29.8233L285.688 27.3791L292.534 21.9283L282.962 10.3351L272.52 20.1501L278.486 27.3791L275.608 30.0198L270.066 22.9749L262.652 29.7254L260.416 27.3791L268.364 19.6406L259.36 9.1114L248.323 18.223L256.157 27.3804L252.959 30.021L246.358 21.3938L237.218 29.2359L235.215 27.3797L242.576 20.4611L233.754 9.77221L222.562 18.6829L229.743 27.3797L226.853 29.5303L220.282 23.0271L213.991 30.3141L210.437 27.3791L218.032 20.8366L209.311 9.40122L197.964 19.1807L205.346 27.3791L202.186 29.8233L196.793 22.8416L188.654 29.7254L186.4 27.3791L193.247 21.9283L183.675 10.3351L173.233 20.1501L179.198 27.3791L176.369 29.7254L170.778 22.9749L163.892 29.529L161.128 27.3791L169.076 19.6406L160.073 9.11139L149.036 18.2211L156.87 27.3784L153.048 29.6269L147.072 21.3925L137.884 29.4304L135.929 27.3784L143.29 20.4599L134.468 9.77091L123.276 18.6816L130.457 27.3784L127.615 29.9206L120.355 23.0258L113.41 30.8029L110.51 27.3784L118.105 20.836L109.383 9.40057L98.0361 19.1801L105.418 27.3784L102.18 30.0191L96.8648 22.8416L88.7428 30.117L86.4716 27.3791L93.3182 21.9283L83.7463 10.3351L73.3043 20.1501L79.2698 27.3791L76.5528 29.9212L70.8491 22.9749L64.2683 30.7057L61.1995 27.3791L69.1475 19.6406L60.1449 9.11138L49.1073 18.2204L56.9406 27.3778L53.6152 29.7241L47.1422 21.3918L38.6433 28.7438L36.8189 26.5869L43.36 20.4598L34.5381 9.7709L23.3461 18.6816L30.5269 27.3784L27.5099 30.0191L21.0659 23.0265L14.6486 31L11.2211 27.3791L18.8161 20.8366L10.0952 9.4012L6.92246e-07 18.1017L4.55804e-06 7.27913e-07Z" fill="white"/>
<path d="M4.78491e-07 20.5712L6.13005 27.3791L2.8431 29.9212L0 26.0992L4.78491e-07 20.5712Z" fill="white"/>
<path d="M1110 27.3785L1105.13 27.3785L1110 23.1858V27.3785Z" fill="white"/>
<path d="M4.10764 19.571L9.08525 14.7701L13.8543 20.2827L8.52929 24.7989L4.10764 19.571Z" fill="white"/>
<path d="M28.5998 19.7127L33.9953 14.841L38.4165 20.2821L33.2995 24.7983L28.5998 19.7127Z" fill="white"/>
<path d="M54.3786 19.1582L59.6891 14.1905L64.2027 19.5511L59.1647 24.1587L54.3786 19.1582Z" fill="white"/>
<path d="M78.2467 20.3272L83.3636 15.811L88.0626 20.8965L82.667 25.7682L78.2467 20.3272Z" fill="white"/>
<path d="M103.395 19.571L108.373 14.7702L113.142 20.2827L107.817 24.7989L103.395 19.571Z" fill="white"/>
<path d="M128.529 19.7127L133.925 14.841L138.345 20.2821L133.229 24.7983L128.529 19.7127Z" fill="white"/>
<path d="M154.308 19.1582L159.618 14.1905L164.132 19.5511L159.093 24.1587L154.308 19.1582Z" fill="white"/>
<path d="M178.175 20.3272L183.292 15.811L187.991 20.8965L182.596 25.7683L178.175 20.3272Z" fill="white"/>
<path d="M203.324 19.571L208.301 14.7702L213.07 20.2827L207.745 24.7989L203.324 19.571Z" fill="white"/>
<path d="M227.817 19.7127L233.212 14.841L237.632 20.2821L232.516 24.7983L227.817 19.7127Z" fill="white"/>
<path d="M253.595 19.1582L258.906 14.1905L263.419 19.5511L258.381 24.1587L253.595 19.1582Z" fill="white"/>
<path d="M277.463 20.3272L282.58 15.811L287.279 20.8965L281.883 25.7683L277.463 20.3272Z" fill="white"/>
<path d="M302.611 19.5711L307.589 14.7702L312.358 20.2827L307.032 24.7989L302.611 19.5711Z" fill="white"/>
<path d="M326.31 19.7128L331.705 14.841L336.126 20.2821L331.009 24.7983L326.31 19.7128Z" fill="white"/>
<path d="M352.088 19.1582L357.399 14.1905L361.913 19.5511L356.874 24.1588L352.088 19.1582Z" fill="white"/>
<path d="M375.957 20.3272L381.073 15.811L385.772 20.8965L380.377 25.7683L375.957 20.3272Z" fill="white"/>
<path d="M401.104 19.5711L406.082 14.7702L410.851 20.2828L405.526 24.799L401.104 19.5711Z" fill="white"/>
<path d="M425.597 19.7128L430.993 14.841L435.414 20.2821L430.297 24.7983L425.597 19.7128Z" fill="white"/>
<path d="M451.376 19.1582L456.686 14.1905L461.2 19.5511L456.162 24.1588L451.376 19.1582Z" fill="white"/>
<path d="M475.244 20.3272L480.361 15.811L485.06 20.8966L479.664 25.7683L475.244 20.3272Z" fill="white"/>
<path d="M500.392 19.5711L505.369 14.7702L510.138 20.2828L504.813 24.799L500.392 19.5711Z" fill="white"/>
<path d="M525.526 19.7128L530.922 14.841L535.342 20.2821L530.226 24.7983L525.526 19.7128Z" fill="white"/>
<path d="M551.304 19.1582L556.615 14.1905L561.129 19.5511L556.09 24.1588L551.304 19.1582Z" fill="white"/>
<path d="M575.173 20.3272L580.289 15.811L584.988 20.8966L579.593 25.7683L575.173 20.3272Z" fill="white"/>
<path d="M600.321 19.5711L605.299 14.7702L610.068 20.2828L604.742 24.799L600.321 19.5711Z" fill="white"/>
<path d="M624.814 19.7128L630.209 14.8411L634.63 20.2821L629.513 24.7983L624.814 19.7128Z" fill="white"/>
<path d="M650.592 19.1582L655.902 14.1905L660.416 19.5511L655.377 24.1588L650.592 19.1582Z" fill="white"/>
<path d="M674.46 20.3272L679.577 15.811L684.276 20.8966L678.88 25.7683L674.46 20.3272Z" fill="white"/>
<path d="M699.608 19.5711L704.586 14.7702L709.355 20.2828L704.029 24.799L699.608 19.5711Z" fill="white"/>
<path d="M724.72 19.7128L730.116 14.8411L734.536 20.2821L729.42 24.7983L724.72 19.7128Z" fill="white"/>
<path d="M750.499 19.1582L755.81 14.1906L760.323 19.5511L755.284 24.1588L750.499 19.1582Z" fill="white"/>
<path d="M774.367 20.3272L779.484 15.811L784.183 20.8966L778.787 25.7683L774.367 20.3272Z" fill="white"/>
<path d="M799.515 19.5711L804.493 14.7702L809.261 20.2828L803.936 24.799L799.515 19.5711Z" fill="white"/>
<path d="M824.008 19.7128L829.403 14.8411L833.824 20.2821L828.707 24.7984L824.008 19.7128Z" fill="white"/>
<path d="M849.787 19.1583L855.097 14.1906L859.611 19.5511L854.572 24.1588L849.787 19.1583Z" fill="white"/>
<path d="M873.655 20.3272L878.772 15.811L883.471 20.8966L878.075 25.7683L873.655 20.3272Z" fill="white"/>
<path d="M898.802 19.5711L903.78 14.7702L908.549 20.2828L903.223 24.799L898.802 19.5711Z" fill="white"/>
<path d="M923.937 19.7128L929.333 14.8411L933.753 20.2822L928.636 24.7984L923.937 19.7128Z" fill="white"/>
<path d="M949.715 19.1583L955.026 14.1906L959.539 19.5511L954.5 24.1588L949.715 19.1583Z" fill="white"/>
<path d="M973.582 20.3272L978.699 15.811L983.398 20.8966L978.003 25.7683L973.582 20.3272Z" fill="white"/>
<path d="M998.731 19.5711L1003.71 14.7702L1008.48 20.2828L1003.15 24.799L998.731 19.5711Z" fill="white"/>
<path d="M1023.22 19.7128L1028.62 14.8411L1033.04 20.2822L1027.92 24.7984L1023.22 19.7128Z" fill="white"/>
<path d="M1049 19.1583L1054.31 14.1906L1058.83 19.5512L1053.79 24.1588L1049 19.1583Z" fill="white"/>
<path d="M1072.87 20.3273L1077.99 15.8111L1082.69 20.8966L1077.29 25.7683L1072.87 20.3273Z" fill="white"/>
<path d="M1098.02 19.5711L1103 14.7702L1107.76 20.2828L1102.44 24.799L1098.02 19.5711Z" fill="white"/>
</svg>
