<svg xmlns="http://www.w3.org/2000/svg" xmlns:xlink="http://www.w3.org/1999/xlink" width="0" height="0" style="position:absolute">
	
		<symbol id="geo" viewBox="">
			<path d="M9.93 25.167l-7.102-9.835a8.683 8.683 0 11 9.998 NaN NaNcNaN NaN NaN NaN NaN NaNsNaN NaN NaN NaNa8.685 8.685 0 1-1.793 NaN NaNlNaN NaNzM10 6.884c-1.74 0-3.152 1.384-3.152 3.093 0 1.708 1.411 3.093 3.152 3.093s3.153-1.385 3.153-3.093c0-1.709-1.412-3.093-3.153-3.093z" stroke="#7AAD16" stroke-width="2" stroke-linecap="round" stroke-linejoin="round"></path>
		</symbol>
	
		<symbol id="homepage" viewBox="">
			<path d="M4 16.5H3a1 1 0 1 1 NaN NaNvNaNzm12.5 0v1a1 1 0 1-1 NaN NaNhNaNzm0-7v-1a1 1 0 0-1 1 NaNh-1zm3 0v1a1 1 0 .644-1.765 NaN NaNlNaN NaNzm-9.5-8l.644-.765a1 1 0 0-1.308.018 NaNl-.662 NaNzm-9 8l-.664-.747a1 1 0 1 10.5 NaN NaNvNaNzm3 0h1a1 1 0 0-1-1 NaNvNaNzm0 8h12.5v-2H4v2zm13.5-1v-7h-2v7h2zm-1-6h3v-2h-3v2zm3.644-1.765l-9.5-8-1.288 1.53 9.5 8 1.288-1.53zM9.336.753l-9 8 1.328 1.494 9-8L9.336.753zM1 10.5h3v-2H1v2zm2-1v7h2v-7H3z" fill="#C74C4D"></path><path stroke="#C74C4D" stroke-width="2" d="M15.5 1v5"></path>
		</symbol>
	
		<symbol id="logo" viewBox="">
			<path d="M19.452 105.953c-5.66-10.236-8.886-22.01-8.886-34.54C10.567 31.974 42.491.002 81.871.002c39.38 0 71.303 31.972 71.303 71.412 0 12.47-3.195 24.19-8.804 34.393h-35.724s26.486-6.267 34.489-21.278c8.004-15.01-7.567-26.086-13.971-31.77-6.403-5.684-4.22-13.263-4.22-13.263h-5.675c.146 6.85 3.784 9.91 3.784 9.91-3.638-2.477-9.313-8.015-9.313-8.015l-2.911 5.828c4.51 1.75 10.187 4.956 10.187 4.956-2.765-1.166-10.187.729-10.187.729l3.346 4.663c7.569-6.266 22.709 3.935 23.576 13.408 1.746 19.093-48.75 22.153-48.75 22.153a190.434 190.434 0 0-3.536-34.63 NaNc35.81 NaN 48.469 NaN 55.877 NaN 4.802 NaN-3.638 NaN-3.638 NaNl4.802 NaNc3.928 NaN 3.638 NaN 3.638 NaN 2.182 NaN 2.619 NaN 2.619 NaNl6.257 NaNc-2.037 NaN-5.675 NaN-5.675 NaNC123.344 NaN 128 NaN 128 NaNl2.328 NaNc-3.638 NaN-12.805 NaN-12.805 NaN-9.004 NaN-26.456 NaN-32.968 NaN 16.485 NaN 26.274 NaN 26.274 NaN 5.239 NaN 11.787 NaN 11.787 NaNl-3.783 NaNc-2.91 NaN-6.984 NaN-6.984 NaN 1.891 NaN 1.891 NaN 1.891 NaNh-6.258c2.037 NaN.729 NaN.729 NaN-.729 NaN-6.112 NaN-6.112 NaNl-4.075 NaNs6.694 NaN 7.276 NaNc.763 NaN-16.259 NaN-22.087 NaN-1.18 NaN-2.07 NaN-2.07 NaNl2.862 NaN 6.598 NaN 2.037 NaN-7.293 NaN 2.307 NaN 7.606 NaN-2.474 NaN-5.914 NaN-5.515 NaN 5.753 NaN-6.985 NaN-2.078 NaN-5.353 NaN-.717 NaN-7.13 NaN 4.573 NaN-2.724 NaN-7.379 NaN-3.493 NaN 9.707 NaN-3.069 NaN-8.239 NaN 1.02 NaN 9.365 NaN 3.46 NaN-5.986 NaN 6.84 NaN 2.403 NaN 4.435 NaNc7.13 NaN-4.656 NaN-4.656 NaNS53.35 NaN 43.02 NaNc-9.022 NaN 1.311 NaN 5.676 NaN 4.172 NaN 17.17 NaN 17.17 NaN 0 NaN-13.096 NaN-13.096 NaNl5.821 NaNc20.373 NaN 13.388 NaN-3.055 NaN-16.444 NaN-35.944 NaN-35.944 NaN 0 NaN 12.223 NaN 12.223 NaNH19.452vNaNzm48.25-72.968l9.686 5.413 4.895-10.62-9.688-4.8-4.894 10.007z" fill="url(#a)"></path><defs><linearGradient id="a" x1="81.87" y1=".002" x2="81.87" y2="105.953" gradientUnits="userSpaceOnUse"><stop stop-color="#FACD59"></stop><stop offset="1" stop-color="#DC3D1A"></stop></linearGradient></defs>
		</symbol>
	
		<symbol id="mail" viewBox="">
			<path stroke="#7AAD16" stroke-width="1.5" d="M.75 1.75h15.5v10.5H.75z"></path><path d="M16.5 1.5L8.5 8l-8-6.5" stroke="#7AAD16" stroke-width="1.5"></path>
		</symbol>
	
		<symbol id="man_green" viewBox="">
			<path d="M87.458 149s-3.922-6.733-6.71-13.896H64.51s-.045 5.415 1.53 13.896h-8.357c-2.873-34.468 4.06-66.788 6.572-79.445-6.755-.171-24.885.371-35.495 10.26-6.877 6.41 5.21 16.127 5.21 16.127l-6.877 4.964c-5.626-6.825-5.21-13.854-5.21-13.854-3.126 5.582-3.75 13.854-3.75 13.854L9.17 97.805c2.918-7.859 8.129-12.2 8.129-12.2-7.295 0-13.964 4.754-13.964 4.754L0 82.915c5.21-2.274 18.34-2.48 18.34-2.48 12.896-14.956 37.892-17.49 47.218-17.91C41.946 53.228 27.927 32.67 27.927 32.67c-7.503-3.1-16.88-10.959-16.88-10.959l5.417-6.202c4.168 8.476 10.003 11.166 10.003 11.166-2.709-5.79-2.709-16.335-2.709-16.335h8.962c-2.917 6.41-1.043 15.094-1.043 15.094C32.72 20.471 40.431 12.2 40.431 12.2l5.836 5.79s-9.587 4.549-10.42 12.2c-1.095 10.035 23.284 21.63 31.631 25.295 1.69-6.422 2.964-9.996 2.964-9.996l-4.099-8.532-9.45 6.464-2.917-7.65 10.447-2.81-3.305-6.879-10.894-1.063 3.544-9.511 8.47 6.615 7.898-4.046-8.24-10.84 10.005-3.93 2.977 12.34 7.666-3.928L83.574 0l10.212 4.549-6.548 9.745 3.9 7.744 10.568-9.013 5.003 10.133-13.903 2.187 4.395 8.722 11.8-.156-1.459 9.924-13.414-4.969-4.956 2.89 8.574 10.763-9.796 4.964-3.442-13.01-6.352 3.704C65.255 101.058 97.383 149 97.383 149h-9.925zm1.16-115.742l-6.436-13.111-12.738 6.287 6.436 13.914 12.738-7.09z" fill="#ACCD7E"></path>
		</symbol>
	
		<symbol id="man_orange" viewBox="">
			<path d="M12.521 66.725L0 66.434l4.15-11.028 10.793 6.221 7.967-4.617-10.283-10.49 10.43-5.933 3.256 14.45 8.973-5.2-.956-12.38 10.643.867-4.38 14.418 3.402 5.009 10.862-9.727 5.93 9.952-13.592 4.488 5.023 7.694c3.64-1.426 6.85-1.782 9.69-1.285.889-6.046 2.584-22.393-.994-43.182 0 0-2.467-8.311-8.915-7.367l2.277-6.612s5.5 1.701 7.776 6.424c0 0 1.139-5.857-3.414-13.036L65.276 0s4.361 10.768 1.896 19.835c0 0 4.363-2.267 5.5-9.257l4.931 5.29s-2.655 6.8-9.863 10.012c0 0 5.666 18.844 1.463 46.734.815.756 1.587 1.6 2.31 2.537 16.644-4.874 13.165-22.774 13.165-22.774-3.553.133-7.24 3.605-7.24 3.605l-3.688-6.01c3.956-2.604 9.432-2.917 9.432-2.917-4.363-2.617-9.105-.145-9.105-.145l-1.935-7.022c5.364-.734 9.654.801 9.654.801l2.882-3.604c2.883 3.873 4.572 8.373 4.572 8.373 6.614 22.927-7.148 32.394-14.197 35.637 10.54 22.447 7.55 67.407 7.55 67.407L77 149s3 7.5 2 16h-9c.949-8-1-15-1-15l-8 .5c-1.506 7.999-4 14.5-4 14.5h-9c30.293-79.33 5.135-87.25 1.141-87.917L40.42 82.04l7.502 9.487-7.935 3.579-3.684-10.78-7.087 3.932-.4 11.51-10.344-3.082 6.462-9.338-4.828-8.021-10.967 9.38-4.843-10.24 12.91-3.955-4.685-7.787zm16.513 12.769L43.387 71.8 35 58.903 21.5 66.54l7.534 12.953z" fill="#FFCF8E"></path>
		</symbol>
	
		<symbol id="man_orange_1" viewBox="">
			<path d="M28.667 109.057S42.37 97.25 50.797 76.139c-22.183 8.78-33.083-5.19-33.083-5.19C8.362 71.268 0 65.223 0 65.223l3.376-6.998c6.165 6.276 10.438 6.086 10.438 6.086C9.733 59.985 5.95 47.65 5.95 47.65l8.345-2.546c-.072 6.548 4.262 15.677 4.262 15.677-.364-4.664 4.364-13.178 4.364-13.178l6.995 3.437s-8.06 7.269-5.348 13.818c2.112 5.098 10.652 10.798 30.388-2.025a89.04 89.04 0 1.72-10.158 NaN NaNlNaN NaN NaN NaN NaN NaN NaN NaN NaN NaN NaN NaN NaN NaN NaN NaN NaN NaN NaN NaN NaN NaN NaN NaN NaN NaN NaN NaN NaN NaN NaN NaN NaN NaN NaN NaN NaN NaN NaN NaN NaN NaN NaN NaN NaN NaN NaN NaN NaN NaN NaN NaN NaN NaN NaN NaN NaN NaNa93.94 93.94 0 12.495 9.214 NaN NaNcNaN NaN NaN NaN NaN NaN NaN NaN NaN NaN NaN NaNlNaN NaNcNaN NaN NaN NaN NaN NaN NaN NaN NaN NaN NaN NaNlNaN NaNcNaN NaN NaN NaN NaN NaN NaN NaN NaN NaN NaN NaNlNaN NaNcNaN NaN NaN NaN NaN NaN NaN NaN NaN NaN NaN NaN NaN NaN NaN NaN NaN NaN NaN NaN NaN NaN NaN NaN NaN NaN NaN NaN NaN NaN NaN NaN NaN NaN NaN NaN NaN NaN NaN NaN NaN NaN NaN NaN NaN NaN NaN NaN NaN NaN NaN NaN NaN NaN NaN NaN NaN NaN NaN NaNlNaN NaNsNaN NaN NaN NaNzM73.82 35.401L63.177 22.838 51.085 33.227l10.868 13.44L73.82 35.4z" fill="#EBAC56"></path>
		</symbol>
	
		<symbol id="man_white" viewBox="">
			<path d="M77.482 20.291S79.957 6.141 79.254 0L71.1 1.133s2.684 8.441.59 16.041c0 0-2.703-6.792-9.46-12.302l-5.572 8.361s7.817 3.252 12.315 8.262c0 0-6.676-2.643-14.888 1.075l2.823 8.722s12.864-9.538 17.088-.359c2.651 5.765 2.92 19.49-10.34 32.36l-.112-.003c-3.572-2.176-7.796-3.189-12.777-2.74l.723-4.688 14.205-8.759-7.68-9.343-8.505 11.334-10.909-2.817 8.253-14.961-12.596-3.371.206 17.263-9.685-2.503-3.796-14.033-11.488 6.054 9.579 10.372-2.153 10.43-13.057-7.064L0 61.117l15.592.865-2.218 10.745L1.338 75.47l5.79 10.99 8.916-9.494 8.484 2.376-5.174 12.175 8.882 3.361 1.221-14.158 11.18 2.996 5.27 14.424 10.648-8.41-9.027-9.377 1.701-9.935c2.766.904 6.703 3.099 9.595 8.428 2.382 22.002-5.703 27.441-10.99 27.342C40.61 106.053 37.08 94.68 37.08 94.68l-6.048 5.577s6.045 8.545 10.553 10.23c0 0-10.29.371-16.382-2.587l-1 9.582s13.062 1.601 18.76-.629c0 0-1.552 4.415-9.916 7.899l5.175 6.506s9.038-5.814 12.527-15.436c0 0 6.11-1.725 11.267-8.575-.754 6.471-2.242 14.052-4.707 22.951-3.237-.16-9.854.16-13.826.958 0 0-.882 10.542 8.237 28.274a782.383 782.383 0 7.347-10.349 NaN NaNsNaN NaN NaN NaNcNaN NaN NaN NaN NaN NaN NaN NaN NaN NaN NaN NaNsNaN NaN NaN NaNhNaNsNaN NaN NaN NaNcNaN NaN NaN NaN NaN NaNzm-38.05 54.092l-16.98-5.041L26.237 52.2l16.272 4.397-3.077 17.786z" fill="#B87924"></path><path d="M77.482 20.291S79.957 6.141 79.254 0L71.1 1.133s2.684 8.441.59 16.041c0 0-2.703-6.792-9.46-12.302l-5.572 8.361s7.817 3.252 12.315 8.262c0 0-6.676-2.643-14.888 1.075l2.823 8.722s12.864-9.538 17.088-.359c2.651 5.765 2.92 19.49-10.34 32.36l-.112-.003c-3.572-2.176-7.796-3.189-12.777-2.74l.723-4.688 14.205-8.759-7.68-9.343-8.505 11.334-10.909-2.817 8.253-14.961-12.596-3.371.206 17.263-9.685-2.503-3.796-14.033-11.488 6.054 9.579 10.372-2.153 10.43-13.057-7.064L0 61.117l15.592.865-2.218 10.745L1.338 75.47l5.79 10.99 8.916-9.494 8.484 2.376-5.174 12.175 8.882 3.361 1.221-14.158 11.18 2.996 5.27 14.424 10.648-8.41-9.027-9.377 1.701-9.935c2.766.904 6.703 3.099 9.595 8.428 2.382 22.002-5.703 27.441-10.99 27.342C40.61 106.053 37.08 94.68 37.08 94.68l-6.048 5.577s6.045 8.545 10.553 10.23c0 0-10.29.371-16.382-2.587l-1 9.582s13.062 1.601 18.76-.629c0 0-1.552 4.415-9.916 7.899l5.175 6.506s9.038-5.814 12.527-15.436c0 0 6.11-1.725 11.267-8.575-.754 6.471-2.242 14.052-4.707 22.951-3.237-.16-9.854.16-13.826.958 0 0-.882 10.542 8.237 28.274a782.383 782.383 0 7.347-10.349 NaN NaNsNaN NaN NaN NaNcNaN NaN NaN NaN NaN NaN NaN NaN NaN NaN NaN NaNsNaN NaN NaN NaNhNaNsNaN NaN NaN NaNcNaN NaN NaN NaN NaN NaNzm-38.05 54.092l-16.98-5.041L26.237 52.2l16.272 4.397-3.077 17.786z" fill="#fff"></path>
		</symbol>
	
		<symbol id="phone" viewBox="">
			<rect x=".75" y=".75" width="12.5" height="20.5" rx="1.25" stroke="#000" stroke-width="1.5"></rect><path stroke="#000" stroke-width="2" d="M4 2h6"></path><path d="M5.929 7.571c1.31 1.31 3.142 4.715 0 7.858M7.5 6c1.833 1.833 4.4 6.6 0 11M4.357 9.143c.786.786 1.886 2.828 0 4.714" stroke="#000"></path>
		</symbol>
	
</svg>
