<svg xmlns="http://www.w3.org/2000/svg" xmlns:xlink="http://www.w3.org/1999/xlink" width="0" height="0" style="position:absolute">
	
		<symbol id="facebook" viewBox="0 0 12 23">
			<path d="M7.494 5.527v1.776h3.955l-.345 3.677h-3.61v11.187h-4.95V10.979H0V7.302h2.544V5.028C2.544 1.912 4.16.167 8.217.167c1.41 0 2.442.187 3.783.436l-.62 3.521c-.688-.125-1.616-.218-2.2-.218-1.582 0-1.686.624-1.686 1.62z" fill="#7AAD16"></path><path d="M7.494 5.527v1.776h3.955l-.345 3.677h-3.61v11.187h-4.95V10.979H0V7.302h2.544V5.028C2.544 1.912 4.16.167 8.217.167c1.41 0 2.442.187 3.783.436l-.62 3.521c-.688-.125-1.616-.218-2.2-.218-1.582 0-1.686.624-1.686 1.62z" fill="#FFC683"></path><path d="M7.494 5.527v1.776h3.955l-.345 3.677h-3.61v11.187h-4.95V10.979H0V7.302h2.544V5.028C2.544 1.912 4.16.167 8.217.167c1.41 0 2.442.187 3.783.436l-.62 3.521c-.688-.125-1.616-.218-2.2-.218-1.582 0-1.686.624-1.686 1.62z" fill="#E0581E"></path>
		</symbol>
	
		<symbol id="facebook_error" viewBox="0 0 12 22">
			<path d="M7.494 5.36v1.776h3.955l-.345 3.677h-3.61V22h-4.95V10.812H0V7.135h2.544V4.861C2.544 1.745 4.16 0 8.217 0c1.41 0 2.441.187 3.783.436l-.62 3.521c-.688-.125-1.616-.218-2.2-.218-1.582 0-1.686.624-1.686 1.62z" fill="#7AAD16"></path><path d="M7.494 5.36v1.776h3.955l-.345 3.677h-3.61V22h-4.95V10.812H0V7.135h2.544V4.861C2.544 1.745 4.16 0 8.217 0c1.41 0 2.441.187 3.783.436l-.62 3.521c-.688-.125-1.616-.218-2.2-.218-1.582 0-1.686.624-1.686 1.62z" fill="#C4C4C4"></path>
		</symbol>
	
		<symbol id="geo" viewBox="0 0 20 27">
			<path d="M9.93 25.167l-7.102-9.835A8.683 8.683 0 0 1 1 9.998c0-4.877 4.03-8.831 9-8.831s9 3.954 9 8.831a8.685 8.685 0 0 1-1.793 5.291L9.93 25.167zM10 6.884c-1.74 0-3.152 1.384-3.152 3.093 0 1.708 1.411 3.093 3.152 3.093s3.153-1.385 3.153-3.093c0-1.709-1.412-3.093-3.153-3.093z" stroke="#7AAD16" stroke-width="2" stroke-linecap="round" stroke-linejoin="round"></path>
		</symbol>
	
		<symbol id="homepage" viewBox="0 0 21 18">
			<path d="M4 16.5H3a1 1 0 0 0 1 1v-1zm12.5 0v1a1 1 0 0 0 1-1h-1zm0-7v-1a1 1 0 0 0-1 1h1zm3 0v1a1 1 0 0 0 .644-1.765L19.5 9.5zm-9.5-8l.644-.765a1 1 0 0 0-1.308.018L10 1.5zm-9 8l-.664-.747A1 1 0 0 0 1 10.5v-1zm3 0h1a1 1 0 0 0-1-1v1zm0 8h12.5v-2H4v2zm13.5-1v-7h-2v7h2zm-1-6h3v-2h-3v2zm3.644-1.765l-9.5-8-1.288 1.53 9.5 8 1.288-1.53zM9.336.753l-9 8 1.328 1.494 9-8L9.336.753zM1 10.5h3v-2H1v2zm2-1v7h2v-7H3z" fill="#C74C4D"></path><path d="M4 16.5H3a1 1 0 0 0 1 1v-1zm12.5 0v1a1 1 0 0 0 1-1h-1zm0-7v-1a1 1 0 0 0-1 1h1zm3 0v1a1 1 0 0 0 .644-1.765L19.5 9.5zm-9.5-8l.644-.765a1 1 0 0 0-1.308.018L10 1.5zm-9 8l-.664-.747A1 1 0 0 0 1 10.5v-1zm3 0h1a1 1 0 0 0-1-1v1zm0 8h12.5v-2H4v2zm13.5-1v-7h-2v7h2zm-1-6h3v-2h-3v2zm3.644-1.765l-9.5-8-1.288 1.53 9.5 8 1.288-1.53zM9.336.753l-9 8 1.328 1.494 9-8L9.336.753zM1 10.5h3v-2H1v2zm2-1v7h2v-7H3z" fill="#000"></path><path stroke="#C74C4D" stroke-width="2" d="M15.5 1v5"></path><path stroke="#000" stroke-width="2" d="M15.5 1v5"></path>
		</symbol>
	
		<symbol id="homepage_current" viewBox="0 0 21 18">
			<path d="M4 16.5H3a1 1 0 0 0 1 1v-1zm12.5 0v1a1 1 0 0 0 1-1h-1zm0-7v-1a1 1 0 0 0-1 1h1zm3 0v1a1 1 0 0 0 .644-1.765L19.5 9.5zm-9.5-8l.644-.765a1 1 0 0 0-1.308.018L10 1.5zm-9 8l-.664-.747A1 1 0 0 0 1 10.5v-1zm3 0h1a1 1 0 0 0-1-1v1zm0 8h12.5v-2H4v2zm13.5-1v-7h-2v7h2zm-1-6h3v-2h-3v2zm3.644-1.765l-9.5-8-1.288 1.53 9.5 8 1.288-1.53zM9.336.753l-9 8 1.328 1.494 9-8L9.336.753zM1 10.5h3v-2H1v2zm2-1v7h2v-7H3z" fill="#C74C4D"></path><path stroke="#C74C4D" stroke-width="2" d="M15.5 1v5"></path>
		</symbol>
	
		<symbol id="instagram" viewBox="0 0 25 26">
			<path d="M17.552.167H7.448C3.34.167 0 3.508 0 7.615v10.104c0 4.107 3.341 7.448 7.448 7.448h10.104c4.107 0 7.448-3.341 7.448-7.448V7.615C25 3.508 21.659.167 17.552.167zm4.933 17.552a4.933 4.933 0 0 1-4.933 4.933H7.448a4.933 4.933 0 0 1-4.933-4.933V7.615a4.933 4.933 0 0 1 4.933-4.933h10.104a4.933 4.933 0 0 1 4.933 4.933v10.104z" fill="#7AAD16"></path><path d="M17.552.167H7.448C3.34.167 0 3.508 0 7.615v10.104c0 4.107 3.341 7.448 7.448 7.448h10.104c4.107 0 7.448-3.341 7.448-7.448V7.615C25 3.508 21.659.167 17.552.167zm4.933 17.552a4.933 4.933 0 0 1-4.933 4.933H7.448a4.933 4.933 0 0 1-4.933-4.933V7.615a4.933 4.933 0 0 1 4.933-4.933h10.104a4.933 4.933 0 0 1 4.933 4.933v10.104z" fill="#FFC683"></path><path d="M17.552.167H7.448C3.34.167 0 3.508 0 7.615v10.104c0 4.107 3.341 7.448 7.448 7.448h10.104c4.107 0 7.448-3.341 7.448-7.448V7.615C25 3.508 21.659.167 17.552.167zm4.933 17.552a4.933 4.933 0 0 1-4.933 4.933H7.448a4.933 4.933 0 0 1-4.933-4.933V7.615a4.933 4.933 0 0 1 4.933-4.933h10.104a4.933 4.933 0 0 1 4.933 4.933v10.104z" fill="#E0581E"></path><path d="M12.5 6.201a6.473 6.473 0 0 0-6.466 6.466c0 3.565 2.9 6.466 6.466 6.466 3.565 0 6.466-2.9 6.466-6.466 0-3.565-2.9-6.466-6.466-6.466zm0 10.417a3.95 3.95 0 1 1 0-7.902 3.95 3.95 0 0 1 0 7.902z" fill="#7AAD16"></path><path d="M12.5 6.201a6.473 6.473 0 0 0-6.466 6.466c0 3.565 2.9 6.466 6.466 6.466 3.565 0 6.466-2.9 6.466-6.466 0-3.565-2.9-6.466-6.466-6.466zm0 10.417a3.95 3.95 0 1 1 0-7.902 3.95 3.95 0 0 1 0 7.902z" fill="#FFC683"></path><path d="M12.5 6.201a6.473 6.473 0 0 0-6.466 6.466c0 3.565 2.9 6.466 6.466 6.466 3.565 0 6.466-2.9 6.466-6.466 0-3.565-2.9-6.466-6.466-6.466zm0 10.417a3.95 3.95 0 1 1 0-7.902 3.95 3.95 0 0 1 0 7.902z" fill="#E0581E"></path><path d="M18.979 7.8a1.55 1.55 0 1 0 0-3.1 1.55 1.55 0 0 0 0 3.1z" fill="#7AAD16"></path><path d="M18.979 7.8a1.55 1.55 0 1 0 0-3.1 1.55 1.55 0 0 0 0 3.1z" fill="#FFC683"></path><path d="M18.979 7.8a1.55 1.55 0 1 0 0-3.1 1.55 1.55 0 0 0 0 3.1z" fill="#E0581E"></path>
		</symbol>
	
		<symbol id="instagram_error" viewBox="0 0 25 25">
			<path d="M17.552 0H7.448C3.34 0 0 3.341 0 7.448v10.104C0 21.66 3.341 25 7.448 25h10.104C21.66 25 25 21.659 25 17.552V7.448C25 3.34 21.659 0 17.552 0zm4.933 17.552a4.933 4.933 0 0 1-4.933 4.933H7.448a4.933 4.933 0 0 1-4.933-4.933V7.448a4.933 4.933 0 0 1 4.933-4.933h10.104a4.933 4.933 0 0 1 4.933 4.933v10.104z" fill="#7AAD16"></path><path d="M17.552 0H7.448C3.34 0 0 3.341 0 7.448v10.104C0 21.66 3.341 25 7.448 25h10.104C21.66 25 25 21.659 25 17.552V7.448C25 3.34 21.659 0 17.552 0zm4.933 17.552a4.933 4.933 0 0 1-4.933 4.933H7.448a4.933 4.933 0 0 1-4.933-4.933V7.448a4.933 4.933 0 0 1 4.933-4.933h10.104a4.933 4.933 0 0 1 4.933 4.933v10.104z" fill="#C4C4C4"></path><path d="M12.5 6.034A6.473 6.473 0 0 0 6.034 12.5c0 3.565 2.9 6.466 6.466 6.466 3.565 0 6.466-2.9 6.466-6.466 0-3.565-2.9-6.466-6.466-6.466zm0 10.417a3.95 3.95 0 1 1 0-7.902 3.95 3.95 0 0 1 0 7.902z" fill="#7AAD16"></path><path d="M12.5 6.034A6.473 6.473 0 0 0 6.034 12.5c0 3.565 2.9 6.466 6.466 6.466 3.565 0 6.466-2.9 6.466-6.466 0-3.565-2.9-6.466-6.466-6.466zm0 10.417a3.95 3.95 0 1 1 0-7.902 3.95 3.95 0 0 1 0 7.902z" fill="#C4C4C4"></path><path d="M18.979 7.632a1.55 1.55 0 1 0 0-3.099 1.55 1.55 0 0 0 0 3.1z" fill="#7AAD16"></path><path d="M18.979 7.632a1.55 1.55 0 1 0 0-3.099 1.55 1.55 0 0 0 0 3.1z" fill="#C4C4C4"></path>
		</symbol>
	
		<symbol id="interso" viewBox="0 0 90 21">
			<path fill-rule="evenodd" clip-rule="evenodd" d="M70.24 16.646h-2.4v-4.089h2.4c.455.992 1.73 1.78 2.464 1.78 1.097 0 1.608-.23 1.608-.923 0-.414-.518-.793-1.556-1.14-.32-.108-1.734-.463-1.867-.499-1.2-.32-2.006-.7-2.429-1.14-.462-.485-.691-1.226-.691-2.22 0-1.059.367-1.903 1.105-2.526.738-.62 1.743-.932 3.01-.932.95 0 2.012.21 3.026.792v-.63h2.305v3.782H74.91c-.53-1.122-1.577-1.74-2.554-1.74-.657 0-1.26.215-1.26 1.006 0 .418.469.788 1.404 1.113.394.137 1.858.47 1.99.502 1.118.241 1.926.626 2.42 1.168.495.537.745 1.289.745 2.26 0 1.1-.37 1.98-1.109 2.642-.737.663-1.725.998-2.962.998-1.044 0-2.275-.324-3.344-.913v.709zm7.795-5.741c0-1.84.535-3.294 1.612-4.353 1.076-1.063 2.533-1.595 4.38-1.595 1.856 0 3.318.533 4.378 1.595C89.469 7.61 90 9.065 90 10.905c0 1.838-.537 3.293-1.605 4.365-1.07 1.066-2.533 1.602-4.387 1.602-1.85 0-3.306-.532-4.373-1.6-1.07-1.067-1.601-2.52-1.601-4.367zm3.342-.025c0 1.212.224 2.127.664 2.748.446.618 1.103.925 1.968.925.868 0 1.53-.312 1.977-.934.448-.619.674-1.534.674-2.74 0-1.214-.22-2.122-.663-2.736-.44-.61-1.095-.913-1.97-.913-.866 0-1.53.307-1.976.92-.45.613-.674 1.523-.674 2.73zm-16.38-9.577h3.065l-5.68 18.864H59.32l5.678-18.864zm-5.172 0h3.062L57.21 20.167h-3.064l5.68-18.864z" fill="#5E5E5E"></path><path fill-rule="evenodd" clip-rule="evenodd" d="M53.602 16.654h-3.65v-3.65h3.65v3.65zm-13.496-9.31h-1.552v-2.23h4.824V6.48c.82-1.556 3.333-1.88 4.913-1.576v2.74c-1.366-.225-3.082-.1-4.04 1.064-.584.708-.873 1.704-.873 3.205v2.434h1.638v2.308h-4.91v-9.31zM26.95 10.893c0-1.882.521-3.366 1.564-4.451 1.043-1.087 2.47-1.633 4.268-1.633 1.845 0 3.263.517 4.262 1.541.998 1.027 1.496 2.494 1.496 4.403 0 .112-.012.738-.049 1.031l-8.218.014c0 .904.222 1.602.675 2.089.446.489 1.096.732 1.933.732.61 0 1.122-.127 1.528-.389.404-.26.715-.649.933-1.176h3.055c-.278 1.309-.857 2.29-1.74 2.936-.884.645-2.096.967-3.631.967-1.924 0-3.418-.528-4.484-1.593-1.195-1.2-1.592-2.815-1.592-4.471zm3.347-1.207h4.995v-.257c0-.687-.23-1.248-.693-1.675-.469-.435-1.065-.651-1.791-.651-.743 0-1.345.238-1.815.71-.463.473-.696 1.098-.696 1.873zm-3.322-2.292h-2.406v5.884c0 .373.064.642.192.811.127.17.334.257.61.257l1.604-.003v2.587c-.183.018-1.909.027-2.106.027-1.237 0-2.139-.247-2.714-.741-.577-.502-.86-1.28-.86-2.338V7.393h-1.842v-2.28h1.841V2.436h3.275v2.677h2.406v2.28zm26.627 1.345h-3.65V5.113h3.65v3.625zM1.562 7.345H0V5.113h4.853v9.233h2.726V7.346H6.014V5.113h4.752v1.213c1.57-1.635 5.596-2.15 7.146-.444.644.716.967 1.833.967 3.349v5.115h1.537v2.308h-4.811V9.642c0-3.302-4.766-2.24-4.766.97v3.734h1.763v2.308H1.562v-9.31zm3.29-3.905H1.42V.167h3.433V3.44z" fill="#E0581E"></path>
		</symbol>
	
		<symbol id="logo" viewBox="0 0 143 106">
			<path d="M8.886 105.951C3.226 95.715 0 83.941 0 71.411 0 31.972 31.925 0 71.304 0c39.38 0 71.303 31.972 71.303 71.412 0 12.47-3.194 24.19-8.804 34.393H98.08s26.485-6.267 34.488-21.278c8.005-15.01-7.567-26.086-13.971-31.77-6.402-5.684-4.219-13.263-4.219-13.263h-5.676c.147 6.85 3.784 9.91 3.784 9.91-3.637-2.477-9.313-8.015-9.313-8.015l-2.911 5.829c4.51 1.75 10.187 4.955 10.187 4.955-2.764-1.166-10.187.728-10.187.728l3.347 4.664c7.568-6.266 22.709 3.935 23.575 13.409 1.746 19.092-48.75 22.152-48.75 22.152a190.432 190.432 0 0 0-3.535-34.63c4.716-.12 17.375.262 24.783 7.232 4.801 4.518-3.638 11.367-3.638 11.367l4.802 3.497c3.928-4.809 3.637-9.763 3.637-9.763 2.183 3.934 2.619 9.763 2.619 9.763l6.258-2.185c-2.037-5.538-5.676-8.598-5.676-8.598 5.094 0 9.75 3.351 9.75 3.351l2.328-5.247c-3.638-1.603-12.805-1.748-12.805-1.748-9.005-10.54-26.457-12.327-32.968-12.623C90.474 46.99 100.263 32.5 100.263 32.5c5.239-2.186 11.786-7.725 11.786-7.725l-3.783-4.371c-2.91 5.974-6.984 7.87-6.984 7.87 1.891-4.081 1.891-11.513 1.891-11.513h-6.257c2.037 4.518.728 10.638.728 10.638-.728-3.498-6.112-9.327-6.112-9.327l-4.075 4.081s6.695 3.206 7.277 8.598c.763 7.074-16.26 15.246-22.087 17.829-1.18-4.526-2.07-7.045-2.07-7.045l2.862-6.014 6.598 4.556 2.037-5.392-7.294-1.98 2.307-4.848 7.607-.75-2.475-6.703-5.913 4.663-5.515-2.852 5.753-7.64-6.985-2.77-2.079 8.697-5.353-2.768-.716-8.26-7.13 3.206 4.572 6.869-2.724 5.458-7.378-6.353-3.493 7.142 9.707 1.54-3.07 6.148-8.238-.11 1.019 6.995 9.366-3.503 3.46 2.037-5.986 7.586 6.839 3.498 2.403-9.169 4.436 2.61c7.13 33.812-4.656 49.26-4.656 49.26s-17.754 1.264-28.086-6.412c-9.022-6.704 1.312-17.634 5.676-20.695 4.173-2.926 17.17-4.08 17.17 2.769 0 6.85-13.095 7.87-13.095 7.87l5.821 8.307c20.373-8.744 13.387-27.982-3.056-27.982S9.024 73.597 9.024 86.567c0 11.222 12.223 19.383 12.223 19.383H8.886v.001zm48.249-72.968l9.687 5.413 4.894-10.62-9.687-4.8-4.894 10.007z" fill="url(#a)"></path><defs><linearGradient id="a" x1="71.304" x2="71.304" y2="105.951" gradientUnits="userSpaceOnUse"><stop stop-color="#FACD59"></stop><stop offset="1" stop-color="#DC3D1A"></stop></linearGradient></defs>
		</symbol>
	
		<symbol id="mail" viewBox="0 0 22 17">
			<path stroke="#E0581E" stroke-width="1.5" stroke-linejoin="round" d="M.75.917h20.5v14.5H.75z"></path><path stroke="#E0581E" stroke-width="1.5" stroke-linejoin="round" d="M.75.917h20.5v14.5H.75z"></path><path d="M21.353.834L11 9.5.647.834" stroke="#E0581E" stroke-width="1.5" stroke-linejoin="round"></path><path d="M21.353.834L11 9.5.647.834" stroke="#E0581E" stroke-width="1.5" stroke-linejoin="round"></path>
		</symbol>
	
		<symbol id="phone" viewBox="0 0 16 26">
			<rect x=".75" y=".917" width="14.5" height="23.5" rx="1.25" stroke="#E0581E" stroke-width="1.5"></rect><rect x=".75" y=".917" width="14.5" height="23.5" rx="1.25" stroke="#E0581E" stroke-width="1.5"></rect><path stroke="#E0581E" stroke-width="2" d="M4.571 2.576h6.857M4.571 2.576h6.857"></path><path d="M6.775 8.771c1.497 1.488 3.592 5.357 0 8.929M6.775 8.771c1.497 1.488 3.592 5.357 0 8.929M8.571 6.985c2.095 2.083 5.029 7.5 0 12.5M8.571 6.985c2.095 2.083 5.029 7.5 0 12.5M4.98 10.557c.897.893 2.155 3.214 0 5.357M4.98 10.557c.897.893 2.155 3.214 0 5.357" stroke="#E0581E"></path>
		</symbol>
	
		<symbol id="vkontakte" viewBox="0 0 27 16">
			<path fill-rule="evenodd" clip-rule="evenodd" d="M26.76 13.546c.893 1.445-.992 1.557-.992 1.557l-3.606.05s-.775.149-1.795-.533c-1.348-.9-2.621-3.245-3.612-2.94-1.005.31-.973 2.42-.973 2.42s.007.45-.222.69c-.249.26-.736.313-.736.313H13.21s-3.56.21-6.697-2.97C3.093 8.665.073 1.784.073 1.784s-.174-.451.016-.67C.3.87.879.855.879.855L4.74.828s.363.06.622.246c.215.153.335.44.335.44S6.32 3.05 7.146 4.44c1.612 2.713 2.361 3.305 2.91 3.015.797-.423.558-3.834.558-3.834s.015-1.237-.401-1.79c-.322-.426-.93-.55-1.199-.585-.217-.029.14-.52.601-.739.695-.331 1.921-.35 3.37-.336 1.128.012 1.453.08 1.894.184 1.33.313.879 1.52.879 4.418 0 .927-.171 2.233.516 2.665.295.186 1.019.027 2.827-2.961.857-1.417 1.5-3.083 1.5-3.083s.14-.297.358-.424c.223-.13.524-.09.524-.09l4.06-.024s1.22-.142 1.418.395c.206.563-.457 1.877-2.115 4.03-2.724 3.535-3.027 3.204-.766 5.248 2.16 1.95 2.607 2.9 2.68 3.018z" fill="#7AAD16"></path><path fill-rule="evenodd" clip-rule="evenodd" d="M26.76 13.546c.893 1.445-.992 1.557-.992 1.557l-3.606.05s-.775.149-1.795-.533c-1.348-.9-2.621-3.245-3.612-2.94-1.005.31-.973 2.42-.973 2.42s.007.45-.222.69c-.249.26-.736.313-.736.313H13.21s-3.56.21-6.697-2.97C3.093 8.665.073 1.784.073 1.784s-.174-.451.016-.67C.3.87.879.855.879.855L4.74.828s.363.06.622.246c.215.153.335.44.335.44S6.32 3.05 7.146 4.44c1.612 2.713 2.361 3.305 2.91 3.015.797-.423.558-3.834.558-3.834s.015-1.237-.401-1.79c-.322-.426-.93-.55-1.199-.585-.217-.029.14-.52.601-.739.695-.331 1.921-.35 3.37-.336 1.128.012 1.453.08 1.894.184 1.33.313.879 1.52.879 4.418 0 .927-.171 2.233.516 2.665.295.186 1.019.027 2.827-2.961.857-1.417 1.5-3.083 1.5-3.083s.14-.297.358-.424c.223-.13.524-.09.524-.09l4.06-.024s1.22-.142 1.418.395c.206.563-.457 1.877-2.115 4.03-2.724 3.535-3.027 3.204-.766 5.248 2.16 1.95 2.607 2.9 2.68 3.018z" fill="#FFC683"></path><path fill-rule="evenodd" clip-rule="evenodd" d="M26.76 13.546c.893 1.445-.992 1.557-.992 1.557l-3.606.05s-.775.149-1.795-.533c-1.348-.9-2.621-3.245-3.612-2.94-1.005.31-.973 2.42-.973 2.42s.007.45-.222.69c-.249.26-.736.313-.736.313H13.21s-3.56.21-6.697-2.97C3.093 8.665.073 1.784.073 1.784s-.174-.451.016-.67C.3.87.879.855.879.855L4.74.828s.363.06.622.246c.215.153.335.44.335.44S6.32 3.05 7.146 4.44c1.612 2.713 2.361 3.305 2.91 3.015.797-.423.558-3.834.558-3.834s.015-1.237-.401-1.79c-.322-.426-.93-.55-1.199-.585-.217-.029.14-.52.601-.739.695-.331 1.921-.35 3.37-.336 1.128.012 1.453.08 1.894.184 1.33.313.879 1.52.879 4.418 0 .927-.171 2.233.516 2.665.295.186 1.019.027 2.827-2.961.857-1.417 1.5-3.083 1.5-3.083s.14-.297.358-.424c.223-.13.524-.09.524-.09l4.06-.024s1.22-.142 1.418.395c.206.563-.457 1.877-2.115 4.03-2.724 3.535-3.027 3.204-.766 5.248 2.16 1.95 2.607 2.9 2.68 3.018z" fill="#E0581E"></path>
		</symbol>
	
		<symbol id="vkontakte_error" viewBox="0 0 27 15">
			<path fill-rule="evenodd" clip-rule="evenodd" d="M26.76 13.379c.893 1.445-.992 1.557-.992 1.557l-3.606.05s-.775.149-1.795-.533c-1.348-.9-2.621-3.245-3.612-2.94-1.005.31-.973 2.42-.973 2.42s.007.45-.222.69c-.249.26-.736.313-.736.313H13.21s-3.56.21-6.697-2.97C3.093 8.498.073 1.617.073 1.617s-.174-.451.016-.67C.3.703.879.688.879.688L4.74.661s.363.06.622.246c.215.153.335.44.335.44s.623 1.535 1.449 2.925c1.613 2.713 2.362 3.305 2.91 3.015.797-.423.559-3.834.559-3.834s.015-1.237-.402-1.79c-.321-.426-.929-.55-1.198-.585-.217-.028.14-.52.601-.739.695-.331 1.921-.35 3.369-.336 1.129.012 1.454.08 1.895.184 1.33.313.878 1.52.878 4.418 0 .927-.17 2.233.517 2.665.295.186 1.019.027 2.827-2.961.857-1.417 1.5-3.083 1.5-3.083s.14-.297.358-.424c.223-.13.524-.09.524-.09l4.06-.024s1.22-.142 1.417.395c.207.563-.456 1.877-2.114 4.03-2.724 3.535-3.027 3.204-.766 5.248 2.159 1.95 2.607 2.9 2.68 3.018z" fill="#7AAD16"></path><path fill-rule="evenodd" clip-rule="evenodd" d="M26.76 13.379c.893 1.445-.992 1.557-.992 1.557l-3.606.05s-.775.149-1.795-.533c-1.348-.9-2.621-3.245-3.612-2.94-1.005.31-.973 2.42-.973 2.42s.007.45-.222.69c-.249.26-.736.313-.736.313H13.21s-3.56.21-6.697-2.97C3.093 8.498.073 1.617.073 1.617s-.174-.451.016-.67C.3.703.879.688.879.688L4.74.661s.363.06.622.246c.215.153.335.44.335.44s.623 1.535 1.449 2.925c1.613 2.713 2.362 3.305 2.91 3.015.797-.423.559-3.834.559-3.834s.015-1.237-.402-1.79c-.321-.426-.929-.55-1.198-.585-.217-.028.14-.52.601-.739.695-.331 1.921-.35 3.369-.336 1.129.012 1.454.08 1.895.184 1.33.313.878 1.52.878 4.418 0 .927-.17 2.233.517 2.665.295.186 1.019.027 2.827-2.961.857-1.417 1.5-3.083 1.5-3.083s.14-.297.358-.424c.223-.13.524-.09.524-.09l4.06-.024s1.22-.142 1.417.395c.207.563-.456 1.877-2.114 4.03-2.724 3.535-3.027 3.204-.766 5.248 2.159 1.95 2.607 2.9 2.68 3.018z" fill="#C4C4C4"></path>
		</symbol>
	
</svg>
