<svg width="12" height="22" viewBox="0 0 12 22" fill="none" xmlns="http://www.w3.org/2000/svg">
<path d="M7.49422 5.35954V7.13642H11.449L11.1036 10.8132H7.49422V22H2.54433V10.8122H0V7.13549H2.54433V4.86104C2.54433 1.7452 4.16037 0 8.21691 0C9.62632 0 10.6584 0.187286 12 0.436068L11.3801 3.95722C10.6924 3.83237 9.76407 3.73919 9.17913 3.73919C7.59805 3.73919 7.49422 4.36254 7.49422 5.35954Z" fill="#7AAD16"/>
<path d="M7.49422 5.35954V7.13642H11.449L11.1036 10.8132H7.49422V22H2.54433V10.8122H0V7.13549H2.54433V4.86104C2.54433 1.7452 4.16037 0 8.21691 0C9.62632 0 10.6584 0.187286 12 0.436068L11.3801 3.95722C10.6924 3.83237 9.76407 3.73919 9.17913 3.73919C7.59805 3.73919 7.49422 4.36254 7.49422 5.35954Z" fill="#C4C4C4"/>
</svg>
