<svg width="12" height="23" viewBox="0 0 12 23" fill="none" xmlns="http://www.w3.org/2000/svg">
<path d="M7.49434 5.52653V7.30341H11.4491L11.1037 10.9802H7.49434V22.167H2.54446V10.9792H0.00012207V7.30248H2.54446V5.02803C2.54446 1.9122 4.16049 0.166992 8.21703 0.166992C9.62644 0.166992 10.6586 0.354278 12.0001 0.60306L11.3802 4.12421C10.6925 3.99936 9.76419 3.90618 9.17925 3.90618C7.59817 3.90618 7.49434 4.52953 7.49434 5.52653Z" fill="#7AAD16"/>
<path d="M7.49434 5.52653V7.30341H11.4491L11.1037 10.9802H7.49434V22.167H2.54446V10.9792H0.00012207V7.30248H2.54446V5.02803C2.54446 1.9122 4.16049 0.166992 8.21703 0.166992C9.62644 0.166992 10.6586 0.354278 12.0001 0.60306L11.3802 4.12421C10.6925 3.99936 9.76419 3.90618 9.17925 3.90618C7.59817 3.90618 7.49434 4.52953 7.49434 5.52653Z" fill="#FFC683"/>
<path d="M7.49434 5.52653V7.30341H11.4491L11.1037 10.9802H7.49434V22.167H2.54446V10.9792H0.00012207V7.30248H2.54446V5.02803C2.54446 1.9122 4.16049 0.166992 8.21703 0.166992C9.62644 0.166992 10.6586 0.354278 12.0001 0.60306L11.3802 4.12421C10.6925 3.99936 9.76419 3.90618 9.17925 3.90618C7.59817 3.90618 7.49434 4.52953 7.49434 5.52653Z" fill="#E0581E"/>
</svg>
