<svg width="21" height="18" viewBox="0 0 21 18" fill="none" xmlns="http://www.w3.org/2000/svg">
<path d="M4 16.5H3C3 17.0523 3.44772 17.5 4 17.5V16.5ZM16.5 16.5V17.5C17.0523 17.5 17.5 17.0523 17.5 16.5H16.5ZM16.5 9.5V8.5C15.9477 8.5 15.5 8.94772 15.5 9.5H16.5ZM19.5 9.5V10.5C19.9201 10.5 20.2954 10.2375 20.4394 9.84285C20.5834 9.44823 20.4655 9.00567 20.1441 8.73509L19.5 9.5ZM10 1.5L10.6441 0.735089C10.2642 0.415113 9.70691 0.422566 9.33564 0.752591L10 1.5ZM1 9.5L0.335636 8.75259C0.0253267 9.02842 -0.0822686 9.4673 0.0652783 9.85538C0.212825 10.2435 0.58482 10.5 1 10.5L1 9.5ZM4 9.5H5C5 8.94772 4.55228 8.5 4 8.5V9.5ZM4 17.5H16.5V15.5H4V17.5ZM17.5 16.5V9.5H15.5V16.5H17.5ZM16.5 10.5H19.5V8.5H16.5V10.5ZM20.1441 8.73509L10.6441 0.735089L9.35586 2.26491L18.8559 10.2649L20.1441 8.73509ZM9.33564 0.752591L0.335636 8.75259L1.66436 10.2474L10.6644 2.24741L9.33564 0.752591ZM1 10.5H4V8.5H1V10.5ZM3 9.5V16.5H5V9.5H3Z" fill="#C74C4D"/>
<line x1="15.5" y1="1" x2="15.5" y2="6" stroke="#C74C4D" stroke-width="2"/>
</svg>
