<svg width="25" height="25" viewBox="0 0 25 25" fill="none" xmlns="http://www.w3.org/2000/svg">
<path d="M17.5524 0H7.44764C3.34099 0 0 3.34099 0 7.44764V17.5524C0 21.659 3.34099 25 7.44764 25H17.5524C21.659 25 25 21.659 25 17.5524V7.44764C25 3.34099 21.659 0 17.5524 0ZM22.485 17.5524C22.485 20.2766 20.2766 22.485 17.5524 22.485H7.44764C4.72344 22.485 2.515 20.2766 2.515 17.5524V7.44764C2.515 4.72339 4.72344 2.515 7.44764 2.515H17.5524C20.2766 2.515 22.485 4.72339 22.485 7.44764V17.5524Z" fill="#7AAD16"/>
<path d="M17.5524 0H7.44764C3.34099 0 0 3.34099 0 7.44764V17.5524C0 21.659 3.34099 25 7.44764 25H17.5524C21.659 25 25 21.659 25 17.5524V7.44764C25 3.34099 21.659 0 17.5524 0ZM22.485 17.5524C22.485 20.2766 20.2766 22.485 17.5524 22.485H7.44764C4.72344 22.485 2.515 20.2766 2.515 17.5524V7.44764C2.515 4.72339 4.72344 2.515 7.44764 2.515H17.5524C20.2766 2.515 22.485 4.72339 22.485 7.44764V17.5524Z" fill="#C4C4C4"/>
<path d="M12.4999 6.03418C8.93465 6.03418 6.03406 8.93477 6.03406 12.5C6.03406 16.0653 8.93465 18.9659 12.4999 18.9659C16.0652 18.9659 18.9658 16.0653 18.9658 12.5C18.9658 8.93473 16.0652 6.03418 12.4999 6.03418ZM12.4999 16.451C10.3179 16.451 8.54906 14.6821 8.54906 12.5001C8.54906 10.318 10.318 8.54918 12.4999 8.54918C14.682 8.54918 16.4508 10.318 16.4508 12.5001C16.4508 14.6821 14.6819 16.451 12.4999 16.451Z" fill="#7AAD16"/>
<path d="M12.4999 6.03418C8.93465 6.03418 6.03406 8.93477 6.03406 12.5C6.03406 16.0653 8.93465 18.9659 12.4999 18.9659C16.0652 18.9659 18.9658 16.0653 18.9658 12.5C18.9658 8.93473 16.0652 6.03418 12.4999 6.03418ZM12.4999 16.451C10.3179 16.451 8.54906 14.6821 8.54906 12.5001C8.54906 10.318 10.318 8.54918 12.4999 8.54918C14.682 8.54918 16.4508 10.318 16.4508 12.5001C16.4508 14.6821 14.6819 16.451 12.4999 16.451Z" fill="#C4C4C4"/>
<path d="M18.9786 7.63217C19.8342 7.63217 20.5279 6.9385 20.5279 6.08281C20.5279 5.22712 19.8342 4.53345 18.9786 4.53345C18.1229 4.53345 17.4292 5.22712 17.4292 6.08281C17.4292 6.9385 18.1229 7.63217 18.9786 7.63217Z" fill="#7AAD16"/>
<path d="M18.9786 7.63217C19.8342 7.63217 20.5279 6.9385 20.5279 6.08281C20.5279 5.22712 19.8342 4.53345 18.9786 4.53345C18.1229 4.53345 17.4292 5.22712 17.4292 6.08281C17.4292 6.9385 18.1229 7.63217 18.9786 7.63217Z" fill="#C4C4C4"/>
</svg>
