<svg width="25" height="26" viewBox="0 0 25 26" fill="none" xmlns="http://www.w3.org/2000/svg">
<path d="M17.5524 0.166992H7.44764C3.34099 0.166992 0 3.50798 0 7.61463V17.7194C0 21.826 3.34099 25.167 7.44764 25.167H17.5524C21.659 25.167 25 21.826 25 17.7194V7.61463C25 3.50798 21.659 0.166992 17.5524 0.166992ZM22.485 17.7194C22.485 20.4436 20.2766 22.652 17.5524 22.652H7.44764C4.72344 22.652 2.515 20.4436 2.515 17.7194V7.61463C2.515 4.89039 4.72344 2.68199 7.44764 2.68199H17.5524C20.2766 2.68199 22.485 4.89039 22.485 7.61463V17.7194Z" fill="#7AAD16"/>
<path d="M17.5524 0.166992H7.44764C3.34099 0.166992 0 3.50798 0 7.61463V17.7194C0 21.826 3.34099 25.167 7.44764 25.167H17.5524C21.659 25.167 25 21.826 25 17.7194V7.61463C25 3.50798 21.659 0.166992 17.5524 0.166992ZM22.485 17.7194C22.485 20.4436 20.2766 22.652 17.5524 22.652H7.44764C4.72344 22.652 2.515 20.4436 2.515 17.7194V7.61463C2.515 4.89039 4.72344 2.68199 7.44764 2.68199H17.5524C20.2766 2.68199 22.485 4.89039 22.485 7.61463V17.7194Z" fill="#FFC683"/>
<path d="M17.5524 0.166992H7.44764C3.34099 0.166992 0 3.50798 0 7.61463V17.7194C0 21.826 3.34099 25.167 7.44764 25.167H17.5524C21.659 25.167 25 21.826 25 17.7194V7.61463C25 3.50798 21.659 0.166992 17.5524 0.166992ZM22.485 17.7194C22.485 20.4436 20.2766 22.652 17.5524 22.652H7.44764C4.72344 22.652 2.515 20.4436 2.515 17.7194V7.61463C2.515 4.89039 4.72344 2.68199 7.44764 2.68199H17.5524C20.2766 2.68199 22.485 4.89039 22.485 7.61463V17.7194Z" fill="#E0581E"/>
<path d="M12.4999 6.20117C8.93465 6.20117 6.03406 9.10176 6.03406 12.667C6.03406 16.2323 8.93465 19.1329 12.4999 19.1329C16.0652 19.1329 18.9658 16.2323 18.9658 12.667C18.9658 9.10172 16.0652 6.20117 12.4999 6.20117ZM12.4999 16.618C10.3179 16.618 8.54906 14.8491 8.54906 12.6671C8.54906 10.485 10.318 8.71617 12.4999 8.71617C14.682 8.71617 16.4508 10.485 16.4508 12.6671C16.4508 14.849 14.6819 16.618 12.4999 16.618Z" fill="#7AAD16"/>
<path d="M12.4999 6.20117C8.93465 6.20117 6.03406 9.10176 6.03406 12.667C6.03406 16.2323 8.93465 19.1329 12.4999 19.1329C16.0652 19.1329 18.9658 16.2323 18.9658 12.667C18.9658 9.10172 16.0652 6.20117 12.4999 6.20117ZM12.4999 16.618C10.3179 16.618 8.54906 14.8491 8.54906 12.6671C8.54906 10.485 10.318 8.71617 12.4999 8.71617C14.682 8.71617 16.4508 10.485 16.4508 12.6671C16.4508 14.849 14.6819 16.618 12.4999 16.618Z" fill="#FFC683"/>
<path d="M12.4999 6.20117C8.93465 6.20117 6.03406 9.10176 6.03406 12.667C6.03406 16.2323 8.93465 19.1329 12.4999 19.1329C16.0652 19.1329 18.9658 16.2323 18.9658 12.667C18.9658 9.10172 16.0652 6.20117 12.4999 6.20117ZM12.4999 16.618C10.3179 16.618 8.54906 14.8491 8.54906 12.6671C8.54906 10.485 10.318 8.71617 12.4999 8.71617C14.682 8.71617 16.4508 10.485 16.4508 12.6671C16.4508 14.849 14.6819 16.618 12.4999 16.618Z" fill="#E0581E"/>
<path d="M18.9786 7.79916C19.8342 7.79916 20.5279 7.10549 20.5279 6.2498C20.5279 5.39411 19.8342 4.70044 18.9786 4.70044C18.1229 4.70044 17.4292 5.39411 17.4292 6.2498C17.4292 7.10549 18.1229 7.79916 18.9786 7.79916Z" fill="#7AAD16"/>
<path d="M18.9786 7.79916C19.8342 7.79916 20.5279 7.10549 20.5279 6.2498C20.5279 5.39411 19.8342 4.70044 18.9786 4.70044C18.1229 4.70044 17.4292 5.39411 17.4292 6.2498C17.4292 7.10549 18.1229 7.79916 18.9786 7.79916Z" fill="#FFC683"/>
<path d="M18.9786 7.79916C19.8342 7.79916 20.5279 7.10549 20.5279 6.2498C20.5279 5.39411 19.8342 4.70044 18.9786 4.70044C18.1229 4.70044 17.4292 5.39411 17.4292 6.2498C17.4292 7.10549 18.1229 7.79916 18.9786 7.79916Z" fill="#E0581E"/>
</svg>
