<svg width="90" height="21" viewBox="0 0 90 21" fill="none" xmlns="http://www.w3.org/2000/svg">
<path fill-rule="evenodd" clip-rule="evenodd" d="M70.2404 16.6458H67.8395V12.5574H70.2404C70.6942 13.5486 71.9692 14.3366 72.7038 14.3366C73.8004 14.3366 74.3113 14.1064 74.3113 13.4135C74.3113 12.9996 73.7932 12.6213 72.7559 12.2734C72.4349 12.1656 71.0212 11.8105 70.8892 11.7752C69.6886 11.4548 68.8826 11.0754 68.4597 10.6356C67.9981 10.1498 67.7681 9.40948 67.7681 8.41413C67.7681 7.35646 68.1359 6.51248 68.8738 5.8888C69.6111 5.26925 70.617 4.95686 71.8837 4.95686C72.8336 4.95686 73.8952 5.16669 74.9094 5.74873V5.11926H77.2148V8.90105H74.9094C74.38 7.77859 73.333 7.16125 72.3561 7.16125C71.6984 7.16125 71.096 7.37631 71.096 8.1668C71.096 8.58452 71.5644 8.95537 72.4995 9.27989C72.8938 9.41665 74.3579 9.75054 74.49 9.7817C75.6075 10.023 76.4157 10.4076 76.9096 10.9497C77.4051 11.487 77.6543 12.2386 77.6543 13.2097C77.6543 14.3104 77.2843 15.1905 76.5459 15.8517C75.8091 16.5145 74.8203 16.8498 73.5839 16.8498C72.5397 16.8498 71.3086 16.5256 70.2401 15.9366V16.6458H70.2404ZM78.0346 10.9047C78.0346 9.06538 78.5698 7.61067 79.6465 6.55163C80.7224 5.48928 82.18 4.95714 84.0271 4.95714C85.8825 4.95714 87.3445 5.48955 88.4044 6.55163C89.469 7.61067 90.0001 9.06538 90.0001 10.9047C90.0001 12.7427 89.4638 14.1976 88.3953 15.2696C87.3252 16.3359 85.863 16.8724 84.0089 16.8724C82.1596 16.8724 80.7029 16.34 79.6355 15.2727C78.5662 14.2054 78.0346 12.7526 78.0346 10.9047ZM81.3765 10.8796C81.3765 12.0925 81.6006 13.0071 82.041 13.628C82.4869 14.2459 83.1439 14.5533 84.0089 14.5533C84.8764 14.5533 85.5379 14.2415 85.9854 13.6192C86.434 13.0002 86.6601 12.0848 86.6601 10.8793C86.6601 9.66535 86.4403 8.75685 85.9961 8.14337C85.5566 7.53292 84.9017 7.22991 84.0271 7.22991C83.1605 7.22991 82.496 7.53733 82.0506 8.14998C81.6004 8.76346 81.3765 9.67334 81.3765 10.8796ZM64.9975 1.30273H68.0618L62.3811 20.167H59.3199L64.9975 1.30273ZM59.8247 1.30273H62.8868L57.2083 20.167H54.1451L59.8247 1.30273Z" fill="#5E5E5E"/>
<path fill-rule="evenodd" clip-rule="evenodd" d="M53.6018 16.6545H49.9517V13.0037H53.6018V16.6545ZM40.106 7.34483H38.5541V5.11342H43.3778V6.48045C44.1979 4.92373 46.7112 4.59921 48.2912 4.9036V7.64371C46.9249 7.419 45.209 7.54473 44.2511 8.70772C43.6668 9.41577 43.3778 10.4117 43.3778 11.9127V14.3465H45.016V16.6548H40.106V7.34483ZM26.9501 10.892C26.9501 9.00963 27.4712 7.52626 28.5135 6.44074C29.5574 5.35358 30.9835 4.8082 32.7816 4.8082C34.6271 4.8082 36.0452 5.3249 37.0442 6.34948C38.0421 7.37571 38.5398 8.8431 38.5398 10.7522C38.5398 10.8636 38.5282 11.4903 38.4913 11.7831L30.2727 11.7966C30.2727 12.7007 30.4952 13.3991 30.9485 13.8858C31.3941 14.3746 32.0435 14.6175 32.8806 14.6175C33.4916 14.6175 34.0026 14.4907 34.4087 14.229C34.8127 13.9699 35.1243 13.58 35.3418 13.0534H38.3972C38.119 14.3619 37.5403 15.3432 36.6565 15.9887C35.7733 16.6336 34.5612 16.9562 33.0259 16.9562C31.1016 16.9562 29.6076 16.4279 28.5425 15.3631C27.3472 14.1626 26.9501 12.5482 26.9501 10.892ZM30.297 9.68488H35.2922V9.42818C35.2922 8.74081 35.0614 8.17972 34.599 7.75345C34.13 7.31809 33.5341 7.10192 32.8075 7.10192C32.0653 7.10192 31.4631 7.34015 30.9932 7.81108C30.5302 8.28532 30.297 8.91038 30.297 9.68488ZM26.9746 7.39253H24.5691V13.277C24.5691 13.6495 24.6331 13.9188 24.7608 14.0884C24.8884 14.2577 25.0949 14.3446 25.3704 14.3446L26.9746 14.3424V16.9294C26.7921 16.9468 25.0663 16.9565 24.8686 16.9565C23.6322 16.9565 22.7302 16.7094 22.1548 16.215C21.5779 15.7132 21.2942 14.9357 21.2942 13.8769V7.39253H19.4531V5.11315H21.2942V2.43645H24.5691V5.11315H26.9746V7.39253ZM53.6018 8.73833H49.9517V5.11342H53.6018V8.73833ZM1.56259 7.34483H0V5.11342H4.85294V14.3465C5.76176 14.3465 6.67059 14.3465 7.57914 14.3465V7.34483H6.01379V5.11342H10.7664V6.32577C12.3367 4.6913 16.3616 4.17625 17.9118 5.88158C18.5562 6.5979 18.8793 7.71513 18.8793 9.23104V14.3462H20.4157V16.6545H15.6047V9.64159C15.6047 6.34038 10.8386 7.40136 10.8386 10.6127V14.3462H12.6019V16.6545C8.37629 16.6545 5.78741 16.6545 1.56149 16.6545C1.56149 13.5516 1.56259 10.4492 1.56259 7.34483ZM4.85294 3.44007H1.42004V0.166992H4.85294V3.44007Z" fill="#5F8F00"/>
<path fill-rule="evenodd" clip-rule="evenodd" d="M53.6018 16.6545H49.9517V13.0037H53.6018V16.6545ZM40.106 7.34483H38.5541V5.11342H43.3778V6.48045C44.1979 4.92373 46.7112 4.59921 48.2912 4.9036V7.64371C46.9249 7.419 45.209 7.54473 44.2511 8.70772C43.6668 9.41577 43.3778 10.4117 43.3778 11.9127V14.3465H45.016V16.6548H40.106V7.34483ZM26.9501 10.892C26.9501 9.00963 27.4712 7.52626 28.5135 6.44074C29.5574 5.35358 30.9835 4.8082 32.7816 4.8082C34.6271 4.8082 36.0452 5.3249 37.0442 6.34948C38.0421 7.37571 38.5398 8.8431 38.5398 10.7522C38.5398 10.8636 38.5282 11.4903 38.4913 11.7831L30.2727 11.7966C30.2727 12.7007 30.4952 13.3991 30.9485 13.8858C31.3941 14.3746 32.0435 14.6175 32.8806 14.6175C33.4916 14.6175 34.0026 14.4907 34.4087 14.229C34.8127 13.9699 35.1243 13.58 35.3418 13.0534H38.3972C38.119 14.3619 37.5403 15.3432 36.6565 15.9887C35.7733 16.6336 34.5612 16.9562 33.0259 16.9562C31.1016 16.9562 29.6076 16.4279 28.5425 15.3631C27.3472 14.1626 26.9501 12.5482 26.9501 10.892ZM30.297 9.68488H35.2922V9.42818C35.2922 8.74081 35.0614 8.17972 34.599 7.75345C34.13 7.31809 33.5341 7.10192 32.8075 7.10192C32.0653 7.10192 31.4631 7.34015 30.9932 7.81108C30.5302 8.28532 30.297 8.91038 30.297 9.68488ZM26.9746 7.39253H24.5691V13.277C24.5691 13.6495 24.6331 13.9188 24.7608 14.0884C24.8884 14.2577 25.0949 14.3446 25.3704 14.3446L26.9746 14.3424V16.9294C26.7921 16.9468 25.0663 16.9565 24.8686 16.9565C23.6322 16.9565 22.7302 16.7094 22.1548 16.215C21.5779 15.7132 21.2942 14.9357 21.2942 13.8769V7.39253H19.4531V5.11315H21.2942V2.43645H24.5691V5.11315H26.9746V7.39253ZM53.6018 8.73833H49.9517V5.11342H53.6018V8.73833ZM1.56259 7.34483H0V5.11342H4.85294V14.3465C5.76176 14.3465 6.67059 14.3465 7.57914 14.3465V7.34483H6.01379V5.11342H10.7664V6.32577C12.3367 4.6913 16.3616 4.17625 17.9118 5.88158C18.5562 6.5979 18.8793 7.71513 18.8793 9.23104V14.3462H20.4157V16.6545H15.6047V9.64159C15.6047 6.34038 10.8386 7.40136 10.8386 10.6127V14.3462H12.6019V16.6545C8.37629 16.6545 5.78741 16.6545 1.56149 16.6545C1.56149 13.5516 1.56259 10.4492 1.56259 7.34483ZM4.85294 3.44007H1.42004V0.166992H4.85294V3.44007Z" fill="#E0581E"/>
</svg>
