<svg width="166" height="106" viewBox="0 0 166 106" fill="none" xmlns="http://www.w3.org/2000/svg">
<path d="M19.4522 105.953C13.7926 95.717 10.5664 83.943 10.5664 71.4135C10.5671 31.9739 42.491 0.00195312 81.8708 0.00195312C121.251 0.00195312 153.174 31.9739 153.174 71.4135C153.174 83.8832 149.979 95.6047 144.37 105.807H108.646C108.646 105.807 135.132 99.5402 143.135 84.5292C151.139 69.5181 135.568 58.4426 129.164 52.7586C122.761 47.0746 124.944 39.496 124.944 39.496H119.269C119.415 46.3456 123.053 49.4066 123.053 49.4066C119.415 46.9291 113.74 41.3907 113.74 41.3907L110.829 47.2195C115.339 48.9693 121.016 52.1751 121.016 52.1751C118.251 51.0088 110.829 52.9035 110.829 52.9035L114.175 57.5674C121.744 51.3006 136.884 61.5016 137.751 70.9755C139.497 90.0676 89.0008 93.1279 89.0008 93.1279C88.8674 79.3576 87.2185 67.4188 85.4653 58.4984C90.1813 58.3775 102.84 58.7596 110.248 65.7295C115.05 70.2478 106.61 77.0968 106.61 77.0968L111.412 80.5943C115.34 75.7849 115.05 70.8306 115.05 70.8306C117.232 74.7648 117.669 80.5943 117.669 80.5943L123.926 78.4086C121.889 72.8708 118.251 69.8105 118.251 69.8105C123.344 69.8105 128 73.1619 128 73.1619L130.328 67.9152C126.69 66.3123 117.523 66.1668 117.523 66.1668C108.519 55.6262 91.0665 53.8399 84.5549 53.5441C101.04 46.9916 110.829 32.5015 110.829 32.5015C116.068 30.3158 122.616 24.7774 122.616 24.7774L118.833 20.4059C115.923 26.3803 111.849 28.2756 111.849 28.2756C113.74 24.1946 113.74 16.7628 113.74 16.7628H107.482C109.519 21.2805 108.211 27.401 108.211 27.401C107.482 23.9035 102.099 18.074 102.099 18.074L98.0239 22.155C98.0239 22.155 104.718 25.3609 105.3 30.7531C106.063 37.8266 89.0413 45.9994 83.2132 48.5819C82.0327 44.0562 81.1435 41.5369 81.1435 41.5369L84.0055 35.5233L90.6033 40.0795L92.6404 34.6873L85.3465 32.7069L87.6537 27.8589L95.2602 27.1093L92.7857 20.4059L86.8721 25.0684L81.3572 22.2168L87.1103 14.5764L80.125 11.8072L78.0467 20.5036L72.6937 17.7357L71.9771 9.4759L64.8471 12.6817L69.4197 19.5506L66.6958 25.0086L59.317 18.6561L55.824 25.7975L65.5313 27.3386L62.4623 33.4857L54.2235 33.3761L55.2421 40.3706L64.6082 36.8684L68.0687 38.9046L62.0821 46.4912L68.9214 49.9894L71.3248 40.8205L75.7601 43.4309C82.8907 77.2416 71.1045 92.69 71.1045 92.69C71.1045 92.69 53.3502 93.954 43.0186 86.2776C33.9968 79.5742 44.3304 68.6442 48.6947 65.5833C52.8672 62.6572 65.865 61.5022 65.865 68.3518C65.865 75.2014 52.769 76.2215 52.769 76.2215L58.5904 84.5285C78.9631 75.7849 71.9778 56.5473 55.5347 56.5473C39.091 56.5473 19.5909 73.5985 19.5909 86.5694C19.5909 97.7911 31.8137 105.952 31.8137 105.952H19.4522V105.953ZM67.7011 32.9853L77.3884 38.3982L82.2829 27.7779L72.5955 22.9777L67.7011 32.9853Z" fill="url(#paint0_linear)"/>
<defs>
<linearGradient id="paint0_linear" x1="81.8701" y1="0.00195312" x2="81.8701" y2="105.953" gradientUnits="userSpaceOnUse">
<stop stop-color="#FACD59"/>
<stop offset="1" stop-color="#DC3D1A"/>
</linearGradient>
</defs>
</svg>
