<svg width="143" height="106" viewBox="0 0 143 106" fill="none" xmlns="http://www.w3.org/2000/svg">
    <path d="M8.88576 105.951C3.22624 95.7151 0 83.9411 0 71.4115C0.000663562 31.9719 31.9246 0 71.3044 0C110.684 0 142.607 31.9719 142.607 71.4115C142.607 83.8813 139.413 95.6028 133.803 105.805H98.0798C98.0798 105.805 124.565 99.5383 132.568 84.5272C140.573 69.5162 125.001 58.4406 118.597 52.7567C112.195 47.0727 114.378 39.4941 114.378 39.4941H108.702C108.849 46.3437 112.486 49.4046 112.486 49.4046C108.849 46.9272 103.173 41.3887 103.173 41.3887L100.262 47.2176C104.772 48.9674 110.449 52.1732 110.449 52.1732C107.685 51.0069 100.262 52.9015 100.262 52.9015L103.609 57.5654C111.177 51.2986 126.318 61.4996 127.184 70.9736C128.93 90.0657 78.4344 93.126 78.4344 93.126C78.301 79.3556 76.6521 67.4168 74.8989 58.4965C79.6149 58.3755 92.2736 58.7576 99.6816 65.7275C104.483 70.2459 96.044 77.0948 96.044 77.0948L100.846 80.5924C104.774 75.783 104.483 70.8287 104.483 70.8287C106.666 74.7629 107.102 80.5924 107.102 80.5924L113.36 78.4066C111.323 72.8689 107.684 69.8086 107.684 69.8086C112.778 69.8086 117.434 73.16 117.434 73.16L119.762 67.9133C116.124 66.3103 106.957 66.1648 106.957 66.1648C97.9524 55.6242 80.5 53.8379 73.9885 53.5422C90.474 46.9896 100.263 32.4996 100.263 32.4996C105.502 30.3139 112.049 24.7754 112.049 24.7754L108.266 20.4039C105.356 26.3783 101.282 28.2737 101.282 28.2737C103.173 24.1926 103.173 16.7608 103.173 16.7608H96.9159C98.953 21.2785 97.6445 27.3991 97.6445 27.3991C96.9159 23.9015 91.5324 18.072 91.5324 18.072L87.4575 22.1531C87.4575 22.1531 94.1515 25.3589 94.7335 30.7511C95.4966 37.8247 78.4749 45.9974 72.6468 48.5799C71.4663 44.0543 70.5771 41.5349 70.5771 41.5349L73.4391 35.5213L80.0369 40.0775L82.074 34.6853L74.7801 32.7049L77.0873 27.857L84.6938 27.1074L82.2193 20.4039L76.3057 25.0665L70.7908 22.2149L76.5439 14.5744L69.5586 11.8052L67.4803 20.5016L62.1273 17.7338L61.4107 9.47395L54.2807 12.6798L58.8533 19.5487L56.1294 25.0067L48.7506 18.6542L45.2576 25.7955L54.9649 27.3366L51.8959 33.4838L43.6571 33.3741L44.6756 40.3686L54.0418 36.8664L57.5023 38.9026L51.5156 46.4892L58.355 49.9875L60.7584 40.8185L65.1937 43.4289C72.3243 77.2397 60.5381 92.688 60.5381 92.688C60.5381 92.688 42.7838 93.952 32.4522 86.2757C23.4304 79.5723 33.764 68.6423 38.1283 65.5813C42.3008 62.6553 55.2986 61.5003 55.2986 68.3499C55.2986 75.1995 42.2026 76.2196 42.2026 76.2196L48.024 84.5266C68.3967 75.783 61.4114 56.5453 44.9683 56.5453C28.5246 56.5453 9.02445 73.5966 9.02445 86.5674C9.02445 97.7892 21.2473 105.95 21.2473 105.95H8.88576V105.951ZM57.1347 32.9834L66.822 38.3962L71.7165 27.7759L62.0291 22.9758L57.1347 32.9834Z"
          fill="url(#paint0_linear)"/>
    <defs>
        <linearGradient id="paint0_linear" x1="71.3037" y1="0" x2="71.3037" y2="105.951" gradientUnits="userSpaceOnUse">
            <stop stop-color="#FACD59"/>
            <stop offset="1" stop-color="#DC3D1A"/>
        </linearGradient>
    </defs>
</svg>
