<svg width="84" height="183" viewBox="0 0 84 183" fill="none" xmlns="http://www.w3.org/2000/svg">
<path d="M77.4819 20.2912C77.4819 20.2912 79.957 6.14047 79.2545 0L71.1004 1.13272C71.1004 1.13272 73.7837 9.57395 71.6891 17.1745C71.6891 17.1745 68.9873 10.3817 62.2296 4.87234L56.6581 13.2335C56.6581 13.2335 64.475 16.4845 68.9732 21.4946C68.9732 21.4946 62.2969 18.8523 54.0853 22.5696L56.9085 31.2922C56.9085 31.2922 69.7723 21.7536 73.9962 30.9331C76.647 36.698 76.9159 50.4236 63.6564 63.2933L63.5437 63.2898C59.9724 61.1138 55.7484 60.1012 50.7666 60.5498L51.4898 55.8623L65.6947 47.1032L58.0144 37.76L49.5101 49.0943L38.6011 46.2766L46.8538 31.3158L34.2579 27.9447L34.4638 45.2075L24.7789 42.7054L20.9832 28.6724L9.49523 34.7257L19.0739 45.098L16.9208 55.5279L3.86401 48.4643L0 61.1173L15.5916 61.9816L13.3744 72.7271L1.33788 75.4694L7.12847 86.4599L16.0437 76.9648L24.5284 79.3409L19.3537 91.5159L28.2363 94.8775L29.4571 80.7186L40.6361 83.7152L45.9073 98.1391L56.5551 89.7297L47.5282 80.3524L49.2293 70.4169C51.995 71.3212 55.9317 73.516 58.8242 78.8452C61.2062 100.847 53.1215 106.286 47.8339 106.187C40.6111 106.053 37.0811 94.6797 37.0811 94.6797L31.0335 100.257C31.0335 100.257 37.0778 108.802 41.5858 110.487C41.5858 110.487 31.2959 110.858 25.2039 107.9L24.2032 117.482C24.2032 117.482 37.2664 119.083 42.9649 116.853C42.9649 116.853 41.4123 121.268 33.0479 124.752L38.2227 131.258C38.2227 131.258 47.2615 125.444 50.7504 115.822C50.7504 115.822 56.8608 114.097 62.0171 107.247C61.2626 113.718 59.7751 121.299 57.3096 130.198C54.0734 130.038 47.4556 130.358 43.4842 131.156C43.4842 131.156 42.6017 141.698 51.7207 159.43C55.9859 153.519 59.0682 149.081 59.0682 149.081C59.0682 149.081 54.0311 142.115 53.8847 139.399C56.2927 138.468 60.3323 139.056 60.2705 138.986C63.4309 149.149 70.5117 161.235 70.5117 161.235C70.5117 161.235 69.4096 170.292 64.6154 183H77.5385C77.5385 183 91.0222 98.3652 70.3447 69.754C91.8006 45.7939 82.8952 29.4201 77.4819 20.2912ZM39.4326 74.3826L22.4512 69.3419L26.2382 52.2004L42.5095 56.5971L39.4326 74.3826Z" fill="#B87924"/>
<path d="M77.4819 20.2912C77.4819 20.2912 79.957 6.14047 79.2545 0L71.1004 1.13272C71.1004 1.13272 73.7837 9.57395 71.6891 17.1745C71.6891 17.1745 68.9873 10.3817 62.2296 4.87234L56.6581 13.2335C56.6581 13.2335 64.475 16.4845 68.9732 21.4946C68.9732 21.4946 62.2969 18.8523 54.0853 22.5696L56.9085 31.2922C56.9085 31.2922 69.7723 21.7536 73.9962 30.9331C76.647 36.698 76.9159 50.4236 63.6564 63.2933L63.5437 63.2898C59.9724 61.1138 55.7484 60.1012 50.7666 60.5498L51.4898 55.8623L65.6947 47.1032L58.0144 37.76L49.5101 49.0943L38.6011 46.2766L46.8538 31.3158L34.2579 27.9447L34.4638 45.2075L24.7789 42.7054L20.9832 28.6724L9.49523 34.7257L19.0739 45.098L16.9208 55.5279L3.86401 48.4643L0 61.1173L15.5916 61.9816L13.3744 72.7271L1.33788 75.4694L7.12847 86.4599L16.0437 76.9648L24.5284 79.3409L19.3537 91.5159L28.2363 94.8775L29.4571 80.7186L40.6361 83.7152L45.9073 98.1391L56.5551 89.7297L47.5282 80.3524L49.2293 70.4169C51.995 71.3212 55.9317 73.516 58.8242 78.8452C61.2062 100.847 53.1215 106.286 47.8339 106.187C40.6111 106.053 37.0811 94.6797 37.0811 94.6797L31.0335 100.257C31.0335 100.257 37.0778 108.802 41.5858 110.487C41.5858 110.487 31.2959 110.858 25.2039 107.9L24.2032 117.482C24.2032 117.482 37.2664 119.083 42.9649 116.853C42.9649 116.853 41.4123 121.268 33.0479 124.752L38.2227 131.258C38.2227 131.258 47.2615 125.444 50.7504 115.822C50.7504 115.822 56.8608 114.097 62.0171 107.247C61.2626 113.718 59.7751 121.299 57.3096 130.198C54.0734 130.038 47.4556 130.358 43.4842 131.156C43.4842 131.156 42.6017 141.698 51.7207 159.43C55.9859 153.519 59.0682 149.081 59.0682 149.081C59.0682 149.081 54.0311 142.115 53.8847 139.399C56.2927 138.468 60.3323 139.056 60.2705 138.986C63.4309 149.149 70.5117 161.235 70.5117 161.235C70.5117 161.235 69.4096 170.292 64.6154 183H77.5385C77.5385 183 91.0222 98.3652 70.3447 69.754C91.8006 45.7939 82.8952 29.4201 77.4819 20.2912ZM39.4326 74.3826L22.4512 69.3419L26.2382 52.2004L42.5095 56.5971L39.4326 74.3826Z" fill="white"/>
</svg>
