<svg width="109" height="149" viewBox="0 0 109 149" fill="none" xmlns="http://www.w3.org/2000/svg">
<path d="M87.4579 149C87.4579 149 83.5357 142.267 80.7483 135.104C77.4733 135.104 64.5093 135.104 64.5093 135.104C64.5093 135.104 64.4637 140.519 66.0394 149C65.6916 149 57.6818 149 57.6818 149C54.8089 114.532 61.7418 82.2119 64.2537 69.5555C57.4994 69.3839 39.3691 69.926 28.7592 79.8142C21.8823 86.2249 33.9691 95.9424 33.9691 95.9424L27.0922 100.906C21.466 94.0811 21.8823 87.0518 21.8823 87.0518C18.7565 92.6338 18.1312 100.906 18.1312 100.906L9.16918 97.8046C12.0868 89.9465 17.2977 85.6045 17.2977 85.6045C10.0027 85.6045 3.3339 90.3595 3.3339 90.3595L0 82.9153C5.20993 80.6411 18.3393 80.4346 18.3393 80.4346C31.2359 65.4793 56.2316 62.9458 65.5576 62.5252C41.9465 53.2283 27.9267 32.6694 27.9267 32.6694C20.4235 29.5682 11.0462 21.7102 11.0462 21.7102L16.4642 15.5078C20.6316 23.9844 26.4669 26.6735 26.4669 26.6735C23.7583 20.8832 23.7583 10.3388 23.7583 10.3388H32.7203C29.8027 16.7486 31.6768 25.4327 31.6768 25.4327C32.7203 20.4702 40.4307 12.1992 40.4307 12.1992L46.2669 17.9895C46.2669 17.9895 36.6796 22.538 35.8461 30.1887C34.7532 40.2248 59.1321 51.8206 67.4792 55.4846C69.1699 49.0635 70.4434 45.489 70.4434 45.489L66.3445 36.9568L56.8949 43.4212L53.9773 35.7706L64.4238 32.9608L61.1193 26.0824L50.2252 25.0188L53.7692 15.5078L62.2389 22.1231L70.1374 18.0772L61.8977 7.23672L71.9023 3.30767L74.8788 15.6464L82.5455 11.7192L83.5728 0L93.7846 4.54852L87.2365 14.2943L91.1378 22.0383L101.705 13.0251L106.708 23.1584L92.8047 25.345L97.2002 34.0668L109 33.9112L107.541 43.8352L94.1267 38.8661L89.1705 41.7552L97.7448 52.5192L87.9493 57.4826L84.507 44.4735L78.1547 48.1772C65.2554 101.058 97.3827 148.999 97.3827 148.999H87.4579V149ZM88.6183 33.2578L82.1824 20.1468L69.4436 26.4341L75.8796 40.3484L88.6183 33.2578Z" fill="#ACCD7E"/>
</svg>
