<svg width="16" height="26" viewBox="0 0 16 26" fill="none" xmlns="http://www.w3.org/2000/svg">
<rect x="0.749878" y="0.916992" width="14.5" height="23.5" rx="1.25" stroke="#9ACA3C" stroke-width="1.5"/>
<rect x="0.749878" y="0.916992" width="14.5" height="23.5" rx="1.25" stroke="#E0581E" stroke-width="1.5"/>
<line x1="4.57129" y1="2.57617" x2="11.4284" y2="2.57617" stroke="#9ACA3C" stroke-width="2"/>
<line x1="4.57129" y1="2.57617" x2="11.4284" y2="2.57617" stroke="#E0581E" stroke-width="2"/>
<path d="M6.77539 8.771C8.27199 10.2591 10.3672 14.1281 6.77539 17.6996" stroke="#9ACA3C"/>
<path d="M6.77539 8.771C8.27199 10.2591 10.3672 14.1281 6.77539 17.6996" stroke="#E0581E"/>
<path d="M8.57129 6.98511C10.6665 9.06844 13.5999 14.4851 8.57129 19.4851" stroke="#9ACA3C"/>
<path d="M8.57129 6.98511C10.6665 9.06844 13.5999 14.4851 8.57129 19.4851" stroke="#E0581E"/>
<path d="M4.97949 10.5566C5.87745 11.4495 7.13459 13.7709 4.97949 15.9138" stroke="#9ACA3C"/>
<path d="M4.97949 10.5566C5.87745 11.4495 7.13459 13.7709 4.97949 15.9138" stroke="#E0581E"/>
</svg>
