<svg width="32" height="19" viewBox="0 0 32 19" fill="none" xmlns="http://www.w3.org/2000/svg">
<path fill-rule="evenodd" clip-rule="evenodd" d="M31.8303 17.1591C31.7915 17.0722 31.7554 17.0001 31.7219 16.9423C31.1667 15.9017 30.1057 14.6245 28.5396 13.1102L28.5065 13.0755L28.4899 13.0585L28.4732 13.0411H28.4564C27.7456 12.336 27.2955 11.8618 27.107 11.6191C26.7621 11.1567 26.6849 10.6887 26.8734 10.2144C27.0065 9.85612 27.5068 9.09944 28.3729 7.94333C28.8285 7.33063 29.1893 6.83957 29.4557 6.46961C31.3774 3.81087 32.2106 2.1119 31.955 1.37204L31.8557 1.19914C31.789 1.09505 31.6169 0.999827 31.3395 0.912984C31.0615 0.826323 30.7062 0.811991 30.2729 0.869744L25.4746 0.904239C25.3969 0.875574 25.2859 0.878247 25.1413 0.912984C24.9969 0.947721 24.9246 0.96515 24.9246 0.96515L24.8411 1.00857L24.7748 1.06074C24.7193 1.09523 24.6582 1.1559 24.5915 1.24262C24.5251 1.32904 24.4696 1.43046 24.4253 1.54603C23.9029 2.94469 23.3089 4.24509 22.6423 5.44717C22.2313 6.16396 21.8539 6.78516 21.5092 7.31114C21.1649 7.83693 20.8761 8.22433 20.6431 8.47265C20.4096 8.72121 20.199 8.92035 20.0098 9.07077C19.8209 9.22126 19.6767 9.28484 19.5768 9.26158C19.4768 9.23833 19.3825 9.21525 19.2933 9.19217C19.1379 9.08808 19.0129 8.94652 18.9186 8.76737C18.824 8.58822 18.7603 8.36273 18.7269 8.09108C18.6938 7.81926 18.6742 7.58545 18.6686 7.38887C18.6634 7.19253 18.6658 6.91482 18.677 6.55651C18.6886 6.19803 18.6938 5.95547 18.6938 5.8283C18.6938 5.38899 18.702 4.9122 18.7185 4.39782C18.7353 3.88344 18.7489 3.47589 18.7603 3.17564C18.7716 2.87509 18.7769 2.55711 18.7769 2.22189C18.7769 1.88666 18.7573 1.62376 18.7185 1.43295C18.6803 1.24238 18.6215 1.0574 18.544 0.878064C18.4661 0.698913 18.3521 0.560328 18.2025 0.461946C18.0526 0.363686 17.8662 0.285709 17.6444 0.227773C17.0556 0.089128 16.3059 0.0141271 15.3949 0.00246706C13.3291 -0.0206101 12.0017 0.118217 11.413 0.418767C11.1797 0.545753 10.9686 0.719257 10.7799 0.938733C10.5799 1.19313 10.552 1.33196 10.6964 1.35479C11.3629 1.4587 11.8348 1.70726 12.1125 2.10024L12.2126 2.30849C12.2905 2.45873 12.3682 2.72473 12.446 3.10611C12.5236 3.48749 12.5738 3.90938 12.5958 4.37153C12.6513 5.21548 12.6513 5.93792 12.5958 6.5389C12.5402 7.14012 12.4877 7.60816 12.4376 7.94339C12.3874 8.27862 12.3125 8.55026 12.2126 8.75826C12.1125 8.96632 12.0459 9.09348 12.0126 9.13964C11.9792 9.18579 11.9515 9.21488 11.9294 9.2263C11.785 9.28387 11.6349 9.3132 11.4795 9.3132C11.3238 9.3132 11.1351 9.23219 10.913 9.07029C10.691 8.90838 10.4605 8.68599 10.2217 8.40275C9.98283 8.11944 9.71346 7.72355 9.41345 7.215C9.11368 6.70645 8.80264 6.10541 8.48051 5.41188L8.214 4.90892C8.0474 4.58535 7.81981 4.11422 7.531 3.49593C7.24203 2.8774 6.9866 2.27909 6.76456 1.70113C6.6758 1.4584 6.54246 1.2736 6.36476 1.14643L6.28137 1.09426C6.22593 1.04811 6.13694 0.999098 6.01486 0.946871C5.8926 0.894704 5.76504 0.857295 5.63164 0.834278L1.06651 0.868773C0.600015 0.868773 0.283493 0.978754 0.116829 1.19841L0.0501277 1.30232C0.0168065 1.3602 0 1.45263 0 1.57985C0 1.70702 0.0333212 1.8631 0.100022 2.0479C0.766446 3.67787 1.49117 5.24986 2.27419 6.76408C3.05721 8.27831 3.73764 9.49806 4.31507 10.4222C4.89262 11.3471 5.48131 12.22 6.08115 13.0404C6.68099 13.8612 7.07805 14.3872 7.27231 14.6182C7.46681 14.8497 7.61959 15.0228 7.73064 15.1384L8.14724 15.5544C8.41381 15.8319 8.80526 16.1642 9.32177 16.5514C9.8384 16.9388 10.4103 17.3201 11.0379 17.6961C11.6656 18.0715 12.3958 18.3778 13.2289 18.6147C14.062 18.8519 14.8728 18.947 15.6614 18.9011H17.5775C17.9661 18.8662 18.2605 18.739 18.4606 18.5195L18.5269 18.4326C18.5715 18.3637 18.6132 18.2565 18.6517 18.1122C18.6907 17.9678 18.7101 17.8086 18.7101 17.6354C18.6987 17.1385 18.735 16.6906 18.8181 16.2919C18.9012 15.8932 18.9958 15.5927 19.1017 15.3903C19.2075 15.188 19.3269 15.0174 19.4598 14.8791C19.5929 14.7404 19.6878 14.6564 19.7435 14.6275C19.7988 14.5984 19.843 14.5787 19.8763 14.5668C20.1429 14.4744 20.4566 14.5639 20.8179 14.8358C21.179 15.1075 21.5176 15.4429 21.8344 15.8415C22.151 16.2405 22.5313 16.6881 22.9755 17.1851C23.42 17.6822 23.8087 18.0517 24.1418 18.2948L24.4749 18.5029C24.6973 18.6417 24.9861 18.7689 25.3416 18.8845C25.6965 19 26.0074 19.0289 26.2744 18.9711L30.5395 18.9019C30.9613 18.9019 31.2896 18.8292 31.5224 18.685C31.7557 18.5405 31.8943 18.3813 31.939 18.2082C31.9836 18.0349 31.986 17.8382 31.9475 17.6184C31.908 17.3991 31.869 17.2457 31.8303 17.1591Z" fill="white"/>
</svg>
