<svg width="27" height="15" viewBox="0 0 27 15" fill="none" xmlns="http://www.w3.org/2000/svg">
<path fill-rule="evenodd" clip-rule="evenodd" d="M26.7597 13.379C27.653 14.8237 25.768 14.936 25.768 14.936L22.1618 14.9864C22.1618 14.9864 21.3867 15.1347 20.3672 14.4528C19.0187 13.5521 17.7458 11.2075 16.7551 11.5138C15.7495 11.8239 15.7823 13.9325 15.7823 13.9325C15.7823 13.9325 15.7892 14.3833 15.5597 14.623C15.3112 14.8836 14.8243 14.936 14.8243 14.936H13.2096C13.2096 14.936 9.64911 15.1461 6.51298 11.9656C3.09265 8.49778 0.0727843 1.61733 0.0727843 1.61733C0.0727843 1.61733 -0.101114 1.16555 0.0886833 0.947741C0.301336 0.70235 0.879671 0.687132 0.879671 0.687132L4.73822 0.661452C4.73822 0.661452 5.10192 0.720422 5.36128 0.906842C5.57592 1.05997 5.69615 1.34721 5.69615 1.34721C5.69615 1.34721 6.31921 2.88233 7.14498 4.27193C8.75776 6.98454 9.50701 7.57709 10.0555 7.287C10.8525 6.86374 10.614 3.45301 10.614 3.45301C10.614 3.45301 10.6289 2.21559 10.2125 1.66394C9.89058 1.23688 9.28343 1.11228 9.01413 1.07804C8.79651 1.04951 9.15325 0.55873 9.61532 0.33902C10.3099 0.00802812 11.5362 -0.0109941 12.984 0.00327277C14.1128 0.0146863 14.4378 0.0831672 14.879 0.18684C16.2095 0.49976 15.7574 1.70769 15.7574 4.60482C15.7574 5.53217 15.5865 6.83806 16.2741 7.26987C16.5693 7.45629 17.2927 7.29746 19.1012 4.30902C19.9578 2.89184 20.6007 1.22642 20.6007 1.22642C20.6007 1.22642 20.7408 0.928718 20.9585 0.802219C21.182 0.672866 21.4831 0.712813 21.4831 0.712813L25.5434 0.688084C25.5434 0.688084 26.7627 0.546366 26.9604 1.0828C27.1671 1.64587 26.5043 2.96032 24.8458 5.11272C22.1221 8.64806 21.819 8.31706 24.0797 10.361C26.239 12.3108 26.6872 13.2601 26.7597 13.379Z" fill="#7AAD16"/>
<path fill-rule="evenodd" clip-rule="evenodd" d="M26.7597 13.379C27.653 14.8237 25.768 14.936 25.768 14.936L22.1618 14.9864C22.1618 14.9864 21.3867 15.1347 20.3672 14.4528C19.0187 13.5521 17.7458 11.2075 16.7551 11.5138C15.7495 11.8239 15.7823 13.9325 15.7823 13.9325C15.7823 13.9325 15.7892 14.3833 15.5597 14.623C15.3112 14.8836 14.8243 14.936 14.8243 14.936H13.2096C13.2096 14.936 9.64911 15.1461 6.51298 11.9656C3.09265 8.49778 0.0727843 1.61733 0.0727843 1.61733C0.0727843 1.61733 -0.101114 1.16555 0.0886833 0.947741C0.301336 0.70235 0.879671 0.687132 0.879671 0.687132L4.73822 0.661452C4.73822 0.661452 5.10192 0.720422 5.36128 0.906842C5.57592 1.05997 5.69615 1.34721 5.69615 1.34721C5.69615 1.34721 6.31921 2.88233 7.14498 4.27193C8.75776 6.98454 9.50701 7.57709 10.0555 7.287C10.8525 6.86374 10.614 3.45301 10.614 3.45301C10.614 3.45301 10.6289 2.21559 10.2125 1.66394C9.89058 1.23688 9.28343 1.11228 9.01413 1.07804C8.79651 1.04951 9.15325 0.55873 9.61532 0.33902C10.3099 0.00802812 11.5362 -0.0109941 12.984 0.00327277C14.1128 0.0146863 14.4378 0.0831672 14.879 0.18684C16.2095 0.49976 15.7574 1.70769 15.7574 4.60482C15.7574 5.53217 15.5865 6.83806 16.2741 7.26987C16.5693 7.45629 17.2927 7.29746 19.1012 4.30902C19.9578 2.89184 20.6007 1.22642 20.6007 1.22642C20.6007 1.22642 20.7408 0.928718 20.9585 0.802219C21.182 0.672866 21.4831 0.712813 21.4831 0.712813L25.5434 0.688084C25.5434 0.688084 26.7627 0.546366 26.9604 1.0828C27.1671 1.64587 26.5043 2.96032 24.8458 5.11272C22.1221 8.64806 21.819 8.31706 24.0797 10.361C26.239 12.3108 26.6872 13.2601 26.7597 13.379Z" fill="#C4C4C4"/>
</svg>
