<svg width="27" height="16" viewBox="0 0 27 16" fill="none" xmlns="http://www.w3.org/2000/svg">
<path fill-rule="evenodd" clip-rule="evenodd" d="M26.7598 13.5459C27.6532 14.9907 25.7681 15.1029 25.7681 15.1029L22.162 15.1534C22.162 15.1534 21.3869 15.3017 20.3673 14.6198C19.0189 13.7191 17.7459 11.3745 16.7552 11.6808C15.7496 11.9909 15.7824 14.0995 15.7824 14.0995C15.7824 14.0995 15.7893 14.5503 15.5598 14.79C15.3114 15.0506 14.8244 15.1029 14.8244 15.1029H13.2097C13.2097 15.1029 9.64923 15.3131 6.5131 12.1326C3.09277 8.66477 0.0729063 1.78433 0.0729063 1.78433C0.0729063 1.78433 -0.100992 1.33254 0.0888054 1.11473C0.301458 0.869343 0.879793 0.854124 0.879793 0.854124L4.73835 0.828444C4.73835 0.828444 5.10204 0.887414 5.3614 1.07383C5.57604 1.22697 5.69628 1.51421 5.69628 1.51421C5.69628 1.51421 6.31933 3.04932 7.1451 4.43892C8.75788 7.15153 9.50713 7.74408 10.0557 7.45399C10.8526 7.03074 10.6141 3.62 10.6141 3.62C10.6141 3.62 10.629 2.38258 10.2127 1.83093C9.8907 1.40387 9.28355 1.27928 9.01425 1.24504C8.79663 1.2165 9.15337 0.725722 9.61545 0.506012C10.31 0.17502 11.5363 0.155998 12.9841 0.170265C14.113 0.181678 14.4379 0.250159 14.8791 0.353832C16.2097 0.666753 15.7575 1.87468 15.7575 4.77181C15.7575 5.69916 15.5866 7.00505 16.2743 7.43687C16.5694 7.62329 17.2928 7.46445 19.1013 4.47601C19.9579 3.05883 20.6008 1.39341 20.6008 1.39341C20.6008 1.39341 20.741 1.09571 20.9586 0.969211C21.1822 0.839858 21.4833 0.879805 21.4833 0.879805L25.5435 0.855076C25.5435 0.855076 26.7628 0.713358 26.9605 1.24979C27.1672 1.81286 26.5044 3.12731 24.8459 5.27971C22.1222 8.81505 21.8191 8.48406 24.0798 10.528C26.2391 12.4778 26.6873 13.4271 26.7598 13.5459Z" fill="#7AAD16"/>
<path fill-rule="evenodd" clip-rule="evenodd" d="M26.7598 13.5459C27.6532 14.9907 25.7681 15.1029 25.7681 15.1029L22.162 15.1534C22.162 15.1534 21.3869 15.3017 20.3673 14.6198C19.0189 13.7191 17.7459 11.3745 16.7552 11.6808C15.7496 11.9909 15.7824 14.0995 15.7824 14.0995C15.7824 14.0995 15.7893 14.5503 15.5598 14.79C15.3114 15.0506 14.8244 15.1029 14.8244 15.1029H13.2097C13.2097 15.1029 9.64923 15.3131 6.5131 12.1326C3.09277 8.66477 0.0729063 1.78433 0.0729063 1.78433C0.0729063 1.78433 -0.100992 1.33254 0.0888054 1.11473C0.301458 0.869343 0.879793 0.854124 0.879793 0.854124L4.73835 0.828444C4.73835 0.828444 5.10204 0.887414 5.3614 1.07383C5.57604 1.22697 5.69628 1.51421 5.69628 1.51421C5.69628 1.51421 6.31933 3.04932 7.1451 4.43892C8.75788 7.15153 9.50713 7.74408 10.0557 7.45399C10.8526 7.03074 10.6141 3.62 10.6141 3.62C10.6141 3.62 10.629 2.38258 10.2127 1.83093C9.8907 1.40387 9.28355 1.27928 9.01425 1.24504C8.79663 1.2165 9.15337 0.725722 9.61545 0.506012C10.31 0.17502 11.5363 0.155998 12.9841 0.170265C14.113 0.181678 14.4379 0.250159 14.8791 0.353832C16.2097 0.666753 15.7575 1.87468 15.7575 4.77181C15.7575 5.69916 15.5866 7.00505 16.2743 7.43687C16.5694 7.62329 17.2928 7.46445 19.1013 4.47601C19.9579 3.05883 20.6008 1.39341 20.6008 1.39341C20.6008 1.39341 20.741 1.09571 20.9586 0.969211C21.1822 0.839858 21.4833 0.879805 21.4833 0.879805L25.5435 0.855076C25.5435 0.855076 26.7628 0.713358 26.9605 1.24979C27.1672 1.81286 26.5044 3.12731 24.8459 5.27971C22.1222 8.81505 21.8191 8.48406 24.0798 10.528C26.2391 12.4778 26.6873 13.4271 26.7598 13.5459Z" fill="#FFC683"/>
<path fill-rule="evenodd" clip-rule="evenodd" d="M26.7598 13.5459C27.6532 14.9907 25.7681 15.1029 25.7681 15.1029L22.162 15.1534C22.162 15.1534 21.3869 15.3017 20.3673 14.6198C19.0189 13.7191 17.7459 11.3745 16.7552 11.6808C15.7496 11.9909 15.7824 14.0995 15.7824 14.0995C15.7824 14.0995 15.7893 14.5503 15.5598 14.79C15.3114 15.0506 14.8244 15.1029 14.8244 15.1029H13.2097C13.2097 15.1029 9.64923 15.3131 6.5131 12.1326C3.09277 8.66477 0.0729063 1.78433 0.0729063 1.78433C0.0729063 1.78433 -0.100992 1.33254 0.0888054 1.11473C0.301458 0.869343 0.879793 0.854124 0.879793 0.854124L4.73835 0.828444C4.73835 0.828444 5.10204 0.887414 5.3614 1.07383C5.57604 1.22697 5.69628 1.51421 5.69628 1.51421C5.69628 1.51421 6.31933 3.04932 7.1451 4.43892C8.75788 7.15153 9.50713 7.74408 10.0557 7.45399C10.8526 7.03074 10.6141 3.62 10.6141 3.62C10.6141 3.62 10.629 2.38258 10.2127 1.83093C9.8907 1.40387 9.28355 1.27928 9.01425 1.24504C8.79663 1.2165 9.15337 0.725722 9.61545 0.506012C10.31 0.17502 11.5363 0.155998 12.9841 0.170265C14.113 0.181678 14.4379 0.250159 14.8791 0.353832C16.2097 0.666753 15.7575 1.87468 15.7575 4.77181C15.7575 5.69916 15.5866 7.00505 16.2743 7.43687C16.5694 7.62329 17.2928 7.46445 19.1013 4.47601C19.9579 3.05883 20.6008 1.39341 20.6008 1.39341C20.6008 1.39341 20.741 1.09571 20.9586 0.969211C21.1822 0.839858 21.4833 0.879805 21.4833 0.879805L25.5435 0.855076C25.5435 0.855076 26.7628 0.713358 26.9605 1.24979C27.1672 1.81286 26.5044 3.12731 24.8459 5.27971C22.1222 8.81505 21.8191 8.48406 24.0798 10.528C26.2391 12.4778 26.6873 13.4271 26.7598 13.5459Z" fill="#E0581E"/>
</svg>
